<?xml version="1.0" encoding="utf-8"?>
<!-- Generator: Adobe Illustrator 26.5.0, SVG Export Plug-In . SVG Version: 6.00 Build 0)  -->
<svg version="1.1" id="Слой_1" xmlns="http://www.w3.org/2000/svg" xmlns:xlink="http://www.w3.org/1999/xlink" x="0px" y="0px"
	 viewBox="0 0 500 500" style="enable-background:new 0 0 500 500;" xml:space="preserve">
<style type="text/css">
	.st0{fill-rule:evenodd;clip-rule:evenodd;}
</style>
<path d="M73.88,183.8l24.2,43.26v26.39L73.9,296.62L73.88,183.8z"/>
<path d="M166.8,211.32l22.68-13.9l46.41-0.04L166.8,239.7V211.32z"/>
<path d="M166.67,183.55l0.13,57.27l-24.26-14.9V140.3L166.67,183.55L166.67,183.55z"/>
<path d="M235.89,197.37l-46.41,0.04l-22.8-13.87l-24.13-43.24L235.89,197.37L235.89,197.37z"/>
<path d="M166.8,296.86v-27.79l-24.26-14.62l0.01,85.7L166.8,296.86z"/>
<path d="M189.42,283.09l-91.34-56.03l-24.2-43.26l161.91,99.23L189.42,283.09L189.42,283.09z"/>
<path d="M142.56,340.15l24.24-43.29l22.62-13.77l46.37-0.06L142.56,340.15z"/>
<path d="M73.91,296.62l68.83-42.17l-23.14-14.2l-21.52,13.19L73.91,296.62z"/>
<path class="st0" d="M338.48,268.53c15.62,0,27.21-9.58,27.21-24.09c0-14.05-8.56-23.17-22.86-23.17c-6.6,0-12.05,2.32-16.15,6.33
	c0.98-8.28,7.99-14.33,15.7-14.33c1.78,0,15.18-0.03,15.18-0.03l7.58-14.5c0,0-16.83,0.38-24.65,0.38
	c-17.87,0.31-29.95,16.56-29.95,36.29C310.56,258.39,322.33,268.53,338.48,268.53z M338.57,234.11c5.8,0,9.82,3.81,9.82,10.33
	c0,5.86-3.57,10.69-9.82,10.71c-5.98,0-10-4.48-10-10.61C328.58,238.02,332.6,234.11,338.57,234.11z M426,217.92v48.86h-17.45
	v-34.27h-16.8v34.27h-17.45v-48.86L426,217.92z M286.08,253.25c6.15-0.45,10.27-2.82,10.27-2.82l6.46,11.95
	c-4.13,2.66-10.92,4.38-15.84,4.57c-17.59,0.32-29.83-10.38-29.83-25.98c0-15.4,13.02-26.36,29.83-26.36
	c6.66,0,12.39,1.79,16.69,5.05c-0.9,1.6-2.14,3.83-3.3,5.95l-1.87,3.41l-1.7,3.12c0,0-6.2-3.25-10.88-3.25
	c-7.64,0-13.2,4.44-13.2,12.18C272.71,248.99,279.01,253.46,286.08,253.25z"/>
</svg>
