<?xml version="1.0" encoding="utf-8"?>
<!-- Generator: Adobe Illustrator 26.5.0, SVG Export Plug-In . SVG Version: 6.00 Build 0)  -->
<svg version="1.1" id="Слой_1" xmlns="http://www.w3.org/2000/svg" xmlns:xlink="http://www.w3.org/1999/xlink" x="0px" y="0px"
	 viewBox="0 0 500 500" style="enable-background:new 0 0 500 500;" xml:space="preserve">
<style type="text/css">
	.st0{fill:none;stroke:#FFFFFF;stroke-width:10;stroke-miterlimit:10;}
	.st1{fill:none;stroke:#FFFFFF;stroke-width:10;stroke-linecap:round;stroke-miterlimit:10;}
</style>
<path class="st0" d="M361.86,469.87H42.26c-7.83,0-14.17-6.35-14.17-14.17V138.46c0-7.83,6.35-14.17,14.17-14.17h319.59
	c7.83,0,14.17,6.35,14.17,14.17V455.7C376.03,463.53,369.69,469.87,361.86,469.87z"/>
<path class="st1" d="M131.59,29.25h325.95c7.83,0,14.17,6.35,14.17,14.17v322.96"/>
<path class="st1" d="M81.25,78.7h325.95c7.83,0,14.17,6.35,14.17,14.17v322.96"/>
<path class="st1" d="M250.54,468.6c20.68-69.31,12.23-113.89,0-142.22c-8.42-19.49-21.26-37.38-29.17-71.12
	c-7.13-30.43-6.31-56.9-4.44-74.67"/>
<path class="st1" d="M119.05,468.6c20.68-69.31,12.23-113.89,0-142.22c-8.42-19.49-21.26-37.38-29.17-71.12
	c-7.13-30.43-6.31-56.9-4.44-74.67"/>
<path class="st1" d="M184.79,412.29c20.68-69.31,12.23-113.89,0-142.22c-8.42-19.49-21.26-37.38-29.17-71.12
	c-7.13-30.43-6.31-56.9-4.44-74.67"/>
<path class="st1" d="M317.16,412.29c20.68-69.31,12.23-113.89,0-142.22c-8.42-19.49-21.26-37.38-29.17-71.12
	c-7.13-30.43-6.31-56.9-4.44-74.67"/>
</svg>
