<?xml version="1.0" encoding="utf-8"?>
<!-- Generator: Adobe Illustrator 26.5.0, SVG Export Plug-In . SVG Version: 6.00 Build 0)  -->
<svg version="1.1" id="Слой_1" xmlns="http://www.w3.org/2000/svg" xmlns:xlink="http://www.w3.org/1999/xlink" x="0px" y="0px"
	 viewBox="0 0 500 500" style="enable-background:new 0 0 500 500;" xml:space="preserve">
<style type="text/css">
	.st0{fill:none;stroke:#FFFFFF;stroke-width:10;stroke-miterlimit:10;}
</style>
<path class="st0" d="M232.22,376.53c124.76,3.84,165.23-0.14,224.67-0.14c7.83,0,14.19-6.34,14.19-14.17V61.1
	c0-7.83-6.35-14.17-14.17-14.17h-414c-7.83,0-14.17,6.35-14.17,14.17v301.11c0,3.91,1.59,7.46,4.15,10.02
	c4.06,4.06,9.08,4.15,10.02,4.15c16.27,0,29.04,0,37.86,0c7.83,0,14.16,6.35,14.16,14.17v47.43c0,11.3,12.58,18.06,22,11.81
	l107.03-70.93C226.4,377.26,229.29,376.44,232.22,376.53z"/>
<path class="st0" d="M350.98,132.12L350.98,132.12c-18.56-20.91-48.64-20.91-67.2,0l-17.54,19.76c-5.53,6.24-14.51,6.24-20.04,0
	l-17.42-19.63c-18.56-20.91-48.64-20.91-67.2,0l0,0c-18.56,20.91-18.56,54.81,0,75.72l84.3,94.99c5.52,6.22,14.47,6.24,20.01,0.04
	l85.1-95.16C369.54,186.92,369.54,153.02,350.98,132.12z"/>
</svg>
