<?xml version="1.0" encoding="utf-8"?>
<!-- Generator: Adobe Illustrator 26.5.0, SVG Export Plug-In . SVG Version: 6.00 Build 0)  -->
<svg version="1.1" id="Слой_1" xmlns="http://www.w3.org/2000/svg" xmlns:xlink="http://www.w3.org/1999/xlink" x="0px" y="0px"
	 viewBox="0 0 500 500" style="enable-background:new 0 0 500 500;" xml:space="preserve">
<style type="text/css">
	.st0{fill:none;stroke:#FFFFFF;stroke-width:10;stroke-miterlimit:10;}
</style>
<path class="st0" d="M317.12,354.46c-23.9,19.41-88.72-13.26-129.19-54.52c-27.01-27.54-65.43-81.39-48.59-110.22
	c10.9-18.67,35.7-11.52,45.63-31.7c11.44-23.25-11.87-55.86-26.67-76.74c-17.69-24.98-34.67-48.94-56.3-48
	c-29.73,1.29-50.44,48.86-57.48,77.04c-14.99,60.02,11.73,113.5,27.85,145.78c24.28,48.6,55.13,78.61,77.04,99.56
	c25.04,23.94,57.89,54.87,109.96,76.22c29.01,11.9,95.1,39,155.52,11.48c7.32-3.34,50.04-22.79,50.37-51.85
	c0.21-18.65-17.13-32.07-37.33-47.7c-9.07-7.02-66.26-49.99-92.44-31.41C320.44,323.07,330.98,343.2,317.12,354.46z"/>
</svg>
