<?xml version="1.0" encoding="utf-8"?>
<!-- Generator: Adobe Illustrator 26.5.0, SVG Export Plug-In . SVG Version: 6.00 Build 0)  -->
<svg version="1.1" id="Слой_1" xmlns="http://www.w3.org/2000/svg" xmlns:xlink="http://www.w3.org/1999/xlink" x="0px" y="0px"
	 viewBox="0 0 500 500" style="enable-background:new 0 0 500 500;" xml:space="preserve">
<style type="text/css">
	.st0{fill:none;stroke:#FFFFFF;stroke-width:10;stroke-miterlimit:10;}
	.st1{fill:none;stroke:#FFFFFF;stroke-width:10;stroke-linecap:round;stroke-miterlimit:10;}
</style>
<circle class="st0" cx="103.37" cy="103.66" r="73.78"/>
<circle class="st0" cx="394.6" cy="103.66" r="73.78"/>
<circle class="st0" cx="103.37" cy="395.46" r="73.78"/>
<line class="st0" x1="177.15" y1="103.66" x2="320.83" y2="103.66"/>
<line class="st0" x1="345.89" y1="159.07" x2="159.33" y2="345.64"/>
<line class="st0" x1="177.15" y1="395.46" x2="286.78" y2="395.46"/>
<line class="st1" x1="103.37" y1="80.05" x2="103.37" y2="127.26"/>
<line class="st1" x1="382.08" y1="80.05" x2="382.08" y2="127.26"/>
<line class="st1" x1="408.01" y1="80.05" x2="408.01" y2="127.26"/>
<line class="st1" x1="77.44" y1="370.97" x2="77.44" y2="418.18"/>
<line class="st1" x1="103.37" y1="370.97" x2="103.37" y2="418.18"/>
<line class="st1" x1="128.56" y1="370.97" x2="128.56" y2="418.18"/>
<path class="st0" d="M447.03,469.24h-142.8c-11.31,0-20.47-6.35-20.47-14.17V335.86c0-7.83,9.17-14.17,20.47-14.17h143.64
	c18.18,0,27.33,15.19,14.56,24.14c-25.53,17.89-45.38,31.8-57.73,40.45c-7.95,5.57-7.87,14.53,0.17,20.03
	c11.84,8.1,30.8,21.07,56.53,38.67C474.43,453.88,465.33,469.24,447.03,469.24z"/>
</svg>
