<?xml version="1.0" encoding="UTF-8"?>
<!DOCTYPE svg PUBLIC "-//W3C//DTD SVG 1.1//EN" "http://www.w3.org/Graphics/SVG/1.1/DTD/svg11.dtd">
<!-- Creator: it-genn.ru -->
<svg xmlns="http://www.w3.org/2000/svg" xml:space="preserve" width="500px" height="500px" version="1.1" style="shape-rendering:geometricPrecision; text-rendering:geometricPrecision; image-rendering:optimizeQuality; fill-rule:evenodd; clip-rule:evenodd"
viewBox="0 0 21.391 21.391"
 xmlns:xlink="http://www.w3.org/1999/xlink"
 xmlns:xodm="http://it-genn.ru">
 <defs>
  <style type="text/css">
   <![CDATA[
    .fil1 {fill:none}
    .fil0 {fill:gray}
   ]]>
  </style>
 </defs>
 <g id="genn-art_x0020_1">
  <metadata id="it-genn-ru-Layer"/>
  <g id="_2478053808272">
   <g>
    <path class="fil0" d="M2.42 18.436l16.546 0 0 0.533 -16.546 0 0 -0.533zm6.675 -7.812l9.268 0 0 7.315 -9.268 0 0 -7.315zm-3.018 4.723l1.314 0 0 2.592 -1.314 0 0 -2.592zm-1.811 0l1.278 0 0 2.592 -1.278 0 0 -2.592zm-0.532 -0.036l0 2.628 -0.675 0 0 -3.906 5.539 0 0 3.906 -0.71 0 0 -2.734c0,-0.234 -0.254,-0.391 -0.497,-0.391l-3.16 0c-0.296,0 -0.497,0.202 -0.497,0.497zm12.853 -11.93l1.065 0 0 6.746 -1.065 0 0 -6.746zm-3.018 1.42l1.065 0 0 5.326 -1.065 0 0 -5.326zm-4.971 5.681l0 3.054 -4.332 0 0 -5.22 0.863 -0.131c0.289,-0.048 0.573,-0.095 0.845,-0.15 0.281,-0.056 0.564,-0.092 0.846,-0.148l3.381 -0.596c0.152,-0.025 0.288,-0.045 0.424,-0.072 0.132,-0.026 0.322,-0.071 0.459,-0.074l0 2.982 -2.131 0c-0.178,0 -0.355,0.177 -0.355,0.355zm-5.361 -2.485l0 -0.497 5.564 -0.969c0.78,-0.134 2.689,-0.44 3.348,-0.594l0 0.498 -4.449 0.771c-0.381,0.062 -0.739,0.123 -1.117,0.196 -0.958,0.188 -2.486,0.394 -3.346,0.595zm10.332 -4.154l1.065 0 0 0.461 -1.065 0 0 -0.461zm3.018 -1.421l1.065 0 0 0.462 -1.065 0 0 -0.462zm-0.532 0l0 7.705 -0.888 0 0 -6.249c0,-0.287 -0.113,-0.533 -0.391,-0.533l-1.42 0c-0.144,0 -0.319,0.202 -0.319,0.462l0 6.32 -1.421 0 0 -3.089c0.169,-0.004 0.497,-0.074 0.668,-0.113 0.461,-0.106 0.362,-0.544 0.362,-1.094 0,-0.191 -0.168,-0.371 -0.335,-0.413 -0.131,-0.033 -2.304,0.366 -2.663,0.433l-4.616 0.817c-0.463,0.084 -0.884,0.142 -1.331,0.231 -1.052,0.21 -0.997,0.044 -0.997,1.204 0,0.198 0.213,0.427 0.391,0.427 0.166,0 0.487,-0.072 0.639,-0.107l0 5.113c-0.717,0 -1.208,-0.124 -1.208,0.284l0 4.119c-0.716,0 -0.603,0.287 -0.603,1.136 0,0.208 0.183,0.391 0.39,0.391l16.76 0c0.506,0 0.39,-0.67 0.39,-1.137 0,-0.36 -0.345,-0.39 -0.568,-0.39l0 -7.386c0,-0.455 -0.498,-0.426 -0.71,-0.426l0 -7.74c0,-0.112 -0.034,-0.235 -0.084,-0.307 -0.036,-0.052 -0.168,-0.155 -0.236,-0.155l-1.42 0c-0.255,0 -0.39,0.241 -0.39,0.497z"/>
    <path class="fil0" d="M5.367 11.548l0.923 0 0 0.923 -0.923 0 0 -0.923zm-0.533 -0.036c0,1.648 -0.158,1.456 1.563,1.456 0.207,0 0.39,-0.183 0.39,-0.391l0 -1.171c0,-0.534 -0.915,-0.391 -1.527,-0.391 -0.253,0 -0.426,0.231 -0.426,0.497z"/>
    <path class="fil0" d="M16.161 15.347l0.923 0 0 0.923 -0.923 0 0 -0.923zm-0.532 -0.036c0,1.676 -0.16,1.456 1.597,1.456 0.179,0 0.355,-0.176 0.355,-0.355l0 -1.207c0,-0.522 -0.942,-0.391 -1.455,-0.391 -0.296,0 -0.497,0.202 -0.497,0.497z"/>
    <path class="fil0" d="M13.285 15.347l0.923 0 0 0.923 -0.923 0 0 -0.923zm-0.533 -0.036c0,1.673 -0.149,1.456 1.598,1.456 0.179,0 0.355,-0.176 0.355,-0.355l0 -1.207c0,-0.522 -0.942,-0.391 -1.455,-0.391 -0.296,0 -0.498,0.202 -0.498,0.497z"/>
    <path class="fil0" d="M10.409 15.347l0.923 0 0 0.923 -0.923 0 0 -0.923zm-0.533 -0.036c0,1.673 -0.149,1.456 1.598,1.456 0.179,0 0.355,-0.176 0.355,-0.355l0 -1.207c0,-0.522 -0.942,-0.391 -1.456,-0.391 -0.295,0 -0.497,0.202 -0.497,0.497z"/>
    <path class="fil0" d="M13.285 12.222l0.923 0 0 0.923 -0.923 0 0 -0.923zm-0.533 -0.071c0,1.691 -0.166,1.527 1.492,1.527 0.235,0 0.461,-0.165 0.461,-0.391l0 -1.171c0,-0.208 -0.183,-0.391 -0.39,-0.391l-1.172 0c-0.199,0 -0.391,0.235 -0.391,0.426z"/>
    <path class="fil0" d="M16.161 12.222l0.923 0 0 0.923 -0.923 0 0 -0.923zm-0.532 -0.071c0,1.691 -0.167,1.527 1.491,1.527 0.235,0 0.461,-0.165 0.461,-0.391l0 -1.171c0,-0.208 -0.183,-0.391 -0.39,-0.391l-1.172 0c-0.199,0 -0.39,0.235 -0.39,0.426z"/>
    <path class="fil0" d="M10.409 12.222l0.923 0 0 0.923 -0.923 0 0 -0.923zm-0.533 0c0,1.614 -0.15,1.456 1.492,1.456 0.235,0 0.461,-0.165 0.461,-0.391l0 -1.171c0,-0.208 -0.183,-0.391 -0.39,-0.391l-1.172 0c-0.234,0 -0.391,0.254 -0.391,0.497z"/>
    <path class="fil0" d="M5.367 9.062l0.923 0 0 0.923 -0.923 0 0 -0.923zm-0.533 -0.071c0,1.664 -0.159,1.527 1.456,1.527 0.243,0 0.497,-0.156 0.497,-0.391l0 -1.207c0,-0.178 -0.176,-0.355 -0.355,-0.355l-1.207 0c-0.199,0 -0.391,0.235 -0.391,0.426z"/>
   </g>
   <rect class="fil1" width="21.391" height="21.391"/>
  </g>
 </g>
</svg>
