<?xml version="1.0" encoding="UTF-8"?>
<!DOCTYPE svg PUBLIC "-//W3C//DTD SVG 1.1//EN" "http://www.w3.org/Graphics/SVG/1.1/DTD/svg11.dtd">
<!-- Creator: it-genn.ru -->
<svg xmlns="http://www.w3.org/2000/svg" xml:space="preserve" width="500px" height="500px" version="1.1" style="shape-rendering:geometricPrecision; text-rendering:geometricPrecision; image-rendering:optimizeQuality; fill-rule:evenodd; clip-rule:evenodd"
viewBox="0 0 16.273 16.273"
 xmlns:xlink="http://www.w3.org/1999/xlink"
 xmlns:xodm="http://it-genn.ru">
 <defs>
  <style type="text/css">
   <![CDATA[
    .fil1 {fill:none}
    .fil0 {fill:gray}
   ]]>
  </style>
 </defs>
 <g id="genn-art_x0020_1">
  <metadata id="it-genn-ru-Layer"/>
  <g id="_2477926290960">
   <g>
    <path class="fil0" d="M1.465 6.99c0,0.368 0.222,0.599 0.573,0.599l1.094 0 0 3.961c0,0.197 0.095,0.432 0.205,0.578 0.195,0.259 0.535,0.465 0.916,0.465l4.17 0c0.183,0 0.363,-0.229 0.231,-0.439 -0.118,-0.185 -0.363,-0.135 -0.648,-0.135 -0.437,0 -3.72,0.032 -3.894,-0.014 -0.18,-0.048 -0.358,-0.201 -0.397,-0.386 -0.038,-0.18 -0.009,-3.325 -0.009,-3.9 0,-0.873 0.007,-0.703 -1.642,-0.703 0.112,-0.167 1.644,-1.526 1.948,-1.831 0.058,-0.058 0.097,-0.104 0.159,-0.154 0.075,-0.06 0.097,-0.075 0.167,-0.146l0.495 -0.469c0.066,-0.062 0.102,-0.076 0.17,-0.143l2.299 -2.131 0.281 0.241c0.093,0.086 0.167,0.182 0.263,0.258l1.352 1.254c0.431,0.434 0.606,0.035 0.606,-0.059l0 -1.251 1.095 0 0 2.658c0,0.231 0.059,0.297 0.197,0.402 0.115,0.088 0.198,0.198 0.304,0.296l0.466 0.42c0.138,0.112 0.092,0.107 0.31,0.107 0.103,0 0.309,-0.229 0.153,-0.439l-0.603 -0.571c-0.077,-0.077 -0.141,-0.185 -0.254,-0.215l0 -2.658c0,-0.228 0.071,-0.573 -0.313,-0.573l-1.641 0c-0.399,0 -0.287,0.696 -0.287,1.12l-1.153 -1.062c-0.039,-0.039 -0.064,-0.067 -0.106,-0.103 -0.057,-0.048 -0.072,-0.049 -0.129,-0.105l-0.351 -0.327c-0.049,-0.04 -0.096,-0.063 -0.142,-0.07l-0.08 0c-0.199,0.033 -0.382,0.299 -0.575,0.461l-1.289 1.187c-0.127,0.128 -0.238,0.211 -0.365,0.339 -0.127,0.128 -0.237,0.211 -0.364,0.339l-2.58 2.397c-0.191,0.193 -0.632,0.465 -0.632,0.802z"/>
    <path class="fil0" d="M9.804 10.378c0,-1.032 0.721,-1.945 1.71,-2.174 0.809,-0.188 1.439,0.045 2.035,0.539 0.054,0.045 0.083,0.077 0.127,0.134 0.439,0.566 0.559,0.857 0.559,1.631 0,0.67 -0.388,1.337 -0.696,1.859 -0.05,0.086 -0.087,0.141 -0.146,0.218 -0.111,0.148 -0.194,0.277 -0.311,0.419 -0.06,0.073 -0.101,0.127 -0.161,0.203l-0.517 0.578c-0.085,0.084 -0.285,0.319 -0.385,0.345 -0.113,-0.076 -0.264,-0.251 -0.371,-0.358 -0.461,-0.461 -0.981,-1.127 -1.295,-1.675 -0.169,-0.295 -0.367,-0.719 -0.45,-1.062 -0.037,-0.153 -0.099,-0.468 -0.099,-0.657zm2.189 4.43c0.174,0 0.215,-0.042 0.333,-0.163 0.084,-0.086 0.148,-0.12 0.234,-0.208l0.743 -0.796c0.047,-0.052 0.055,-0.074 0.104,-0.129 0.627,-0.704 1.401,-2.032 1.401,-3.03 0,-0.549 -0.031,-0.846 -0.278,-1.338 -0.151,-0.301 -0.195,-0.374 -0.406,-0.611 -0.192,-0.216 -0.278,-0.307 -0.535,-0.48 -0.656,-0.442 -1.448,-0.596 -2.232,-0.397 -1.46,0.372 -2.401,1.803 -2.032,3.41 0.312,1.362 1.262,2.449 2.206,3.397 0.093,0.094 0.334,0.345 0.462,0.345z"/>
    <path class="fil0" d="M12.567 10.273c0,0.446 -0.177,0.626 -0.626,0.626 -0.332,0 -0.666,-0.569 -0.304,-0.93 0.358,-0.359 0.93,-0.039 0.93,0.304zm-0.626 1.199c0.357,0 0.621,-0.058 0.881,-0.318 0.772,-0.772 0.07,-2.121 -1.048,-1.882 -0.253,0.054 -0.379,0.153 -0.53,0.304 -0.771,0.771 -0.086,1.896 0.697,1.896z"/>
   </g>
   <rect class="fil1" width="16.273" height="16.273"/>
  </g>
 </g>
</svg>
