<?xml version="1.0" encoding="UTF-8"?>
<!DOCTYPE svg PUBLIC "-//W3C//DTD SVG 1.1//EN" "http://www.w3.org/Graphics/SVG/1.1/DTD/svg11.dtd">
<!-- Creator: it-genn.ru -->
<svg xmlns="http://www.w3.org/2000/svg" xml:space="preserve" width="500px" height="500px" version="1.1" style="shape-rendering:geometricPrecision; text-rendering:geometricPrecision; image-rendering:optimizeQuality; fill-rule:evenodd; clip-rule:evenodd"
viewBox="0 0 26.981 26.981"
 xmlns:xlink="http://www.w3.org/1999/xlink"
 xmlns:xodm="http://it-genn.ru">
 <defs>
  <style type="text/css">
   <![CDATA[
    .fil1 {fill:none}
    .fil0 {fill:gray}
   ]]>
  </style>
 </defs>
 <g id="genn-art_x0020_1">
  <metadata id="it-genn-ru-Layer"/>
  <g id="_2480887543344">
   <g>
    <path class="fil0" d="M7.409 22.81c0,-1.125 1.583,-1.488 2.044,-0.435 0.57,1.304 -1.388,2.134 -1.942,0.869 -0.039,-0.09 -0.102,-0.328 -0.102,-0.434zm-1.43 -7.778c0,-0.11 0.069,-0.262 0.124,-0.323 0.083,-0.092 0.203,-0.123 0.368,-0.123l7.553 0c0.279,0 0.492,0.127 0.492,0.402l0 4.603 -6.123 0c-0.36,0 -0.36,0.716 0,0.716l6.168 0 0 2.145 -4.336 0c-0.015,-0.682 -0.885,-1.43 -1.609,-1.43l-0.268 0c-0.724,0 -1.594,0.748 -1.609,1.43 -0.956,0 -0.76,-0.171 -0.76,-2.145 1.153,0 1.43,0.141 1.43,-0.447 0,-0.398 -0.872,-0.269 -1.43,-0.269l0 -4.559zm10.727 0.984c1.689,0 1.531,-0.073 2.298,1.232 0.326,0.555 0.669,1.07 0.965,1.628l-3.263 0 0 -2.86zm-11.442 -1.118l0 7.241c0,0.717 0.718,1.028 1.475,1.028 0.052,0.622 0.874,1.386 1.519,1.386 0.542,0 0.971,-0.002 1.42,-0.458 0.23,-0.234 0.513,-0.52 0.547,-0.928l5.81 0c0.052,0.622 0.874,1.386 1.52,1.386 0.47,0 0.581,0.029 0.581,-0.447 0,-0.451 -0.819,-0.025 -1.268,-0.789 -0.436,-0.742 0.131,-1.58 0.777,-1.58 0.458,0 0.891,0.058 1.1,0.598 0.351,0.906 -0.341,1.119 -0.341,1.413 0,0.199 0.181,0.402 0.358,0.402 0.336,0 0.733,-0.664 0.76,-0.983 0.86,0 1.475,-0.218 1.475,-1.162 0,-0.249 -0.446,-0.39 -0.642,-0.15 -0.126,0.153 -0.041,0.04 -0.079,0.233 -0.077,0.387 -0.3,0.319 -0.754,0.319 -0.022,-0.963 -1.702,-2.071 -2.917,-0.994 -0.214,0.19 -0.561,0.626 -0.57,0.994l-0.759 0 0 -6.391 0.715 0 0 3.307c0,0.108 0.16,0.268 0.268,0.268l4.023 0c0,0.815 -0.151,1.52 0.357,1.52 0.216,0 0.358,-0.141 0.358,-0.357 0,-1.831 0.174,-1.359 -0.607,-2.657l-1.328 -2.158c-0.219,-0.259 -0.702,-0.638 -1.149,-0.638l-2.637 0 0 -0.403c0,-0.52 -0.508,-1.028 -1.028,-1.028l-7.956 0c-0.52,0 -1.028,0.508 -1.028,1.028z"/>
    <path class="fil0" d="M9.778 3.769c0.321,0 1.122,-0.314 1.762,-0.428 0.744,-0.132 0.824,-0.105 1.454,-0.155 0.968,-0.078 1.422,-0.001 2.404,0.148 0.426,0.065 0.427,-0.026 0.23,0.564 -0.095,0.283 -0.218,0.542 -0.218,0.899 0,0.378 0.349,1.252 0.67,1.252 0.772,0 0.045,-1.109 0.045,-1.207 0,-0.139 0.14,-0.481 0.192,-0.613 0.076,-0.193 0.164,-0.442 0.21,-0.639 0.403,0.094 0.934,0.331 1.296,0.493l1.154 0.633c0.384,0.247 0.691,0.484 1.037,0.751l0.481 0.413c1.141,1.13 1.963,2.188 2.577,3.725 0.109,0.272 0.421,1.115 0.428,1.405 -1.677,0 -1.094,-0.055 -1.628,-0.875 -0.616,-0.945 -1.445,-0.395 -1.886,-0.706 -0.694,-0.489 -0.643,-1.101 -1.805,-1.101 -0.389,0 -1.105,0.492 -1.386,0.492l-1.698 0c-0.138,0 -0.295,-0.089 -0.371,-0.166 -0.226,-0.227 -0.202,-0.59 0.03,-0.756 0.182,-0.131 0.879,-0.395 1.024,-0.54 0.249,-0.25 0.101,-0.594 -0.281,-0.594 -0.165,0 -0.4,0.162 -0.537,0.223 -0.71,0.316 -1.117,0.496 -1.117,1.431 0,0.381 0.263,0.732 0.491,0.895 0.505,0.362 1.483,0.267 2.236,0.267 0.741,0 1.29,-0.537 1.788,-0.537 0.317,0 0.751,0.55 0.949,0.749 0.344,0.345 0.567,0.489 1.195,0.504 0.741,0.018 0.633,-0.001 0.984,0.714 0.441,0.898 1.219,0.715 2.235,0.715 0,0.458 0.134,0.951 0.134,1.43 -1.146,0 -1.549,0.131 -2.29,-0.614 -0.979,-0.984 -1.042,-0.937 -2.188,-1.701 -0.353,-0.235 -0.814,-0.59 -1.377,-0.59l-3.129 0c-1.22,0 -1.706,1.277 -2.27,2.11 -0.062,0.091 -0.233,0.323 -0.233,0.438 0,0.224 0.195,0.402 0.403,0.402 0.55,0 1.058,-2.19 2.1,-2.19l3.218 0c0.374,0 0.881,0.423 1.198,0.635 0.269,0.18 0.857,0.529 1.093,0.74 0.542,0.482 1.232,1.485 2.179,1.485l1.296 0 -0.234 1.822c-0.209,0.974 -0.635,2.129 -1.142,2.97l-0.604 0.916c-0.466,0.616 0.195,0.977 0.533,0.533 0.091,-0.119 0.14,-0.189 0.223,-0.314 0.536,-0.807 0.791,-1.226 1.173,-2.179 1.369,-3.413 0.898,-7.583 -1.252,-10.49 -0.198,-0.268 -0.354,-0.513 -0.585,-0.755 -0.128,-0.134 -0.175,-0.222 -0.313,-0.358 -0.502,-0.497 -0.797,-0.812 -1.368,-1.269 -0.588,-0.469 -1.391,-0.932 -2.077,-1.275 -1.022,-0.512 -2.811,-1.043 -4.321,-1.043 -1.296,0 -1.833,0.002 -3.12,0.322 -0.292,0.073 -0.736,0.189 -0.999,0.297 -0.494,0.202 -0.239,0.722 0.007,0.722z"/>
    <path class="fil0" d="M2.403 13.111c0,1.062 -0.022,1.431 0.198,2.529 0.262,1.313 0.676,2.336 1.308,3.474 0.182,0.326 0.245,0.522 0.55,0.522 0.023,0 0.522,-0.147 0.188,-0.68 -0.07,-0.113 -0.092,-0.165 -0.158,-0.288 -1.111,-2.084 -1.571,-4.131 -1.269,-6.529 0.137,-1.082 0.571,-2.458 1.075,-3.394 0.541,-1.004 1.755,-2.667 2.667,-3.277 0.08,0.165 0.268,0.992 0.268,1.251 0,1.027 -1.296,1.002 -1.296,2.369 0,0.415 0.169,0.491 -0.301,0.995l-1.173 1.687c-0.211,0.316 -0.358,0.54 -0.358,1.072 0,1.56 0.894,1.365 0.894,0.894 0,-0.511 -0.492,-0.783 0.125,-1.707 0.162,-0.243 0.302,-0.454 0.465,-0.697 0.081,-0.123 0.142,-0.228 0.232,-0.349 0.243,-0.324 0.561,-0.439 0.776,-0.968 0.327,-0.806 -0.302,-0.905 0.558,-1.765 0.89,-0.889 0.955,-1.198 0.669,-2.344 -0.285,-1.137 -0.368,-0.822 0.678,-1.45 0.378,-0.227 0.208,-0.732 -0.151,-0.732 -0.483,0 -2.241,1.461 -2.76,1.978 -1.855,1.849 -3.185,4.774 -3.185,7.409z"/>
    <path class="fil0" d="M10.985 21.29c0,0.168 0.031,0.447 0.268,0.447l2.324 0c0.36,0 0.36,-0.715 0,-0.715l-2.324 0c-0.108,0 -0.268,0.16 -0.268,0.268z"/>
    <path class="fil0" d="M6.694 15.569c0,0.907 -0.119,1.162 0.447,1.162 0.336,0 0.268,-0.529 0.268,-0.715 0.493,0 0.715,0.07 0.715,-0.447 0,-0.378 -0.735,-0.268 -1.162,-0.268 -0.107,0 -0.268,0.16 -0.268,0.268z"/>
    <path class="fil0" d="M8.124 22.81c0,0.479 0.716,0.479 0.716,0 0,-0.48 -0.716,-0.48 -0.716,0z"/>
    <path class="fil0" d="M17.421 22.81c0,0.479 0.715,0.479 0.715,0 0,-0.48 -0.715,-0.48 -0.715,0z"/>
   </g>
   <rect class="fil1" width="26.981" height="26.981"/>
  </g>
 </g>
</svg>
