<svg width="29" height="28" viewBox="0 0 29 28" fill="none" xmlns="http://www.w3.org/2000/svg">
<path d="M16.6819 0.712644C18.5253 -0.530025 21.0327 0.593866 21.3316 2.79678L21.9822 7.59116C22.0874 8.36624 22.4911 9.06959 23.1074 9.55131L26.9193 12.5311C28.6707 13.9002 28.3767 16.6322 26.3739 17.5972L22.0153 19.6975C21.3106 20.0371 20.7665 20.6384 20.4988 21.3733L18.8428 25.9194C18.0819 28.0083 15.3928 28.5728 13.8561 26.9663L10.5117 23.47C9.97099 22.9048 9.23094 22.5731 8.44925 22.5456L3.61392 22.3755C1.39219 22.2973 0.024275 19.9143 1.07727 17.9563L3.36899 13.6952C3.73947 13.0063 3.82626 12.2 3.61086 11.4481L2.27845 6.79682C1.66623 4.65967 3.50994 2.62231 5.69741 3.01874L10.4582 3.88152C11.2278 4.02101 12.0215 3.85438 12.6701 3.41716L16.6819 0.712644Z" fill="#FFC935"/>
</svg>
