<?xml version="1.0" encoding="UTF-8"?>
<!DOCTYPE svg PUBLIC "-//W3C//DTD SVG 1.1//EN" "http://www.w3.org/Graphics/SVG/1.1/DTD/svg11.dtd">
<!-- Creator: it-genn.ru -->
<svg xmlns="http://www.w3.org/2000/svg" xml:space="preserve" width="500px" height="300px" version="1.1" style="shape-rendering:geometricPrecision; text-rendering:geometricPrecision; image-rendering:optimizeQuality; fill-rule:evenodd; clip-rule:evenodd"
viewBox="0 0 22.601 13.561"
 xmlns:xlink="http://www.w3.org/1999/xlink"
 xmlns:xodm="https://it-genn.ru">
 <defs>
  <style type="text/css">
   <![CDATA[
    .fil1 {fill:none}
    .fil0 {fill:white}
   ]]>
  </style>
 </defs>
 <g id="genn-art_x0020_1">
  <metadata id="it-genn-ru-Layer"/>
  <g id="_2478158307024">
   <path class="fil0" d="M14.719 8.647l-0.989 0 1.799 -3.733c1.331,0 1.133,-0.149 1.219,0.76l0.355 2.973 -0.989 0 -0.09 -0.945 -0.855 0 -0.45 0.945zm-0.989 -2.789c-0.249,-0.139 -0.499,-0.183 -0.765,-0.18 -0.266,0.004 -0.721,0.214 -0.109,0.604 0.494,0.314 0.919,0.47 0.919,1.151 0,1.322 -1.717,1.436 -2.407,1.102 -0.12,-0.059 -0.089,-0.076 -0.247,-0.113 0.048,-0.206 0.223,-0.636 0.315,-0.809 0.275,0.145 0.746,0.326 1.104,0.207 0.249,-0.082 0.434,-0.346 -0.055,-0.627 -0.153,-0.088 -0.278,-0.167 -0.418,-0.257 -1.069,-0.682 -0.307,-2.228 1.135,-2.082 0.759,0.077 0.454,0.114 0.798,0.194 -0.025,0.301 -0.208,0.544 -0.27,0.81zm-3.149 2.789l-0.945 0 0.675 -3.733 0.945 0 -0.675 3.733zm-3.239 -2.474l-1.529 -1.259 1.529 0 0.225 2.384 1.17 -2.384 1.034 0 -1.889 3.733 -1.035 0 -0.405 -2.969 0.9 0.495zm-5.308 6.163c0,0.103 0.031,0.135 0.135,0.135l18.263 0c0.104,0 0.135,-0.032 0.135,-0.135l0 -11.246 -18.533 0 0 11.246z"/>
   <rect class="fil1" width="22.601" height="13.561"/>
  </g>
 </g>
</svg>
