<?xml version="1.0" encoding="UTF-8"?>
<!DOCTYPE svg PUBLIC "-//W3C//DTD SVG 1.1//EN" "http://www.w3.org/Graphics/SVG/1.1/DTD/svg11.dtd">
<!-- Creator: CorelDRAW -->
<svg xmlns="http://www.w3.org/2000/svg" xml:space="preserve" width="198px" height="60px" version="1.1" style="shape-rendering:geometricPrecision; text-rendering:geometricPrecision; image-rendering:optimizeQuality; fill-rule:evenodd; clip-rule:evenodd"
viewBox="0 0 77.235 23.294"
 xmlns:xlink="http://www.w3.org/1999/xlink"
 xmlns:xodm="http://www.corel.com/coreldraw/odm/2003">
 <defs>
  <style type="text/css">
   <![CDATA[
    .fil0 {fill:black}
    .fil1 {fill:black;fill-rule:nonzero}
   ]]>
  </style>
 </defs>
 <g id="x0020_1">
  <metadata id="CorelCorpID_0Corel-Layer"/>
  <g id="_2059250187040">
   <path class="fil0" d="M6.597 13.694l-1.892 0 0 -12.666 2.043 -0.003c3.042,0.236 3.415,4.666 3.346,6.995 -0.07,2.324 -0.525,5.674 -3.497,5.674zm-6.251 -12.666l1.151 0 0 12.666 -1.159 -0.002c-0.455,0 -0.452,0.693 0.016,0.693l4.517 0.007c4.872,0.06 8.666,-1.297 8.808,-6.892 0.102,-3.999 -2.953,-7.171 -6.959,-7.171l-6.333 0c-0.488,0 -0.476,0.699 -0.041,0.699zm18.547 3.619l0.082 0 1.563 3.989 -3.455 0 1.81 -3.989zm8.117 9.212l-1.003 0 -5.469 -13.859 -0.288 0 -6.374 13.859 -1.082 -0.002c-0.193,0 -0.35,0.157 -0.35,0.35 0,0.194 0.157,0.351 0.35,0.351 0.199,0 2.377,0 2.377,-0.001 0.184,-0.01 0.331,-0.163 0.331,-0.35 0,-0.193 -0.157,-0.35 -0.351,-0.35 -0.164,0 -0.329,0.001 -0.494,0.002 0.702,-1.503 1.381,-3.032 2.097,-4.524l4.072 0 1.768 4.524 -0.884 0c-0.193,0 -0.35,0.157 -0.35,0.349l0 0c0,0.192 0.157,0.35 0.35,0.35l5.3 0c0.192,0 0.349,-0.158 0.349,-0.35l0 0c0,-0.192 -0.157,-0.349 -0.349,-0.349zm1.755 -13.53c-0.195,0 -0.35,0.157 -0.35,0.349 0,0.193 0.157,0.35 0.35,0.35l1.025 0 0 12.831 -1.025 0c-0.193,0 -0.35,0.157 -0.35,0.349l0 0c0,0.192 0.157,0.35 0.35,0.35l5.3 0c0.192,0 0.349,-0.158 0.349,-0.35l0 0c0,-0.192 -0.157,-0.349 -0.349,-0.349l-1.067 0 0 -6.128 1.64 0.088c0.489,0.05 1.071,0.478 1.245,0.893 0.607,1.453 0.03,3.037 0.45,4.321 0.339,1.039 1.204,1.225 2.07,1.384 1.031,0.188 2.079,0.141 3.149,0.141 0.369,0 0.329,-0.312 0.329,-0.453 0,-0.521 -1.562,0.128 -2.046,-1.038 -0.309,-0.745 -0.256,-1.968 -0.299,-2.785 -0.058,-1.081 -0.704,-2.091 -1.742,-2.453 -0.537,-0.187 -0.994,-0.345 -1.629,-0.345l0 -0.041c0.384,0 1.09,-0.177 1.398,-0.328 0.806,-0.393 1.417,-0.718 1.916,-1.621 0.611,-1.108 0.434,-2.738 -0.569,-3.716 -0.952,-0.93 -2.567,-1.449 -3.856,-1.449 -2.096,0 -4.193,0 -6.289,0zm4.233 0.699l1.564 0.004c1.562,0.005 1.973,1.434 1.973,2.751 0,1.085 -0.209,1.933 -0.895,2.724 -0.605,0.7 -1.527,0.767 -2.308,0.862 -0.113,0.014 -0.334,0.109 -0.334,-0.09l0 -6.251zm15.637 12.831l-1.038 0 0 -12.954 1.038 0c0.192,0 0.35,-0.158 0.35,-0.35l0 0c0,-0.192 -0.158,-0.349 -0.35,-0.349l-5.3 0c-0.192,0 -0.349,0.157 -0.349,0.349l0 0c0,0.192 0.157,0.35 0.349,0.35l1.054 0 0 12.954 -1.054 0c-0.192,0 -0.349,0.157 -0.349,0.349l0 0c0,0.192 0.157,0.35 0.349,0.35l5.3 0c0.192,0 0.35,-0.158 0.35,-0.35l0 0c0,-0.192 -0.158,-0.349 -0.35,-0.349zm4.455 -13.653l-0.003 0 -2.433 0c-0.192,0 -0.35,0.157 -0.35,0.349l0 0c0,0.192 0.158,0.35 0.35,0.35l0.932 0 0 12.954 -0.889 0c-0.193,0 -0.35,0.157 -0.35,0.349l0 0c0,0.192 0.157,0.35 0.35,0.35l2.436 0c0.192,0 0.35,-0.158 0.35,-0.35l0 0c0,-0.192 -0.158,-0.349 -0.35,-0.349l-0.889 0 0 -12.584 7.999 12.891c0.116,0.21 0.364,0.762 0.637,0.762 0.199,0 0.329,-0.13 0.329,-0.329l0 -13.694 0.889 0c0.192,0 0.35,-0.158 0.35,-0.35l0 0c0,-0.192 -0.158,-0.349 -0.35,-0.349l-2.436 0c-0.193,0 -0.35,0.157 -0.35,0.349l0 0c0,0.192 0.157,0.35 0.35,0.35l0.889 0 0 7.402 -4.806 -7.572c-0.147,-0.261 -0.265,-0.529 -0.54,-0.529l-2.115 0zm15.678 4.441l0.082 0 1.563 3.989 -3.454 0 1.809 -3.989zm8.117 9.212l-1.003 0 -5.469 -13.859 -0.288 0 -6.374 13.859 -1.081 -0.002c-0.194,0 -0.351,0.157 -0.351,0.35 0,0.194 0.157,0.351 0.351,0.351 0.198,0 2.376,0 2.376,-0.001 0.184,-0.01 0.331,-0.163 0.331,-0.35 0,-0.193 -0.157,-0.35 -0.351,-0.35 -0.164,0 -0.329,0.001 -0.494,0.002 0.702,-1.503 1.381,-3.032 2.098,-4.524l4.071 0 1.768 4.524 -0.884 0c-0.192,0 -0.35,0.157 -0.35,0.349l0 0c0,0.192 0.158,0.35 0.35,0.35l5.3 0c0.192,0 0.35,-0.158 0.35,-0.35l0 0c0,-0.192 -0.158,-0.349 -0.35,-0.349z"/>
   <g>
    <path class="fil1" d="M37.43 23.216c0,0.014 -0.002,0.025 -0.008,0.034 -0.006,0.01 -0.016,0.019 -0.03,0.025 -0.015,0.006 -0.034,0.011 -0.059,0.014 -0.024,0.004 -0.055,0.005 -0.092,0.005 -0.036,0 -0.065,-0.001 -0.09,-0.005 -0.024,-0.003 -0.043,-0.008 -0.058,-0.014 -0.015,-0.006 -0.025,-0.015 -0.03,-0.025 -0.006,-0.009 -0.009,-0.02 -0.009,-0.034l0 -4.219c0,-0.011 0.003,-0.022 0.009,-0.031 0.005,-0.01 0.015,-0.018 0.03,-0.025 0.015,-0.006 0.034,-0.011 0.058,-0.014 0.025,-0.004 0.054,-0.005 0.09,-0.005 0.037,0 0.068,0.001 0.092,0.005 0.025,0.003 0.044,0.008 0.059,0.014 0.014,0.007 0.024,0.015 0.03,0.025 0.006,0.009 0.008,0.02 0.008,0.031l0 4.219z"/>
    <path class="fil1" d="M54.72 21.803c0,-0.097 -0.015,-0.184 -0.044,-0.258 -0.029,-0.074 -0.073,-0.138 -0.133,-0.19 -0.058,-0.054 -0.133,-0.094 -0.223,-0.122 -0.09,-0.029 -0.224,-0.043 -0.401,-0.043l-0.399 0 0 1.21 0.428 0c0.189,0 0.33,-0.019 0.423,-0.058 0.094,-0.039 0.165,-0.088 0.214,-0.147 0.05,-0.059 0.085,-0.124 0.105,-0.195 0.02,-0.07 0.03,-0.136 0.03,-0.197zm0.433 -0.039c0,0.129 -0.02,0.251 -0.062,0.366 -0.041,0.114 -0.106,0.216 -0.196,0.308 -0.088,0.09 -0.208,0.164 -0.356,0.221 -0.148,0.057 -0.354,0.085 -0.617,0.085l-0.657 0c-0.02,0 -0.039,-0.002 -0.059,-0.008 -0.019,-0.006 -0.036,-0.016 -0.05,-0.029 -0.015,-0.014 -0.028,-0.033 -0.039,-0.054 -0.01,-0.022 -0.015,-0.048 -0.015,-0.079l0 -2.917c0,-0.012 0.003,-0.022 0.01,-0.031 0.008,-0.01 0.02,-0.019 0.037,-0.025 0.017,-0.006 0.039,-0.011 0.066,-0.014 0.026,-0.004 0.058,-0.005 0.096,-0.005 0.04,0 0.074,0.001 0.101,0.005 0.027,0.003 0.048,0.008 0.064,0.014 0.017,0.006 0.027,0.015 0.034,0.025 0.007,0.009 0.01,0.019 0.01,0.031l0 1.19 0.436 0c0.226,0 0.406,0.019 0.542,0.057 0.135,0.038 0.25,0.095 0.347,0.173 0.095,0.077 0.171,0.173 0.226,0.288 0.055,0.115 0.082,0.248 0.082,0.399zm0.907 0.92c0,0.013 -0.003,0.024 -0.01,0.033 -0.007,0.008 -0.017,0.016 -0.034,0.023 -0.016,0.006 -0.038,0.011 -0.066,0.014 -0.027,0.003 -0.06,0.005 -0.099,0.005 -0.041,0 -0.074,-0.002 -0.1,-0.005 -0.026,-0.003 -0.047,-0.008 -0.065,-0.014 -0.016,-0.007 -0.028,-0.015 -0.034,-0.023 -0.007,-0.009 -0.01,-0.02 -0.01,-0.033l0 -3.027c0,-0.012 0.003,-0.022 0.01,-0.031 0.008,-0.01 0.02,-0.019 0.037,-0.025 0.017,-0.006 0.039,-0.011 0.065,-0.014 0.027,-0.004 0.059,-0.005 0.097,-0.005 0.039,0 0.072,0.001 0.099,0.005 0.028,0.003 0.05,0.008 0.066,0.014 0.017,0.006 0.027,0.015 0.034,0.025 0.007,0.009 0.01,0.019 0.01,0.031l0 3.027zm-5.318 -2.445c-0.161,0.01 -0.298,0.038 -0.41,0.086 -0.113,0.046 -0.204,0.107 -0.274,0.181 -0.07,0.075 -0.121,0.161 -0.153,0.26 -0.031,0.098 -0.047,0.202 -0.047,0.312 0,0.127 0.015,0.242 0.045,0.344 0.03,0.102 0.08,0.19 0.149,0.265 0.069,0.074 0.16,0.134 0.273,0.179 0.114,0.044 0.252,0.071 0.417,0.081l0 -1.708zm1.287 0.862c0,-0.126 -0.016,-0.239 -0.046,-0.34 -0.031,-0.101 -0.08,-0.189 -0.148,-0.263 -0.068,-0.074 -0.159,-0.133 -0.271,-0.178 -0.112,-0.044 -0.25,-0.071 -0.414,-0.081l0 1.708c0.16,-0.008 0.296,-0.035 0.407,-0.084 0.111,-0.048 0.202,-0.109 0.272,-0.185 0.071,-0.075 0.121,-0.162 0.153,-0.261 0.031,-0.099 0.047,-0.204 0.047,-0.316zm0.429 -0.024c0,0.175 -0.028,0.334 -0.082,0.477 -0.054,0.143 -0.136,0.266 -0.246,0.371 -0.108,0.104 -0.245,0.187 -0.409,0.251 -0.163,0.062 -0.353,0.098 -0.568,0.11l0 0.4c0,0.012 -0.004,0.022 -0.011,0.032 -0.008,0.009 -0.019,0.017 -0.034,0.023 -0.016,0.005 -0.038,0.01 -0.065,0.013 -0.027,0.003 -0.06,0.005 -0.097,0.005 -0.039,0 -0.071,-0.001 -0.097,-0.003 -0.026,-0.003 -0.047,-0.007 -0.065,-0.013 -0.016,-0.006 -0.028,-0.013 -0.035,-0.023 -0.006,-0.01 -0.01,-0.021 -0.01,-0.034l0 -0.4c-0.224,-0.007 -0.418,-0.037 -0.583,-0.091 -0.165,-0.054 -0.301,-0.132 -0.408,-0.23 -0.107,-0.099 -0.186,-0.22 -0.24,-0.365 -0.052,-0.144 -0.078,-0.309 -0.078,-0.496 0,-0.169 0.027,-0.323 0.081,-0.464 0.055,-0.141 0.136,-0.264 0.245,-0.368 0.108,-0.104 0.245,-0.187 0.407,-0.251 0.164,-0.064 0.356,-0.102 0.576,-0.116l0 -0.38c0,-0.01 0.004,-0.018 0.011,-0.026 0.008,-0.009 0.02,-0.016 0.037,-0.023 0.017,-0.006 0.038,-0.011 0.064,-0.014 0.026,-0.003 0.058,-0.005 0.095,-0.005 0.037,0 0.07,0.002 0.097,0.005 0.027,0.003 0.049,0.008 0.065,0.014 0.015,0.007 0.026,0.014 0.034,0.023 0.007,0.008 0.011,0.016 0.011,0.026l0 0.38c0.223,0.009 0.417,0.039 0.581,0.094 0.163,0.054 0.299,0.13 0.406,0.228 0.106,0.098 0.186,0.219 0.239,0.361 0.052,0.143 0.079,0.306 0.079,0.489zm-4.495 -1.062l-0.003 0 -0.542 1.569 1.094 0 -0.549 -1.569zm1.354 2.581c0.013,0.036 0.02,0.064 0.021,0.087 0.001,0.021 -0.006,0.038 -0.018,0.049 -0.013,0.011 -0.035,0.019 -0.065,0.022 -0.03,0.003 -0.07,0.005 -0.12,0.005 -0.05,0 -0.091,-0.001 -0.121,-0.003 -0.029,-0.003 -0.052,-0.007 -0.068,-0.013 -0.015,-0.006 -0.026,-0.013 -0.034,-0.023 -0.007,-0.01 -0.014,-0.022 -0.02,-0.036l-0.27 -0.767 -1.308 0 -0.258 0.756c-0.005,0.015 -0.011,0.028 -0.02,0.039 -0.008,0.01 -0.019,0.019 -0.035,0.026 -0.015,0.008 -0.038,0.013 -0.066,0.016 -0.028,0.003 -0.064,0.005 -0.11,0.005 -0.048,0 -0.086,-0.002 -0.116,-0.006 -0.029,-0.004 -0.051,-0.011 -0.063,-0.023 -0.012,-0.012 -0.018,-0.028 -0.017,-0.05 0.001,-0.022 0.007,-0.05 0.021,-0.086l1.055 -2.924c0.006,-0.019 0.015,-0.034 0.025,-0.044 0.011,-0.012 0.026,-0.021 0.047,-0.027 0.02,-0.007 0.046,-0.012 0.078,-0.014 0.031,-0.003 0.071,-0.003 0.12,-0.003 0.052,0 0.095,0 0.129,0.003 0.034,0.002 0.061,0.007 0.082,0.014 0.022,0.006 0.037,0.016 0.049,0.027 0.012,0.013 0.021,0.028 0.027,0.045l1.055 2.925zm-2.969 0.082c0,0.015 -0.003,0.028 -0.01,0.037 -0.005,0.01 -0.017,0.018 -0.032,0.025 -0.016,0.006 -0.036,0.011 -0.064,0.014 -0.027,0.003 -0.061,0.005 -0.102,0.005 -0.046,0 -0.085,-0.002 -0.113,-0.006 -0.028,-0.004 -0.05,-0.011 -0.067,-0.018 -0.018,-0.008 -0.03,-0.018 -0.039,-0.031 -0.009,-0.012 -0.016,-0.027 -0.021,-0.045l-0.289 -0.768c-0.039,-0.104 -0.082,-0.192 -0.129,-0.265 -0.047,-0.073 -0.101,-0.134 -0.161,-0.182 -0.062,-0.047 -0.13,-0.083 -0.209,-0.105 -0.078,-0.023 -0.165,-0.034 -0.262,-0.034l-0.175 0 0 1.376c0,0.013 -0.003,0.025 -0.01,0.034 -0.007,0.01 -0.017,0.017 -0.034,0.023 -0.016,0.006 -0.037,0.011 -0.064,0.015 -0.027,0.004 -0.06,0.006 -0.101,0.006 -0.039,0 -0.072,-0.002 -0.1,-0.006 -0.027,-0.004 -0.05,-0.009 -0.065,-0.015 -0.017,-0.006 -0.028,-0.013 -0.034,-0.023 -0.007,-0.009 -0.01,-0.021 -0.01,-0.034l0 -3.024c0,-0.012 0.003,-0.022 0.01,-0.031 0.006,-0.01 0.017,-0.018 0.034,-0.024 0.015,-0.005 0.038,-0.01 0.065,-0.015 0.028,-0.004 0.061,-0.005 0.1,-0.005 0.041,0 0.074,0.001 0.101,0.005 0.027,0.005 0.048,0.01 0.064,0.015 0.017,0.006 0.027,0.014 0.034,0.024 0.007,0.01 0.01,0.019 0.01,0.031l0 1.289 0.175 0c0.097,0 0.183,-0.011 0.255,-0.035 0.073,-0.024 0.138,-0.059 0.193,-0.106 0.057,-0.047 0.106,-0.107 0.149,-0.179 0.043,-0.072 0.081,-0.158 0.115,-0.258l0.239 -0.687c0.005,-0.016 0.011,-0.031 0.019,-0.043 0.008,-0.013 0.02,-0.024 0.036,-0.032 0.017,-0.008 0.038,-0.014 0.067,-0.019 0.028,-0.004 0.065,-0.005 0.11,-0.005 0.042,0 0.076,0.001 0.101,0.005 0.027,0.003 0.047,0.008 0.062,0.014 0.015,0.006 0.025,0.015 0.03,0.025 0.005,0.01 0.008,0.02 0.008,0.034 0,0.017 -0.003,0.037 -0.008,0.059 -0.006,0.022 -0.014,0.048 -0.024,0.077l-0.249 0.655c-0.036,0.099 -0.074,0.184 -0.112,0.256 -0.037,0.072 -0.079,0.132 -0.124,0.184 -0.046,0.051 -0.095,0.093 -0.149,0.127 -0.053,0.033 -0.113,0.059 -0.179,0.078l0 0.005c0.075,0.028 0.143,0.059 0.202,0.096 0.059,0.036 0.114,0.082 0.165,0.135 0.05,0.053 0.096,0.118 0.138,0.194 0.042,0.075 0.083,0.165 0.124,0.27l0.296 0.749c0.017,0.042 0.026,0.072 0.029,0.089 0.004,0.017 0.005,0.032 0.005,0.044zm-2.929 -0.104c0,0.056 -0.013,0.099 -0.039,0.128 -0.026,0.028 -0.061,0.042 -0.107,0.042l-3.186 0c-0.046,0 -0.083,-0.014 -0.112,-0.042 -0.028,-0.029 -0.042,-0.072 -0.042,-0.128l0 -2.919c0,-0.012 0.003,-0.022 0.011,-0.032 0.007,-0.01 0.019,-0.017 0.034,-0.023 0.016,-0.006 0.036,-0.01 0.063,-0.013 0.027,-0.004 0.06,-0.005 0.099,-0.005 0.04,0 0.074,0.001 0.099,0.005 0.026,0.003 0.048,0.007 0.063,0.013 0.017,0.006 0.028,0.013 0.034,0.023 0.007,0.01 0.01,0.02 0.01,0.032l0 2.735 1.126 0 0 -2.735c0,-0.012 0.003,-0.022 0.011,-0.032 0.007,-0.01 0.019,-0.017 0.034,-0.023 0.016,-0.006 0.036,-0.01 0.063,-0.013 0.027,-0.004 0.06,-0.005 0.099,-0.005 0.039,0 0.071,0.001 0.097,0.005 0.025,0.003 0.047,0.007 0.063,0.013 0.016,0.006 0.028,0.013 0.035,0.023 0.008,0.01 0.011,0.02 0.011,0.032l0 2.735 1.121 0 0 -2.735c0,-0.012 0.003,-0.022 0.01,-0.032 0.006,-0.01 0.017,-0.017 0.034,-0.023 0.016,-0.006 0.037,-0.01 0.064,-0.013 0.027,-0.004 0.06,-0.005 0.099,-0.005 0.039,0 0.071,0.001 0.098,0.005 0.027,0.003 0.048,0.007 0.063,0.013 0.015,0.006 0.027,0.013 0.034,0.023 0.008,0.01 0.011,0.02 0.011,0.032l0 2.919z"/>
    <path class="fil1" d="M34.553 22.611c0,0.014 -0.003,0.024 -0.009,0.033 -0.007,0.009 -0.018,0.017 -0.035,0.024 -0.016,0.006 -0.038,0.01 -0.064,0.014 -0.028,0.003 -0.061,0.005 -0.101,0.005 -0.04,0 -0.074,-0.002 -0.101,-0.005 -0.028,-0.004 -0.05,-0.008 -0.065,-0.014 -0.016,-0.007 -0.026,-0.015 -0.033,-0.024 -0.007,-0.009 -0.01,-0.019 -0.01,-0.033l0 -2.065c0,-0.05 0.001,-0.103 0.003,-0.157 0.001,-0.055 0.004,-0.104 0.007,-0.148l-0.005 0c-0.013,0.024 -0.027,0.048 -0.042,0.074 -0.016,0.025 -0.033,0.053 -0.05,0.081 -0.018,0.029 -0.036,0.057 -0.054,0.085 -0.017,0.029 -0.036,0.057 -0.053,0.084l-1.361 2.049c-0.01,0.013 -0.02,0.024 -0.029,0.034 -0.01,0.01 -0.023,0.017 -0.039,0.023 -0.015,0.006 -0.033,0.01 -0.054,0.013 -0.021,0.002 -0.048,0.003 -0.08,0.003 -0.037,0 -0.068,-0.002 -0.091,-0.005 -0.024,-0.004 -0.043,-0.008 -0.057,-0.016 -0.013,-0.007 -0.023,-0.016 -0.029,-0.026 -0.006,-0.009 -0.008,-0.021 -0.008,-0.036l0 -3.019c0,-0.012 0.003,-0.022 0.011,-0.032 0.007,-0.01 0.02,-0.018 0.036,-0.025 0.018,-0.005 0.039,-0.01 0.066,-0.014 0.026,-0.003 0.059,-0.005 0.096,-0.005 0.041,0 0.074,0.002 0.101,0.005 0.027,0.004 0.048,0.009 0.064,0.014 0.017,0.007 0.028,0.015 0.034,0.025 0.007,0.01 0.01,0.02 0.01,0.032l0 2.078c0,0.043 0,0.09 -0.001,0.141 -0.001,0.05 -0.004,0.099 -0.009,0.146l0.005 0c0.026,-0.041 0.057,-0.09 0.092,-0.147 0.034,-0.058 0.071,-0.116 0.11,-0.172l1.359 -2.051c0.008,-0.012 0.017,-0.022 0.026,-0.031 0.01,-0.008 0.023,-0.016 0.038,-0.021 0.016,-0.006 0.034,-0.01 0.055,-0.014 0.022,-0.003 0.048,-0.005 0.082,-0.005 0.037,0 0.068,0.002 0.091,0.005 0.024,0.004 0.043,0.009 0.056,0.016 0.014,0.008 0.024,0.015 0.03,0.024 0.006,0.009 0.008,0.021 0.008,0.036l0 3.021zm-3.197 -0.002c0,0.013 -0.003,0.025 -0.01,0.034 -0.006,0.01 -0.017,0.017 -0.034,0.023 -0.016,0.006 -0.038,0.011 -0.065,0.015 -0.027,0.004 -0.059,0.006 -0.098,0.006 -0.044,0 -0.078,-0.002 -0.103,-0.006 -0.027,-0.004 -0.048,-0.009 -0.064,-0.015 -0.017,-0.006 -0.028,-0.013 -0.034,-0.023 -0.007,-0.009 -0.01,-0.021 -0.01,-0.034l0 -1.396 -1.43 0 0 1.396c0,0.013 -0.003,0.025 -0.009,0.034 -0.007,0.01 -0.018,0.017 -0.035,0.023 -0.015,0.006 -0.037,0.011 -0.064,0.015 -0.027,0.004 -0.06,0.006 -0.101,0.006 -0.039,0 -0.072,-0.002 -0.099,-0.006 -0.028,-0.004 -0.05,-0.009 -0.066,-0.015 -0.017,-0.006 -0.027,-0.013 -0.034,-0.023 -0.007,-0.009 -0.01,-0.021 -0.01,-0.034l0 -3.022c0,-0.013 0.003,-0.024 0.01,-0.034 0.007,-0.01 0.017,-0.017 0.034,-0.023 0.016,-0.006 0.038,-0.011 0.066,-0.015 0.027,-0.004 0.06,-0.006 0.099,-0.006 0.041,0 0.074,0.002 0.101,0.006 0.027,0.004 0.049,0.009 0.064,0.015 0.017,0.006 0.028,0.013 0.035,0.023 0.006,0.01 0.009,0.021 0.009,0.034l0 1.262 1.43 0 0 -1.262c0,-0.013 0.003,-0.024 0.01,-0.034 0.006,-0.01 0.017,-0.017 0.034,-0.023 0.016,-0.006 0.037,-0.011 0.064,-0.015 0.025,-0.004 0.059,-0.006 0.103,-0.006 0.039,0 0.071,0.002 0.098,0.006 0.027,0.004 0.049,0.009 0.065,0.015 0.017,0.006 0.028,0.013 0.034,0.023 0.007,0.01 0.01,0.021 0.01,0.034l0 3.022zm-2.847 -0.087c0.021,0.035 0.033,0.064 0.037,0.084 0.005,0.022 0,0.038 -0.015,0.05 -0.014,0.013 -0.039,0.021 -0.072,0.025 -0.033,0.004 -0.077,0.006 -0.132,0.006 -0.052,0 -0.093,-0.001 -0.122,-0.003 -0.029,-0.003 -0.052,-0.008 -0.069,-0.015 -0.017,-0.005 -0.03,-0.014 -0.039,-0.022 -0.009,-0.009 -0.017,-0.021 -0.023,-0.036l-0.7 -1.252 -0.708 1.252c-0.008,0.015 -0.017,0.027 -0.027,0.037 -0.01,0.01 -0.023,0.017 -0.04,0.023 -0.017,0.006 -0.041,0.01 -0.07,0.013 -0.029,0.002 -0.068,0.003 -0.116,0.003 -0.054,0 -0.096,-0.002 -0.127,-0.006 -0.031,-0.004 -0.052,-0.012 -0.064,-0.025 -0.012,-0.012 -0.016,-0.028 -0.012,-0.05 0.004,-0.02 0.016,-0.049 0.037,-0.084l0.859 -1.448 -0.82 -1.399c-0.019,-0.036 -0.031,-0.064 -0.037,-0.087 -0.006,-0.021 -0.003,-0.039 0.011,-0.05 0.013,-0.013 0.035,-0.02 0.068,-0.024 0.032,-0.003 0.077,-0.005 0.133,-0.005 0.049,0 0.089,0.001 0.12,0.004 0.031,0.002 0.055,0.006 0.073,0.012 0.017,0.006 0.031,0.014 0.039,0.024 0.007,0.011 0.016,0.023 0.027,0.036l0.675 1.177 0.672 -1.177c0.008,-0.013 0.015,-0.025 0.024,-0.036 0.008,-0.01 0.02,-0.018 0.035,-0.024 0.015,-0.006 0.037,-0.01 0.064,-0.012 0.028,-0.003 0.065,-0.004 0.112,-0.004 0.051,0 0.092,0.002 0.123,0.006 0.032,0.004 0.054,0.012 0.068,0.023 0.014,0.012 0.019,0.029 0.016,0.05 -0.003,0.023 -0.015,0.051 -0.034,0.087l-0.817 1.389 0.851 1.458zm-3.364 -0.727c-0.076,0.188 -0.147,0.341 -0.212,0.461 -0.064,0.119 -0.131,0.212 -0.199,0.278 -0.068,0.067 -0.142,0.112 -0.222,0.136 -0.079,0.024 -0.171,0.037 -0.274,0.037 -0.036,0 -0.072,-0.003 -0.108,-0.008 -0.037,-0.005 -0.072,-0.011 -0.104,-0.021 -0.032,-0.008 -0.061,-0.019 -0.086,-0.029 -0.025,-0.012 -0.044,-0.022 -0.054,-0.031 -0.012,-0.008 -0.02,-0.018 -0.026,-0.029 -0.006,-0.01 -0.011,-0.024 -0.015,-0.04 -0.004,-0.017 -0.007,-0.036 -0.008,-0.06 -0.002,-0.025 -0.003,-0.054 -0.003,-0.088 0,-0.062 0.006,-0.106 0.018,-0.133 0.013,-0.029 0.031,-0.042 0.055,-0.042 0.014,0 0.029,0.005 0.045,0.014 0.018,0.01 0.038,0.022 0.062,0.034 0.024,0.014 0.054,0.025 0.089,0.034 0.035,0.01 0.076,0.015 0.123,0.015 0.041,0 0.078,-0.004 0.113,-0.013 0.035,-0.009 0.068,-0.028 0.1,-0.057 0.031,-0.029 0.064,-0.071 0.098,-0.123 0.034,-0.053 0.072,-0.125 0.111,-0.216l-1.12 -2.247c-0.015,-0.032 -0.023,-0.059 -0.026,-0.08 -0.002,-0.021 0.004,-0.037 0.018,-0.049 0.013,-0.011 0.035,-0.019 0.066,-0.023 0.032,-0.004 0.071,-0.006 0.122,-0.006 0.047,0 0.085,0.002 0.113,0.005 0.029,0.004 0.051,0.009 0.07,0.016 0.017,0.008 0.032,0.017 0.042,0.029 0.011,0.013 0.02,0.028 0.028,0.047l0.561 1.148c0.064,0.128 0.123,0.252 0.18,0.371 0.055,0.119 0.11,0.238 0.163,0.357l0.008 0c0.044,-0.124 0.088,-0.247 0.135,-0.369 0.046,-0.123 0.098,-0.256 0.157,-0.402l0.44 -1.124c0.005,-0.015 0.011,-0.026 0.02,-0.036 0.009,-0.01 0.022,-0.018 0.039,-0.024 0.017,-0.007 0.04,-0.012 0.07,-0.014 0.03,-0.003 0.068,-0.004 0.115,-0.004 0.049,0 0.087,0.003 0.116,0.008 0.029,0.005 0.051,0.011 0.063,0.021 0.013,0.01 0.02,0.023 0.02,0.039 0,0.017 -0.005,0.036 -0.015,0.059l-0.888 2.159zm-1.878 0.811c0,0.015 -0.004,0.028 -0.011,0.037 -0.005,0.01 -0.017,0.018 -0.032,0.025 -0.016,0.006 -0.036,0.01 -0.064,0.014 -0.027,0.003 -0.061,0.005 -0.102,0.005 -0.046,0 -0.085,-0.002 -0.113,-0.006 -0.028,-0.004 -0.05,-0.011 -0.067,-0.018 -0.017,-0.009 -0.03,-0.019 -0.039,-0.031 -0.009,-0.012 -0.016,-0.027 -0.021,-0.045l-0.289 -0.768c-0.039,-0.104 -0.082,-0.192 -0.129,-0.265 -0.046,-0.073 -0.1,-0.134 -0.161,-0.182 -0.062,-0.047 -0.13,-0.083 -0.208,-0.105 -0.078,-0.023 -0.166,-0.034 -0.263,-0.034l-0.175 0 0 1.376c0,0.013 -0.003,0.025 -0.01,0.034 -0.007,0.01 -0.017,0.017 -0.034,0.023 -0.016,0.006 -0.037,0.011 -0.064,0.015 -0.027,0.004 -0.06,0.006 -0.101,0.006 -0.039,0 -0.072,-0.002 -0.1,-0.006 -0.027,-0.004 -0.049,-0.009 -0.065,-0.015 -0.017,-0.006 -0.028,-0.013 -0.034,-0.023 -0.007,-0.009 -0.01,-0.021 -0.01,-0.034l0 -3.024c0,-0.012 0.003,-0.022 0.01,-0.032 0.006,-0.01 0.017,-0.017 0.034,-0.023 0.016,-0.006 0.038,-0.011 0.065,-0.015 0.028,-0.004 0.061,-0.006 0.1,-0.006 0.041,0 0.074,0.002 0.101,0.006 0.027,0.004 0.048,0.009 0.064,0.015 0.017,0.006 0.027,0.013 0.034,0.023 0.007,0.01 0.01,0.02 0.01,0.032l0 1.289 0.175 0c0.097,0 0.183,-0.012 0.255,-0.036 0.073,-0.023 0.138,-0.059 0.193,-0.105 0.057,-0.047 0.106,-0.107 0.149,-0.179 0.043,-0.073 0.081,-0.158 0.116,-0.258l0.238 -0.687c0.005,-0.016 0.011,-0.031 0.019,-0.043 0.008,-0.013 0.021,-0.024 0.036,-0.033 0.017,-0.007 0.039,-0.014 0.067,-0.018 0.028,-0.004 0.065,-0.006 0.11,-0.006 0.042,0 0.076,0.002 0.101,0.005 0.027,0.004 0.047,0.009 0.063,0.014 0.014,0.007 0.025,0.015 0.029,0.025 0.006,0.01 0.008,0.021 0.008,0.034 0,0.018 -0.002,0.038 -0.008,0.06 -0.006,0.022 -0.014,0.048 -0.024,0.077l-0.249 0.655c-0.036,0.099 -0.074,0.184 -0.112,0.256 -0.037,0.071 -0.079,0.132 -0.124,0.183 -0.046,0.052 -0.095,0.093 -0.149,0.127 -0.053,0.034 -0.113,0.059 -0.179,0.079l0 0.005c0.076,0.028 0.144,0.059 0.203,0.096 0.058,0.036 0.113,0.082 0.164,0.135 0.05,0.053 0.096,0.118 0.139,0.193 0.041,0.076 0.083,0.166 0.123,0.271l0.296 0.749c0.017,0.042 0.026,0.072 0.03,0.089 0.003,0.017 0.005,0.032 0.005,0.044z"/>
   </g>
  </g>
 </g>
</svg>
