<?xml version="1.0" encoding="utf-8"?>
<!-- Generator: Adobe Illustrator 26.5.0, SVG Export Plug-In . SVG Version: 6.00 Build 0)  -->
<svg version="1.1" id="Слой_1" xmlns="http://www.w3.org/2000/svg" xmlns:xlink="http://www.w3.org/1999/xlink" x="0px" y="0px"
	 viewBox="0 0 500 500" style="enable-background:new 0 0 500 500;" xml:space="preserve">
<style type="text/css">
	.st0{fill:none;stroke:#FFFFFF;stroke-width:10;stroke-miterlimit:10;}
	.st1{fill:none;stroke:#FFFFFF;stroke-width:10;stroke-linecap:round;stroke-miterlimit:10;}
	.st2{fill:none;stroke:#FFFFFF;stroke-width:15;stroke-linecap:round;stroke-miterlimit:10;}
</style>
<g>
	<path class="st0" d="M454.01,472.99h-414c-7.83,0-14.17-6.35-14.17-14.17v-5.87h442.35v5.87
		C468.18,466.64,461.84,472.99,454.01,472.99z"/>
	<path class="st0" d="M454.01,472.99h-414c-7.83,0-14.17-6.35-14.17-14.17V47.8c0-7.83,6.35-14.17,14.17-14.17h414
		c7.83,0,14.17,6.35,14.17,14.17v411.01C468.18,466.64,461.84,472.99,454.01,472.99z"/>
	<rect x="173.28" y="33.63" class="st0" width="147.45" height="419.31"/>
	<line class="st1" x1="465.76" y1="221.02" x2="324.78" y2="221.02"/>
	<line class="st1" x1="468.18" y1="319.97" x2="327.2" y2="319.97"/>
	<line class="st1" x1="463.94" y1="408.51" x2="322.96" y2="408.51"/>
	<line class="st1" x1="317.73" y1="408.51" x2="173.28" y2="408.51"/>
	<line class="st1" x1="463.94" y1="275.23" x2="322.96" y2="275.23"/>
	<line class="st1" x1="466.3" y1="364.15" x2="325.32" y2="364.15"/>
	<line class="st1" x1="468.18" y1="112.52" x2="25.83" y2="112.52"/>
	<line class="st1" x1="465.73" y1="166.81" x2="324.74" y2="166.81"/>
	<line class="st1" x1="320.73" y1="37.04" x2="320.73" y2="447.48"/>
	<line class="st1" x1="320.73" y1="133.26" x2="179.75" y2="133.26"/>
	<path class="st0" d="M293.27,181.16v157.03H261V181.16c0-7.83,6.35-14.17,14.17-14.17h3.93
		C286.93,166.99,293.27,173.33,293.27,181.16z"/>
	<line class="st1" x1="277.13" y1="161.65" x2="277.13" y2="138.6"/>
	<line class="st1" x1="166.82" y1="135.25" x2="25.83" y2="135.25"/>
	<path class="st0" d="M82.71,183.15v75.08H50.43v-75.08c0-7.83,6.35-14.17,14.17-14.17h3.93C76.36,168.97,82.71,175.32,82.71,183.15
		z"/>
	<line class="st1" x1="66.57" y1="161.65" x2="66.57" y2="138.6"/>
	<path class="st0" d="M87,325.95v2.22H41.76v-2.22c0-7.83,6.35-14.17,14.17-14.17h16.89C80.66,311.77,87,318.12,87,325.95z"/>
	<line class="st1" x1="64.38" y1="306.37" x2="64.38" y2="290.11"/>
	<path class="st0" d="M152.76,325.95v2.22h-45.24v-2.22c0-7.83,6.35-14.17,14.17-14.17h16.89
		C146.42,311.77,152.76,318.12,152.76,325.95z"/>
	<line class="st1" x1="130.14" y1="306.37" x2="130.14" y2="290.11"/>
	<path class="st0" d="M236.79,174.44v2.22h-45.24v-2.22c0-7.83,6.35-14.17,14.17-14.17h16.89
		C230.45,160.27,236.79,166.61,236.79,174.44z"/>
	<line class="st1" x1="214.17" y1="154.86" x2="214.17" y2="138.6"/>
	<line class="st1" x1="166.82" y1="286.43" x2="25.83" y2="286.43"/>
	<line class="st2" x1="411.45" y1="412.04" x2="379.02" y2="412.04"/>
	<line class="st2" x1="263.23" y1="412.04" x2="230.79" y2="412.04"/>
	<line class="st2" x1="411.45" y1="278.67" x2="379.02" y2="278.67"/>
	<line class="st2" x1="412.6" y1="367.3" x2="380.16" y2="367.3"/>
	<line class="st2" x1="412.6" y1="322.67" x2="380.16" y2="322.67"/>
</g>
</svg>
