<?xml version="1.0" encoding="utf-8"?>
<!-- Generator: Adobe Illustrator 26.5.0, SVG Export Plug-In . SVG Version: 6.00 Build 0)  -->
<svg version="1.1" id="Слой_1" xmlns="http://www.w3.org/2000/svg" xmlns:xlink="http://www.w3.org/1999/xlink" x="0px" y="0px"
	 viewBox="0 0 500 500" style="enable-background:new 0 0 500 500;" xml:space="preserve">
<style type="text/css">
	.st0{fill:none;stroke:#020203;stroke-width:10;stroke-miterlimit:10;}
	.st1{fill:none;stroke:#020203;stroke-width:10;stroke-linecap:round;stroke-miterlimit:10;}
</style>
<g>
	<path class="st0" d="M450.15,472.99h-414c-7.83,0-14.17-6.35-14.17-14.17v-5.87h442.35v5.87
		C464.32,466.64,457.98,472.99,450.15,472.99z"/>
	<path class="st0" d="M450.15,472.99H148.36V304.14h301.79c7.83,0,14.17,6.35,14.17,14.17v140.5
		C464.32,466.64,457.98,472.99,450.15,472.99z"/>
	<rect x="253.68" y="304.14" class="st0" width="105.32" height="168.84"/>
	<rect x="253.68" y="33.63" class="st0" width="105.32" height="168.84"/>
	<path class="st0" d="M450.15,202.47H21.97V47.8c0-7.83,6.35-14.17,14.17-14.17h414c7.83,0,14.17,6.35,14.17,14.17v140.5
		C464.32,196.13,457.98,202.47,450.15,202.47z"/>
	<path class="st0" d="M148.36,472.99H36.15c-7.83,0-14.17-6.35-14.17-14.17V202.47h126.39V472.99z"/>
	<rect x="21.97" y="278.5" class="st0" width="126.39" height="100.95"/>
	<path class="st0" d="M112.3,361.26H59.81c-7.83,0-14.17-6.35-14.17-14.17v-22.54c0-7.83,6.35-14.17,14.17-14.17h52.48
		c7.83,0,14.17,6.35,14.17,14.17v22.54C126.47,354.91,120.12,361.26,112.3,361.26z"/>
	<path class="st0" d="M111.6,258.84H58.73c-7.83,0-14.17-6.35-14.17-14.17v-8.35c0-7.83,6.35-14.17,14.17-14.17h52.88
		c7.83,0,14.17,6.35,14.17,14.17v8.35C125.78,252.49,119.43,258.84,111.6,258.84z"/>
	<line class="st1" x1="148.36" y1="35.7" x2="148.36" y2="202.47"/>
	<line class="st0" x1="314.72" y1="266.98" x2="314.72" y2="302.69"/>
	<path class="st1" d="M314.72,266.98c0-7.81-5.59-14.24-12.38-14.24c-6.79,0-12.38,6.43-12.38,14.24"/>
</g>
</svg>
