<?xml version="1.0" encoding="utf-8"?>
<!-- Generator: Adobe Illustrator 26.5.0, SVG Export Plug-In . SVG Version: 6.00 Build 0)  -->
<svg version="1.1" id="Слой_1" xmlns="http://www.w3.org/2000/svg" xmlns:xlink="http://www.w3.org/1999/xlink" x="0px" y="0px"
	 viewBox="0 0 500 500" style="enable-background:new 0 0 500 500;" xml:space="preserve">
<style type="text/css">
	.st0{fill:none;stroke:#FFFFFF;stroke-width:10;stroke-miterlimit:10;}
	.st1{fill:none;stroke:#FFFFFF;stroke-width:10;stroke-linecap:round;stroke-miterlimit:10;}
</style>
<g>
	<path class="st0" d="M457,472.99H43c-7.83,0-14.17-6.35-14.17-14.17v-5.54h442.35v5.54C471.17,466.64,464.83,472.99,457,472.99z"/>
	<rect x="28.83" y="117.16" class="st0" width="221.68" height="336.11"/>
	<path class="st0" d="M457,117.16H28.83V47.8c0-7.83,6.35-14.17,14.17-14.17h414c7.83,0,14.17,6.35,14.17,14.17v55.19
		C471.17,110.82,464.83,117.16,457,117.16z"/>
	<path class="st0" d="M471.17,453.38H250.51v-83.53H457c7.83,0,14.17,6.35,14.17,14.17V453.38z"/>
	<line class="st1" x1="140.4" y1="33.63" x2="140.4" y2="446.59"/>
	<line class="st1" x1="250.51" y1="33.63" x2="250.51" y2="117.16"/>
	<line class="st1" x1="162.95" y1="287.37" x2="162.95" y2="323.61"/>
	<line class="st1" x1="374.2" y1="388.01" x2="347.48" y2="388.01"/>
	<line class="st1" x1="116.38" y1="287.37" x2="116.38" y2="324.35"/>
	<line class="st1" x1="320.49" y1="117.16" x2="179.51" y2="117.16"/>
	<line class="st1" x1="360.84" y1="183.35" x2="360.84" y2="168.09"/>
	<path class="st0" d="M426.7,210.18v115.97h-32.28V210.18c0-7.83,6.35-14.17,14.17-14.17h3.93
		C420.36,196.01,426.7,202.35,426.7,210.18z"/>
	<line class="st1" x1="410.56" y1="190.76" x2="410.56" y2="168.09"/>
	<path class="st1" d="M346.19,183.97c0,4.55,3.31,8.29,7.33,8.29s7.33-3.74,7.33-8.29"/>
	<line class="st1" x1="311.12" y1="183.35" x2="311.12" y2="168.09"/>
	<path class="st1" d="M296.46,183.97c0,4.55,3.31,8.29,7.33,8.29s7.33-3.74,7.33-8.29"/>
</g>
</svg>
