<?xml version="1.0" encoding="utf-8"?>
<!-- Generator: Adobe Illustrator 26.5.0, SVG Export Plug-In . SVG Version: 6.00 Build 0)  -->
<svg version="1.1" id="Слой_1" xmlns="http://www.w3.org/2000/svg" xmlns:xlink="http://www.w3.org/1999/xlink" x="0px" y="0px"
	 viewBox="0 0 500 500" style="enable-background:new 0 0 500 500;" xml:space="preserve">
<style type="text/css">
	.st0{fill:none;stroke:#FFFFFF;stroke-width:10;stroke-miterlimit:10;}
	.st1{fill:none;stroke:#FFFFFF;stroke-width:10;stroke-linecap:round;stroke-miterlimit:10;}
</style>
<g>
	<path class="st0" d="M470.96,453.27v5.78c0,7.7-6.35,13.94-14.17,13.94h-414c-7.83,0-14.17-6.24-14.17-13.94v-5.78"/>
	<line class="st0" x1="28.85" y1="453.56" x2="28.85" y2="117.45"/>
	<path class="st0" d="M250.29,112.57c0,86.06,0,176.09,0,262.15"/>
	<path class="st0" d="M29.04,121.32c0-44.23-0.42-36.13,0-73.75c0.09-7.7,6.35-13.94,14.17-13.94h414c7.83,0,14.17,6.24,14.17,13.94
		v55.66c0,7.7-6.35,13.94-14.17,13.94c-68.94,0-137.88,0-206.83,0"/>
	<path class="st0" d="M250.29,369.85c68.83,0,137.66,0,206.5,0c7.83,0,14.17,6.24,14.17,13.94v69.59"/>
	<line class="st1" x1="360.63" y1="183.35" x2="360.63" y2="168.09"/>
	<path class="st0" d="M426.49,326.15"/>
	<line class="st1" x1="410.35" y1="183.97" x2="410.35" y2="168.09"/>
	<path class="st1" d="M345.98,183.97c0,4.55,3.31,8.29,7.33,8.29s7.33-3.74,7.33-8.29"/>
	<path class="st1" d="M395.7,183.97c0,4.55,3.31,8.29,7.33,8.29s7.33-3.74,7.33-8.29"/>
	<line class="st1" x1="310.9" y1="183.35" x2="310.9" y2="168.09"/>
	<path class="st1" d="M296.25,183.97c0,4.55,3.31,8.29,7.33,8.29s7.33-3.74,7.33-8.29"/>
</g>
</svg>
