<?xml version="1.0" encoding="utf-8"?>
<!-- Generator: Adobe Illustrator 26.5.0, SVG Export Plug-In . SVG Version: 6.00 Build 0)  -->
<svg version="1.1" id="Слой_1" xmlns="http://www.w3.org/2000/svg" xmlns:xlink="http://www.w3.org/1999/xlink" x="0px" y="0px"
	 viewBox="0 0 500 500" style="enable-background:new 0 0 500 500;" xml:space="preserve">
<style type="text/css">
	.st0{fill:none;stroke:#020203;stroke-width:15;stroke-linecap:round;stroke-miterlimit:10;}
	.st1{fill:none;stroke:#020203;stroke-width:10;stroke-miterlimit:10;}
	.st2{fill:none;stroke:#020203;stroke-width:10;stroke-linecap:round;stroke-miterlimit:10;}
</style>
<g>
	<line class="st0" x1="426.28" y1="334.83" x2="398.63" y2="334.83"/>
	<g>
		<path class="st1" d="M134.57,469.52H40.12c-7.83,0-14.17-6.35-14.17-14.17v-5.87h122.8v5.87
			C148.75,463.18,142.4,469.52,134.57,469.52z"/>
		<path class="st1" d="M459.68,469.52h-94.45c-7.83,0-14.17-6.35-14.17-14.17v-5.87h122.8v5.87
			C473.85,463.18,467.51,469.52,459.68,469.52z"/>
		<path class="st1" d="M459.68,469.52h-94.45c-7.83,0-14.17-6.35-14.17-14.17V331.2h122.8v124.15
			C473.85,463.18,467.51,469.52,459.68,469.52z"/>
		<path class="st1" d="M473.85,324.33v6.87H152.33v-21.04h307.35C467.51,310.16,473.85,316.51,473.85,324.33z"/>
		<path class="st1" d="M138.16,469.52H40.12c-7.83,0-14.17-6.35-14.17-14.17V43.77c0-7.83,6.35-14.17,14.17-14.17h98.04
			c7.83,0,14.17,6.35,14.17,14.17v411.58C152.33,463.18,145.99,469.52,138.16,469.52z"/>
		<path class="st1" d="M378.8,274.22H246.44c-7.83,0-14.17-6.35-14.17-14.17v-72.83c0-7.83,6.35-14.17,14.17-14.17H378.8
			c7.83,0,14.17,6.35,14.17,14.17v72.83C392.98,267.88,386.63,274.22,378.8,274.22z"/>
		<line class="st1" x1="320.43" y1="276.94" x2="320.43" y2="312.65"/>
		<line class="st1" x1="305.76" y1="276.94" x2="305.76" y2="312.65"/>
		<line class="st2" x1="148.75" y1="99.06" x2="29.54" y2="99.06"/>
		<line class="st2" x1="148.75" y1="309.86" x2="29.54" y2="309.86"/>
		<line class="st2" x1="148.75" y1="168.65" x2="29.54" y2="168.65"/>
		<line class="st2" x1="148.75" y1="238.11" x2="29.54" y2="238.11"/>
		<line class="st2" x1="148.75" y1="380.46" x2="29.54" y2="380.46"/>
		<line class="st2" x1="473.85" y1="409.46" x2="353.67" y2="409.46"/>
		<line class="st2" x1="473.85" y1="369.82" x2="353.67" y2="369.82"/>
		<line class="st0" x1="427.41" y1="413.61" x2="399.76" y2="413.61"/>
		<line class="st0" x1="428.39" y1="373.59" x2="400.74" y2="373.59"/>
	</g>
</g>
</svg>
