<?xml version="1.0" encoding="utf-8"?>
<!-- Generator: Adobe Illustrator 26.5.0, SVG Export Plug-In . SVG Version: 6.00 Build 0)  -->
<svg version="1.1" id="Слой_1" xmlns="http://www.w3.org/2000/svg" xmlns:xlink="http://www.w3.org/1999/xlink" x="0px" y="0px"
	 viewBox="0 0 500 500" style="enable-background:new 0 0 500 500;" xml:space="preserve">
<style type="text/css">
	.st0{fill:none;stroke:#020203;stroke-width:10;stroke-miterlimit:10;}
	.st1{fill:none;stroke:#020203;stroke-width:10;stroke-linecap:round;stroke-miterlimit:10;}
	.st2{fill:none;stroke:#020203;stroke-width:15;stroke-linecap:round;stroke-miterlimit:10;}
</style>
<g>
	<path class="st0" d="M457,472.99H43c-7.83,0-14.17-6.35-14.17-14.17v-5.87h442.35v5.87C471.17,466.64,464.83,472.99,457,472.99z"/>
	<path class="st0" d="M457,472.99H43c-7.83,0-14.17-6.35-14.17-14.17V47.8c0-7.83,6.35-14.17,14.17-14.17h414
		c7.83,0,14.17,6.35,14.17,14.17v411.01C471.17,466.64,464.83,472.99,457,472.99z"/>
	<rect x="176.28" y="33.63" class="st0" width="147.45" height="419.31"/>
	<line class="st1" x1="156.39" y1="35.7" x2="156.39" y2="446.14"/>
	<line class="st1" x1="320.49" y1="252.39" x2="179.51" y2="252.39"/>
	<line class="st1" x1="320.49" y1="321.85" x2="179.51" y2="321.85"/>
	<line class="st1" x1="320.49" y1="410.59" x2="179.51" y2="410.59"/>
	<line class="st1" x1="320.49" y1="366.22" x2="179.51" y2="366.22"/>
	<line class="st1" x1="320.49" y1="111.19" x2="179.51" y2="111.19"/>
	<line class="st1" x1="320.49" y1="180.65" x2="179.51" y2="180.65"/>
	<line class="st1" x1="343.5" y1="37.04" x2="343.5" y2="447.48"/>
	<line class="st1" x1="98.16" y1="111.19" x2="80.87" y2="135.72"/>
	<line class="st1" x1="104.25" y1="145.23" x2="75.98" y2="185.35"/>
	<line class="st1" x1="394.14" y1="377.24" x2="411.42" y2="352.7"/>
	<line class="st1" x1="388.04" y1="343.19" x2="416.31" y2="303.07"/>
	<line class="st1" x1="323.72" y1="37.04" x2="323.72" y2="447.48"/>
	<line class="st2" x1="266.01" y1="414.73" x2="233.58" y2="414.73"/>
	<line class="st2" x1="267.16" y1="369.99" x2="234.72" y2="369.99"/>
	<line class="st2" x1="267.16" y1="325.36" x2="234.72" y2="325.36"/>
</g>
</svg>
