<?xml version="1.0" encoding="utf-8"?>
<!-- Generator: Adobe Illustrator 26.5.0, SVG Export Plug-In . SVG Version: 6.00 Build 0)  -->
<svg version="1.1" id="Слой_1" xmlns="http://www.w3.org/2000/svg" xmlns:xlink="http://www.w3.org/1999/xlink" x="0px" y="0px"
	 viewBox="0 0 500 500" style="enable-background:new 0 0 500 500;" xml:space="preserve">
<style type="text/css">
	.st0{fill-rule:evenodd;clip-rule:evenodd;fill:none;stroke:#808080;stroke-width:30;stroke-miterlimit:10;}
	.st1{fill-rule:evenodd;clip-rule:evenodd;fill:#808080;}
</style>
<circle class="st0" cx="242" cy="242" r="221"/>
<path class="st1" d="M204.98,345h-22.95c-6.64,0-12.02-5.38-12.02-12.02V151.02c0-6.64,5.38-12.02,12.02-12.02h22.95
	c6.64,0,12.02,5.38,12.02,12.02v181.95C217,339.62,211.62,345,204.98,345z"/>
<path class="st1" d="M298.98,345h-22.95c-6.64,0-12.02-5.38-12.02-12.02V151.02c0-6.64,5.38-12.02,12.02-12.02h22.95
	c6.64,0,12.02,5.38,12.02,12.02v181.95C311,339.62,305.62,345,298.98,345z"/>
</svg>
