<?xml version="1.0" encoding="utf-8"?>
<!-- Generator: Adobe Illustrator 26.5.0, SVG Export Plug-In . SVG Version: 6.00 Build 0)  -->
<svg version="1.1" id="Слой_1" xmlns="http://www.w3.org/2000/svg" xmlns:xlink="http://www.w3.org/1999/xlink" x="0px" y="0px"
	 viewBox="0 0 500 500" style="enable-background:new 0 0 500 500;" xml:space="preserve">
<style type="text/css">
	.st0{fill:none;stroke:#808080;stroke-width:10;stroke-linecap:round;stroke-miterlimit:10;}
</style>
<path class="st0" d="M464.17,268.59c-5.26-7.41-30.83-40.99-73.7-41.95c-43.42-0.97-76.29,32.15-87.96,60.89
	c-16.28,40.09,7.15,75.46,11.09,81.19c14.18,19.85,28.37,39.7,42.55,59.55l21.72,30.6c7.18,10.11,24.53,9.68,31.01-0.77l20.01-32.28
	c11.23-17.68,22.47-35.36,33.7-53.04C464.71,369.45,497.68,315.82,464.17,268.59z"/>
<ellipse class="st0" cx="391.58" cy="318.43" rx="44.22" ry="42.85"/>
<path class="st0" d="M398.1,203.7l-35.13-33.98c-1.64-1.59-2.56-3.72-2.56-5.94V60.88c0-4.29-3.67-7.77-8.2-7.77h-44.38
	c-4.53,0-8.2,3.48-8.2,7.77v40.65c0,2.53-3.25,3.79-5.12,1.98l-69.86-67.57c-3.22-3.11-8.5-3.11-11.72,0l-90.62,87.65L39.48,203.7
	c-5.08,4.92-1.41,13.2,5.86,13.2h27.95c3.47,0,6.29,2.67,6.29,5.96v142.38c0,14.56,12.46,26.37,27.84,26.37h152.4"/>
</svg>
