<?xml version="1.0" encoding="utf-8"?>
<!-- Generator: Adobe Illustrator 26.5.0, SVG Export Plug-In . SVG Version: 6.00 Build 0)  -->
<svg version="1.1" id="Слой_1" xmlns="http://www.w3.org/2000/svg" xmlns:xlink="http://www.w3.org/1999/xlink" x="0px" y="0px"
	 viewBox="0 0 500 500" style="enable-background:new 0 0 500 500;" xml:space="preserve">
<style type="text/css">
	.st0{fill:none;stroke:#FFFFFF;stroke-width:10;stroke-miterlimit:10;}
</style>
<circle class="st0" cx="250" cy="195" r="113"/>
<path class="st0" d="M278.22,352.43l-7.42-4.17c-13.15-7.39-29.2-7.39-42.34,0l-7.42,4.17c-24.41,13.72-55.22,0.96-62.78-26
	l-2.3-8.2c-4.07-14.52-15.42-25.87-29.94-29.94l-8.2-2.3c-26.96-7.56-39.72-38.37-26-62.78l4.17-7.42c7.39-13.15,7.39-29.2,0-42.34
	l-4.17-7.42c-13.72-24.41-0.96-55.22,26-62.78l8.2-2.3c14.52-4.07,25.87-15.42,29.94-29.94l2.3-8.2c7.56-26.96,38.37-39.72,62.78-26
	l7.42,4.17c13.15,7.39,29.2,7.39,42.34,0l7.42-4.17c24.41-13.72,55.22-0.96,62.78,26l2.3,8.2c4.07,14.52,15.42,25.87,29.94,29.94
	l8.2,2.3c26.96,7.56,39.72,38.37,26,62.78l-4.17,7.42c-7.39,13.15-7.39,29.2,0,42.34l4.17,7.42c13.72,24.41,0.96,55.22-26,62.78
	l-8.2,2.3c-14.52,4.07-25.87,15.42-29.94,29.94l-2.3,8.2C333.44,353.39,302.63,366.15,278.22,352.43z"/>
<path class="st0" d="M390.39,281.54c27.71,45.22,52.01,84.86,79.72,130.07c4.47,7.29-2.75,16.55-11.23,14.41l-23.81-6
	c-12.13-3.06-24.81,4.71-27.59,16.91l-6.01,26.38c-1.75,7.66-12.1,9.66-16.11,3.11L318,351"/>
<path class="st0" d="M110.19,280.08c-28,45.69-52.55,85.74-80.55,131.43c-4.52,7.37,2.68,16.66,11.2,14.47l23.91-6.16
	c12.18-3.14,24.86,4.63,27.59,16.91l5.91,26.55c1.72,7.71,12.09,9.67,16.14,3.06L182,351"/>
<path class="st0" d="M259.71,117.14l15.96,35.48c1.51,3.36,4.69,5.68,8.36,6.08l38.68,4.21c8.92,0.97,12.51,12.02,5.86,18.05
	l-28.82,26.14c-2.73,2.48-3.95,6.22-3.19,9.83l7.95,38.09c1.83,8.78-7.57,15.61-15.35,11.15l-33.77-19.33
	c-3.2-1.83-7.13-1.83-10.34,0l-33.77,19.33c-7.79,4.46-17.19-2.37-15.35-11.15l7.95-38.09c0.75-3.61-0.46-7.35-3.19-9.83
	l-28.82-26.14c-6.64-6.03-3.05-17.08,5.86-18.05l38.68-4.21c3.67-0.4,6.85-2.71,8.36-6.08l15.96-35.48
	C244.41,108.95,256.03,108.95,259.71,117.14z"/>
</svg>
