<?xml version="1.0" encoding="utf-8"?>
<!-- Generator: Adobe Illustrator 26.5.0, SVG Export Plug-In . SVG Version: 6.00 Build 0)  -->
<svg version="1.1" id="Слой_1" xmlns="http://www.w3.org/2000/svg" xmlns:xlink="http://www.w3.org/1999/xlink" x="0px" y="0px"
	 viewBox="0 0 500 500" style="enable-background:new 0 0 500 500;" xml:space="preserve">
<style type="text/css">
	.st0{fill:none;stroke:#808080;stroke-width:10;stroke-linecap:round;stroke-miterlimit:10;}
</style>
<path class="st0" d="M271.59,421.15c59.67,0,119.33,0,179,0"/>
<path class="st0" d="M196.52,325.41c-77.4,10.88-150.81-41.12-166.24-117.74C14.21,127.82,66.69,48.88,146.55,32.8
	c70.17-14.13,141.06,24.39,167.39,90.96"/>
<line class="st0" x1="102.7" y1="246.33" x2="239.33" y2="109.7"/>
<circle class="st0" cx="123.43" cy="131.24" r="30.84"/>
<circle class="st0" cx="206.89" cy="219.31" r="30.84"/>
<path class="st0" d="M449.04,237.59c1.01-1.53,1.55-3.33,1.55-5.17v-38.87c0-5.19-4.21-9.4-9.4-9.4h-160.2c-5.19,0-9.4,4.21-9.4,9.4
	v38.87c0,1.84,0.54,3.64,1.55,5.17l43.2,65.6l12.08,18.34c2.24,3.41,2.24,7.82,0,11.23l-12.08,18.34l-43.2,65.6
	c-1.01,1.53-1.55,3.33-1.55,5.17v38.87c0,5.19,4.21,9.4,9.4,9.4h160.2c5.19,0,9.4-4.21,9.4-9.4v-38.87c0-1.84-0.54-3.64-1.55-5.17
	l-43.2-65.6l-12.08-18.34c-2.24-3.41-2.24-7.82,0-11.23l12.08-18.34L449.04,237.59z"/>
</svg>
