<?xml version="1.0" encoding="utf-8"?>
<!-- Generator: Adobe Illustrator 26.5.0, SVG Export Plug-In . SVG Version: 6.00 Build 0)  -->
<svg version="1.1" id="Слой_1" xmlns="http://www.w3.org/2000/svg" xmlns:xlink="http://www.w3.org/1999/xlink" x="0px" y="0px"
	 viewBox="0 0 500 500" style="enable-background:new 0 0 500 500;" xml:space="preserve">
<style type="text/css">
	.st0{fill:none;stroke:#808080;stroke-width:10;stroke-miterlimit:10;}
	.st1{fill:none;stroke:#808080;stroke-width:10;stroke-linecap:round;stroke-miterlimit:10;}
</style>
<path class="st0" d="M141.53,30.33L141.53,30.33c-10.7,0-19.37,8.67-19.37,19.37v32.72c0,10.7,8.67,19.37,19.37,19.37h0
	c10.7,0,19.37-8.67,19.37-19.37V49.71C160.9,39.01,152.23,30.33,141.53,30.33z"/>
<path class="st0" d="M249.53,30.33L249.53,30.33c-10.7,0-19.37,8.67-19.37,19.37v32.72c0,10.7,8.67,19.37,19.37,19.37h0
	c10.7,0,19.37-8.67,19.37-19.37V49.71C268.9,39.01,260.23,30.33,249.53,30.33z"/>
<path class="st0" d="M362.53,30.33L362.53,30.33c-10.7,0-19.37,8.67-19.37,19.37v32.72c0,10.7,8.67,19.37,19.37,19.37h0
	c10.7,0,19.37-8.67,19.37-19.37V49.71C381.9,39.01,373.23,30.33,362.53,30.33z"/>
<path class="st1" d="M470.9,267.8V123.41c0-23.85-16.07-43.18-35.89-43.18H381.9V53.65c0-12.88-8.67-23.31-19.37-23.31
	s-19.37,10.44-19.37,23.31v26.58H268.9V53.65c0-12.88-8.67-23.31-19.37-23.31c-10.7,0-19.37,10.44-19.37,23.31v26.58H160.9V53.65
	c0-12.88-8.67-23.31-19.37-23.31s-19.37,10.44-19.37,23.31v26.58H64.79c-19.82,0-35.89,19.33-35.89,43.18v266.2
	c0,23.85,16.07,43.18,35.89,43.18H249.9"/>
<path class="st0" d="M154.75,309.8H79.31c-6.16,0-11.15,4.99-11.15,11.15v59.65c0,6.16,4.99,11.15,11.15,11.15h75.44
	c6.16,0,11.15-4.99,11.15-11.15v-59.65C165.9,314.79,160.91,309.8,154.75,309.8z"/>
<path class="st0" d="M154.75,190.8H79.31c-6.16,0-11.15,4.99-11.15,11.15v59.65c0,6.16,4.99,11.15,11.15,11.15h75.44
	c6.16,0,11.15-4.99,11.15-11.15v-59.65C165.9,195.79,160.91,190.8,154.75,190.8z"/>
<path class="st1" d="M298.9,250.8v-48.85c0-6.16-4.99-11.15-11.15-11.15h-75.44c-6.16,0-11.15,4.99-11.15,11.15v59.65
	c0,6.16,4.99,11.15,11.15,11.15c9.87,0.02,19.73,0.04,29.59,0.04"/>
<path class="st1" d="M430.9,261.6v-59.65c0-6.16-4.99-11.15-11.15-11.15h-75.44c-6.16,0-11.15,4.99-11.15,11.15l-0.25,43.85"/>
<path class="st1" d="M243.9,310.2h-31.25c-6.16,0-11.15,4.16-11.15,9.29v62.81c0,5.13,4.99,9.29,11.15,9.29l30.25,0.21"/>
<path class="st1" d="M388.75,285.07c-10.37-1.16-20.5-0.56-30.12,1.54c-9.17,2.01-18.65,2.11-27.87,0.32l-23.05-4.47l-19.49-3.96
	c-9.27-1.88-17.08,7.02-14,15.97l6.48,18.8l4.24,12.65c3.73,11.14,4.51,23.03,2.41,34.58c-0.57,3.14-0.98,6.33-1.22,9.58
	c-3.81,50.94,34.39,95.33,85.34,99.15c52.27,3.91,97.64-36.41,99.36-89.33C472.39,332.02,436.36,290.42,388.75,285.07z"/>
<path class="st1" d="M328.89,363.55l29.77,55.89c8.86,11.32,26.11,8.89,30.41-4.3c9.04-27.69,18.09-55.37,27.13-83.06"/>
</svg>
