<?xml version="1.0" encoding="utf-8"?>
<!-- Generator: Adobe Illustrator 26.5.0, SVG Export Plug-In . SVG Version: 6.00 Build 0)  -->
<svg version="1.1" id="Слой_1" xmlns="http://www.w3.org/2000/svg" xmlns:xlink="http://www.w3.org/1999/xlink" x="0px" y="0px"
	 viewBox="0 0 500 500" style="enable-background:new 0 0 500 500;" xml:space="preserve">
<style type="text/css">
	.st0{fill:none;stroke:#FFFFFF;stroke-width:10;stroke-linecap:round;stroke-miterlimit:10;}
	.st1{fill:none;stroke:#FFFFFF;stroke-width:10;stroke-miterlimit:10;}
</style>
<path class="st0" d="M125.55,232.77C111.09,141.8,170.8,54.19,260.76,34.39c93.76-20.64,187.89,39.53,208.53,133.29
	c18.13,82.39-25.76,166.74-103.63,199.17"/>
<g>
	<path class="st1" d="M331.29,374.09v3.36h-61.05c-5.84,0-10.57-4.73-10.57-10.57v-61.05h3.36"/>
	<path class="st1" d="M263.04,304.06h-36.2v89.42c0,9.02-7.32,16.34-16.34,16.34l-156.12-1v17.65c0,12.61,10.03,22.94,22.64,23.3
		l12.07,0.35c0.74,10.45,9.44,18.7,20.08,18.7c10.64,0,19.33-8.25,20.08-18.7H256.9c0.74,10.45,9.44,18.7,20.08,18.7
		c10.64,0,19.33-8.25,20.08-18.7h10.93c12.87,0,23.31-10.44,23.31-23.31v-16.99v-37.51C331.29,334.61,300.73,304.06,263.04,304.06z"
		/>
	<circle class="st1" cx="109.16" cy="448.93" r="20.15"/>
	<circle class="st1" cx="276.98" cy="448.93" r="20.15"/>
	<path class="st1" d="M211.62,409.3H46.14c-8.15,0-14.76-6.61-14.76-14.76V276.06c0-8.15,6.61-14.76,14.76-14.76h165.48
		c8.15,0,14.76,6.61,14.76,14.76v118.48C226.38,402.69,219.77,409.3,211.62,409.3z"/>
</g>
<path class="st0" d="M195.38,169.3c4.34-4.39,10.58-12.09,11-22c0.9-21.19-25.68-31.9-22-46c2.59-9.92,19.03-17.2,31-14
	c14.48,3.87,13.57,20.73,27,30c19.37,13.37,48.21-3.1,79-13c25.45-8.18,62.69-15.24,113-9"/>
<path class="st0" d="M195.38,169.3c-27.46,22.1-31.36,34.07-29,41c4.48,13.15,30.57,5.51,63,24c33.57,19.14,35.59,43.89,53,43
	c24.99-1.27,26.39-52.92,59-61c25.72-6.37,40.57,21.87,70,19c27.88-2.72,47.83-31.32,60-54"/>
<path class="st0" d="M393.38,352.3c-21.29-9.46-33.5-28.29-31-45c2.79-18.69,22.93-27.8,30-31c28.94-13.1,57.98,0.1,64,3"/>
</svg>
