<?xml version="1.0" encoding="utf-8"?>
<!-- Generator: Adobe Illustrator 26.5.0, SVG Export Plug-In . SVG Version: 6.00 Build 0)  -->
<svg version="1.1" id="Слой_1" xmlns="http://www.w3.org/2000/svg" xmlns:xlink="http://www.w3.org/1999/xlink" x="0px" y="0px"
	 viewBox="0 0 500 500" style="enable-background:new 0 0 500 500;" xml:space="preserve">
<style type="text/css">
	.st0{fill:#FFFFFF;}
</style>
<g>
	<path class="st0" d="M246.07,341.76c-19.95,0-36.28-5.37-48.99-16.12c-12.71-10.74-19.37-24.51-19.97-41.29h35.83
		c1.11,7.71,4.75,13.91,10.92,18.62c6.16,4.71,13.65,7.06,22.47,7.06c10.02,0,18.13-3.08,24.33-9.25s9.31-14.25,9.31-24.27
		c0-10.19-3.13-18.41-9.38-24.66c-6.25-6.25-14.3-9.38-24.14-9.38c-14.3,0-24.87,5.57-31.72,16.69h-34.67l9.25-107.49h116.48v32.23
		h-86.43l-4.11,47.64h2.31c8.39-12.07,21.49-18.11,39.3-18.11c17.55,0,31.95,5.82,43.21,17.46c11.26,11.64,16.89,26.54,16.89,44.69
		c0,19.69-6.51,35.64-19.52,47.84C284.43,335.66,267.3,341.76,246.07,341.76z"/>
</g>
<circle class="st0" cx="44" cy="249" r="12"/>
<circle class="st0" cx="451" cy="249" r="12"/>
<g>
	<path class="st0" d="M32.68,313.89c-1.87-6.05-1.39-11.44,1.45-16.15c2.84-4.71,7.65-8.12,14.44-10.22
		c6.79-2.1,12.68-2.01,17.67,0.28c5,2.29,8.43,6.46,10.31,12.51c1.53,4.94,1.35,9.56-0.54,13.87c-1.89,4.31-5.05,7.34-9.5,9.07
		l-2.63-8.5c2.28-1.17,3.87-2.85,4.78-5.04s0.97-4.53,0.2-7.02c-1.01-3.28-3.09-5.48-6.23-6.6c-3.14-1.12-6.9-1-11.3,0.36
		c-4.4,1.36-7.58,3.39-9.54,6.09c-1.96,2.7-2.43,5.7-1.41,9c0.78,2.51,2.12,4.42,4.02,5.73c1.91,1.31,4.07,1.82,6.5,1.54l2.63,8.5
		c-4.62,1.03-8.87,0.31-12.73-2.16C36.95,322.67,34.24,318.92,32.68,313.89z"/>
	<path class="st0" d="M70.82,351.52l6.17-3.95l3.12,4.87c1.16,1.82,2.56,2.99,4.19,3.52c1.63,0.52,3.19,0.31,4.69-0.65
		c1.48-0.95,2.31-2.24,2.48-3.87c0.18-1.63-0.35-3.4-1.56-5.31s-2.67-3.14-4.36-3.72c-1.69-0.57-3.35-0.4-4.98,0.53l-4.55-7.11
		c3.57-2.09,7.17-2.56,10.79-1.39c3.62,1.17,6.76,3.82,9.4,7.95c2.51,3.93,3.63,7.71,3.36,11.34c-0.27,3.64-1.9,6.41-4.87,8.31
		c-2.06,1.32-4.26,1.84-6.62,1.56c-2.36-0.28-4.39-1.28-6.1-3.01l-0.46,0.29c1.34,2.62,1.71,5.19,1.1,7.7
		c-0.6,2.52-2.13,4.56-4.58,6.13c-3.25,2.08-6.8,2.39-10.67,0.94c-3.87-1.46-7.16-4.31-9.88-8.56c-2.7-4.21-3.85-8.31-3.44-12.28
		c0.4-3.97,2.29-7.15,5.65-9.54l4.72,7.37c-1.47,1.11-2.25,2.6-2.33,4.47c-0.08,1.87,0.55,3.87,1.9,5.97
		c1.3,2.02,2.83,3.34,4.59,3.94c1.77,0.61,3.43,0.41,4.99-0.59c1.5-0.96,2.29-2.31,2.37-4.07c0.09-1.76-0.57-3.72-1.96-5.9
		L70.82,351.52z"/>
	<path class="st0" d="M93.84,409.46l5.17-9.62l-10.69-11.01l-9.81,4.85l-6.39-6.58l41.9-19.56l7.49,7.71l-20.77,41.32L93.84,409.46z
		 M110.85,377.31l-16.11,8.01l7.97,8.21l8.52-15.83L110.85,377.31z"/>
	<path class="st0" d="M143.88,429.67c-2.32,3.43-5.35,5.41-9.09,5.95c-3.74,0.54-7.47-0.45-11.2-2.98l-14.84-10.05l24.49-36.17
		l24.04,16.28l-4.38,6.47l-16.47-11.15l-4.77,7.04l7.02,4.75c3.79,2.57,6.17,5.69,7.14,9.35
		C146.79,422.82,146.14,426.33,143.88,429.67z M120.54,421.48l5.39,3.65c2.12,1.44,4.07,2.1,5.83,1.99
		c1.77-0.11,3.22-1.01,4.36-2.69c1.15-1.7,1.46-3.4,0.91-5.09c-0.55-1.69-1.9-3.26-4.04-4.71l-5.37-3.63L120.54,421.48z"/>
	<path class="st0" d="M180.18,411.99c5.99,2.41,9.97,6.23,11.92,11.45c1.96,5.22,1.62,11.11-1.02,17.67
		c-2.64,6.57-6.48,11.07-11.51,13.48c-5.03,2.42-10.54,2.42-16.53,0.01c-6.01-2.42-10-6.24-11.96-11.47
		c-1.97-5.23-1.62-11.13,1.02-17.7c2.64-6.55,6.48-11.03,11.54-13.44S174.2,409.58,180.18,411.99z M183.55,426.35
		c-0.95-3.29-3.07-5.59-6.37-6.92c-3.3-1.33-6.43-1.13-9.4,0.58c-2.97,1.71-5.31,4.68-7.01,8.91c-1.7,4.23-2.08,8-1.13,11.29
		c0.95,3.3,3.08,5.61,6.39,6.94c3.3,1.33,6.43,1.13,9.39-0.59s5.3-4.7,7-8.93C184.13,433.39,184.5,429.63,183.55,426.35z"/>
	<path class="st0" d="M211.73,466.92l-9-1.6l6.3-35.32l-12.91-2.3l1.37-7.69l34.81,6.21l-1.37,7.69l-12.9-2.3L211.73,466.92z"/>
	<path class="st0" d="M251.39,424.68c6.46-0.19,11.62,1.72,15.5,5.73c3.88,4.01,5.92,9.54,6.13,16.6c0.2,7.08-1.52,12.73-5.16,16.96
		c-3.64,4.22-8.69,6.43-15.15,6.61c-6.48,0.19-11.66-1.72-15.55-5.73c-3.89-4.01-5.94-9.55-6.14-16.63
		c-0.2-7.06,1.53-12.7,5.21-16.93C239.9,427.07,244.96,424.86,251.39,424.68z M260.23,436.49c-2.19-2.63-5.05-3.9-8.6-3.8
		c-3.55,0.1-6.35,1.53-8.39,4.28c-2.04,2.75-3,6.41-2.86,10.97c0.13,4.56,1.29,8.16,3.48,10.8c2.19,2.64,5.06,3.91,8.64,3.81
		c3.55-0.1,6.34-1.54,8.37-4.3c2.03-2.76,2.98-6.43,2.85-10.98C263.57,442.72,262.42,439.13,260.23,436.49z"/>
	<path class="st0" d="M313.52,459.5l-7.42-27.97l-0.53,0.14l-11.57,33.01l-8.52,2.26l-11.2-42.23l8.81-2.34l7.42,28l0.53-0.14
		l11.57-33.04l8.52-2.26l11.2,42.23L313.52,459.5z M278.01,408.94l6.38-1.69c0.41,1.39,1.16,2.39,2.23,2.99
		c1.08,0.6,2.29,0.72,3.64,0.37c1.36-0.36,2.37-1.07,3.02-2.13c0.65-1.06,0.81-2.3,0.47-3.71l6.38-1.69
		c0.76,2.87,0.36,5.42-1.21,7.66c-1.57,2.24-4.03,3.81-7.38,4.7c-3.34,0.88-6.23,0.74-8.7-0.43
		C280.38,413.83,278.77,411.81,278.01,408.94z"/>
	<path class="st0" d="M340.52,397.96c5.48-3.41,10.91-4.36,16.28-2.85c5.37,1.51,9.92,5.26,13.65,11.26
		c3.74,6.02,5.1,11.76,4.08,17.25c-1.02,5.48-4.28,9.93-9.76,13.34c-5.5,3.42-10.94,4.38-16.32,2.88s-9.94-5.26-13.68-11.28
		c-3.73-6-5.07-11.75-4.03-17.25C331.8,405.82,335.05,401.37,340.52,397.96z M354.1,403.72c-3.21-1.17-6.33-0.82-9.34,1.05
		c-3.02,1.88-4.71,4.52-5.09,7.92c-0.38,3.41,0.64,7.05,3.05,10.92c2.41,3.87,5.22,6.4,8.44,7.58c3.22,1.18,6.35,0.83,9.38-1.06
		c3.02-1.88,4.71-4.52,5.07-7.93c0.36-3.41-0.66-7.05-3.07-10.92C360.13,407.42,357.32,404.9,354.1,403.72z"/>
	<path class="st0" d="M414.24,393.51l-13.15,14.56l-32.42-29.28l12.8-14.18c2.83-3.13,5.76-4.94,8.81-5.42
		c3.05-0.48,5.83,0.41,8.35,2.68c1.72,1.55,2.74,3.49,3.04,5.8s-0.17,4.42-1.42,6.31l0.41,0.37c2.1-1.99,4.51-3.03,7.22-3.12
		c2.72-0.09,5.12,0.81,7.2,2.69c2.85,2.57,4.2,5.61,4.06,9.13C419,386.56,417.37,390.05,414.24,393.51z M379.99,376.69l8.25,7.45
		l4.61-5.1c1.65-1.83,2.55-3.55,2.71-5.18c0.16-1.62-0.41-3.02-1.71-4.2c-1.3-1.18-2.72-1.65-4.25-1.41
		c-1.53,0.24-3.03,1.16-4.49,2.78L379.99,376.69z M402.03,396.59l5.46-6.04c1.76-1.95,2.7-3.8,2.83-5.56
		c0.13-1.76-0.56-3.32-2.07-4.68c-1.48-1.34-3.09-1.83-4.81-1.47c-1.72,0.36-3.49,1.54-5.31,3.55l-5.32,5.89L402.03,396.59z"/>
	<path class="st0" d="M444.55,349.61l-10.66-2.4l-7.74,13.26l7.3,8.15l-4.62,7.92l-30.08-35.12l5.42-9.28l45.37,8.92L444.55,349.61z
		 M409.02,341.84l12.04,13.37l5.77-9.88l-17.53-3.96L409.02,341.84z"/>
	<path class="st0" d="M459.54,316.27c-2,6.01-5.52,10.11-10.58,12.29s-10.95,2.15-17.69-0.09c-6.74-2.24-11.48-5.74-14.21-10.51
		c-2.73-4.77-3.1-10.16-1.1-16.17c1.63-4.9,4.47-8.56,8.51-10.97c4.04-2.41,8.38-3.03,13.01-1.85l-2.81,8.45
		c-2.54-0.37-4.81,0.07-6.82,1.32s-3.43,3.12-4.25,5.59c-1.08,3.26-0.67,6.25,1.22,8.99c1.9,2.74,5.03,4.83,9.4,6.28
		c4.37,1.45,8.13,1.65,11.3,0.6s5.29-3.22,6.38-6.49c0.83-2.49,0.85-4.82,0.06-7c-0.79-2.18-2.25-3.85-4.39-5.03l2.81-8.45
		c4.36,1.85,7.39,4.91,9.09,9.16C461.18,306.64,461.21,311.27,459.54,316.27z"/>
</g>
<g>
	<path class="st0" d="M76.36,205.23c-1.07,4.58-3.19,8.04-6.34,10.38c-3.15,2.34-6.67,3.13-10.55,2.36l1.93-8.22
		c1.83,0.16,3.45-0.34,4.86-1.5s2.36-2.75,2.83-4.78c0.54-2.3,0.27-4.33-0.81-6.08c-1.08-1.76-2.77-2.9-5.07-3.44
		c-2.34-0.55-4.39-0.27-6.16,0.82c-1.77,1.1-2.92,2.78-3.45,5.04c-0.77,3.28-0.06,6.01,2.12,8.18l-1.87,7.96l-24.17-7.91l6.27-26.73
		l7.4,1.74l-4.65,19.84l10.71,3.51l0.12-0.53c-2.32-2.58-3-5.91-2.04-9.99c0.94-4.03,3.06-7.02,6.33-8.98
		c3.28-1.96,7-2.45,11.17-1.47c4.52,1.06,7.83,3.41,9.93,7.05C77.02,196.1,77.5,200.35,76.36,205.23z"/>
	<path class="st0" d="M105.6,138.58l-4.77,7.8l-30.61-18.71l-6.65,10.87l15.25,10.57c1.83,1.26,3.41,2.5,4.75,3.72
		c1.34,1.22,2.47,2.5,3.4,3.84c0.93,1.34,1.57,2.68,1.91,4.02c0.34,1.34,0.38,2.75,0.12,4.22c-0.26,1.47-0.86,2.97-1.78,4.48
		c-0.72,1.17-1.4,2.04-2.06,2.61l-7.1-4.34c0.53-0.55,0.95-1.09,1.26-1.6c0.45-0.74,0.71-1.48,0.77-2.21
		c0.06-0.73-0.04-1.42-0.31-2.05c-0.26-0.63-0.7-1.3-1.3-1.99s-1.27-1.33-1.98-1.92c-0.71-0.59-1.58-1.23-2.6-1.93l-21.25-14.52
		l15.68-25.65L105.6,138.58z"/>
	<path class="st0" d="M126.01,105.71l5.58,5.46l-20.24,20.68L80.13,101.3l20.24-20.68l5.58,5.46L92.1,100.23l7.29,7.14l13.06-13.35
		l5.17,5.06l-13.06,13.35l7.59,7.43L126.01,105.71z"/>
	<path class="st0" d="M153.97,95.35l-7.62,5.05l-19.8-29.92l-10.93,7.23l-4.31-6.51l29.49-19.52l4.31,6.51l-10.93,7.23L153.97,95.35
		z"/>
	<path class="st0" d="M193.53,76.97l-8.79,2.62l-12.5-41.86l26.98-8.05l2.24,7.51l-18.19,5.43L193.53,76.97z"/>
	<path class="st0" d="M241.19,68.31l-4.29-10.05l-15.28,1.49l-2.33,10.69l-9.13,0.89l10.86-44.95l10.7-1.04l19.33,42.01
		L241.19,68.31z M226.69,34.96l-3.79,17.59l11.39-1.11l-7.05-16.53L226.69,34.96z"/>
	<path class="st0" d="M262.57,24.74l18.06,2.45c4.46,0.61,7.89,2.47,10.28,5.6c2.4,3.13,3.29,6.93,2.68,11.41
		c-0.6,4.44-2.52,7.84-5.75,10.19s-7.14,3.21-11.72,2.59l-8.55-1.16l-1.83,13.44l-9.06-1.23L262.57,24.74z M270.62,33.41
		l-2.05,15.06l6.57,0.89c2.62,0.36,4.73-0.01,6.34-1.11c1.6-1.1,2.57-2.85,2.9-5.27c0.33-2.44-0.12-4.41-1.37-5.9
		c-1.24-1.49-3.17-2.42-5.79-2.77L270.62,33.41z"/>
	<path class="st0" d="M319.12,82.97l0.49-10.91l-14.41-5.28l-6.74,8.62l-8.61-3.16l29.28-35.79l10.09,3.7l-0.8,46.24L319.12,82.97z
		 M320.51,46.62l-11.04,14.2l10.74,3.94l0.81-17.95L320.51,46.62z"/>
	<path class="st0" d="M364.4,110.66l-7.52-5.2l10.38-15.02l-16.19-11.19l-10.38,15.02l-7.52-5.2L358,53.14l7.52,5.2l-10.02,14.5
		l16.19,11.19l10.02-14.5l7.52,5.2L364.4,110.66z"/>
	<path class="st0" d="M383.74,131.53l-6.08-6.83l26.81-23.84l-8.71-9.8l5.84-5.19l23.49,26.43l-5.84,5.19l-8.71-9.8L383.74,131.53z"
		/>
	<path class="st0" d="M409.67,171.96l25.59-13.52l-0.25-0.48l-34.77-3.85l-4.12-7.79l38.62-20.42l4.26,8.06l-25.61,13.54l0.25,0.48
		l34.79,3.83l4.12,7.79l-38.62,20.41L409.67,171.96z"/>
	<path class="st0" d="M423.31,216.28l28.22-6.4l-0.12-0.53l-32.57-12.76l-1.95-8.59l42.6-9.66l2.01,8.89l-28.25,6.41l0.12,0.53
		l32.6,12.75l1.95,8.59l-42.6,9.66L423.31,216.28z"/>
</g>
</svg>
