<?xml version="1.0" encoding="utf-8"?>
<!-- Generator: Adobe Illustrator 26.5.0, SVG Export Plug-In . SVG Version: 6.00 Build 0)  -->
<svg version="1.1" id="Слой_1" xmlns="http://www.w3.org/2000/svg" xmlns:xlink="http://www.w3.org/1999/xlink" x="0px" y="0px"
	 viewBox="0 0 500 500" style="enable-background:new 0 0 500 500;" xml:space="preserve">
<style type="text/css">
	.st0{fill:none;stroke:#FFFFFF;stroke-width:10;stroke-miterlimit:10;}
	.st1{fill:none;stroke:#FFFFFF;stroke-width:10;stroke-linecap:round;stroke-miterlimit:10;}
</style>
<path class="st0" d="M204,216c-47,0-94,0-141,0c0,72.72,0,145.45,0,218.17C63,450.64,76.36,464,92.83,464h322.34
	c16.48,0,29.83-13.36,29.83-29.83V216c-47,0-94,0-141,0"/>
<path class="st0" d="M222,127h62v-9.42c0-9.71-7.87-17.58-17.58-17.58h-26.84c-9.71,0-17.58,7.87-17.58,17.58V127z"/>
<path class="st0" d="M302.94,216c0,0,0.06,0,0.06,0c0,0,0,0,142.17,0c4.27,0,14.04-1.68,21.09-8.74c5.4-5.4,8.74-12.86,8.74-21.09
	v-29.34c0-16.48-13.36-29.83-29.83-29.83H62.83C46.36,127,33,140.36,33,156.83v29.34C33,202.64,46.36,216,62.83,216
	c41.94,0,123.38,0.69,140.12,0"/>
<path class="st1" d="M370.41,48.65c-12.23-20.59-37.83-25.96-55.11-22.74c-24.11,4.49-34.32,26.12-35.93,29.7
	c-5.43,12.62-10.86,25.25-16.29,37.87l-2.83,6.52h-16.92l-2.83-6.52c-5.43-12.62-10.86-25.25-16.29-37.87
	c-1.61-3.57-11.82-25.2-35.93-29.7c-17.28-3.22-42.88,2.14-55.11,22.74c-12.07,20.33-3.36,42.42-1.32,47.12
	c12.99,29.93,48.51,30.71,50.74,30.72c11.82,0.09,23.63,0.17,35.45,0.26l3.94,0.07V127h10.16l7.33,0.13
	c0.55,0.01,1.08-0.05,1.61-0.13h21.41c0.53,0.09,1.06,0.14,1.61,0.13l7.33-0.13H284v-0.23l1.54-0.03
	c11.82-0.09,23.63-0.17,35.45-0.26c2.23-0.01,37.75-0.79,50.74-30.72C373.76,91.07,382.48,68.98,370.41,48.65z"/>
<line class="st0" x1="204" y1="127" x2="204" y2="464"/>
<line class="st0" x1="303" y1="127" x2="303" y2="464"/>
<path class="st0" d="M303,216"/>
</svg>
