<?xml version="1.0" encoding="utf-8"?>
<!-- Generator: Adobe Illustrator 26.5.0, SVG Export Plug-In . SVG Version: 6.00 Build 0)  -->
<svg version="1.1" id="Слой_1" xmlns="http://www.w3.org/2000/svg" xmlns:xlink="http://www.w3.org/1999/xlink" x="0px" y="0px"
	 viewBox="0 0 500 500" style="enable-background:new 0 0 500 500;" xml:space="preserve">
<style type="text/css">
	.st0{fill:none;stroke:#808080;stroke-width:10;stroke-miterlimit:10;}
</style>
<path class="st0" d="M459.85,435H40.15C33.99,435,29,439.99,29,446.15v11.69c0,6.16,4.99,11.15,11.15,11.15h419.69
	c6.16,0,11.15-4.99,11.15-11.15v-11.69C471,439.99,466.01,435,459.85,435z"/>
<path class="st0" d="M448.85,158H194.15c-6.16,0-11.15,4.99-11.15,11.15V435h277V169.15C460,162.99,455.01,158,448.85,158z"/>
<path class="st0" d="M334.85,185h-26.69c-6.16,0-11.15,4.99-11.15,11.15v35.69c0,6.16,4.99,11.15,11.15,11.15h26.69
	c6.16,0,11.15-4.99,11.15-11.15v-35.69C346,189.99,341.01,185,334.85,185z"/>
<path class="st0" d="M417.85,185h-26.69c-6.16,0-11.15,4.99-11.15,11.15v35.69c0,6.16,4.99,11.15,11.15,11.15h26.69
	c6.16,0,11.15-4.99,11.15-11.15v-35.69C429,189.99,424.01,185,417.85,185z"/>
<path class="st0" d="M254.85,185h-26.69c-6.16,0-11.15,4.99-11.15,11.15v35.69c0,6.16,4.99,11.15,11.15,11.15h26.69
	c6.16,0,11.15-4.99,11.15-11.15v-35.69C266,189.99,261.01,185,254.85,185z"/>
<path class="st0" d="M334.85,270h-26.69c-6.16,0-11.15,4.99-11.15,11.15v35.69c0,6.16,4.99,11.15,11.15,11.15h26.69
	c6.16,0,11.15-4.99,11.15-11.15v-35.69C346,274.99,341.01,270,334.85,270z"/>
<path class="st0" d="M417.85,270h-26.69c-6.16,0-11.15,4.99-11.15,11.15v35.69c0,6.16,4.99,11.15,11.15,11.15h26.69
	c6.16,0,11.15-4.99,11.15-11.15v-35.69C429,274.99,424.01,270,417.85,270z"/>
<path class="st0" d="M254.85,270h-26.69c-6.16,0-11.15,4.99-11.15,11.15v35.69c0,6.16,4.99,11.15,11.15,11.15h26.69
	c6.16,0,11.15-4.99,11.15-11.15v-35.69C266,274.99,261.01,270,254.85,270z"/>
<path class="st0" d="M171.85,314H50.15C43.99,314,39,318.99,39,325.15V435h144V325.15C183,318.99,178.01,314,171.85,314z"/>
<path class="st0" d="M247.85,30h-30.69C210.99,30,206,34.99,206,41.15V158h53V41.15C259,34.99,254.01,30,247.85,30z"/>
<path class="st0" d="M325.85,94h-30.69c-6.16,0-11.15,4.99-11.15,11.15V158h53v-52.85C337,98.99,332.01,94,325.85,94z"/>
<path class="st0" d="M125.85,371H95.15C88.99,371,84,375.99,84,382.15V435h53v-52.85C137,375.99,132.01,371,125.85,371z"/>
</svg>
