<?xml version="1.0" encoding="utf-8"?>
<!-- Generator: Adobe Illustrator 26.5.0, SVG Export Plug-In . SVG Version: 6.00 Build 0)  -->
<svg version="1.1" id="Слой_1" xmlns="http://www.w3.org/2000/svg" xmlns:xlink="http://www.w3.org/1999/xlink" x="0px" y="0px"
	 viewBox="0 0 500 500" style="enable-background:new 0 0 500 500;" xml:space="preserve">
<style type="text/css">
	.st0{fill:none;stroke:#FFFFFF;stroke-width:10;stroke-miterlimit:10;}
	.st1{fill:none;stroke:#FFFFFF;stroke-width:10;stroke-linecap:round;stroke-miterlimit:10;}
</style>
<g>
	<path class="st0" d="M457,472.99H43c-7.83,0-14.17-6.35-14.17-14.17V47.8c0-7.83,6.35-14.17,14.17-14.17h414
		c7.83,0,14.17,6.35,14.17,14.17v411.01C471.17,466.64,464.83,472.99,457,472.99z"/>
	<line class="st1" x1="176.28" y1="135.25" x2="176.28" y2="471.13"/>
	<line class="st1" x1="471.17" y1="135.25" x2="28.83" y2="135.25"/>
	<line class="st1" x1="69.56" y1="158.94" x2="69.56" y2="140.58"/>
	<path class="st0" d="M155.75,325.95v2.22h-45.24v-2.22c0-7.83,6.35-14.17,14.17-14.17h16.89
		C149.41,311.77,155.75,318.12,155.75,325.95z"/>
	<line class="st1" x1="133.13" y1="308.35" x2="133.13" y2="292.09"/>
	<path class="st0" d="M92.18,174.44v2.22H46.94v-2.22c0-7.83,6.35-14.17,14.17-14.17H78C85.83,160.27,92.18,166.61,92.18,174.44z"/>
	<line class="st1" x1="217.13" y1="158.94" x2="217.13" y2="140.58"/>
	<path class="st0" d="M239.79,174.44v2.22h-45.24v-2.22c0-7.83,6.35-14.17,14.17-14.17h16.89
		C233.44,160.27,239.79,166.61,239.79,174.44z"/>
	<line class="st1" x1="169.81" y1="288.41" x2="28.83" y2="288.41"/>
</g>
</svg>
