<?xml version="1.0" encoding="utf-8"?>
<!-- Generator: Adobe Illustrator 26.5.0, SVG Export Plug-In . SVG Version: 6.00 Build 0)  -->
<svg version="1.1" id="Слой_1" xmlns="http://www.w3.org/2000/svg" xmlns:xlink="http://www.w3.org/1999/xlink" x="0px" y="0px"
	 viewBox="0 0 500 500" style="enable-background:new 0 0 500 500;" xml:space="preserve">
<style type="text/css">
	.st0{fill:none;stroke:#020203;stroke-width:10;stroke-miterlimit:10;}
	.st1{fill:none;stroke:#020203;stroke-width:10;stroke-linecap:round;stroke-miterlimit:10;}
</style>
<g>
	<path class="st0" d="M148.36,304.14c100.6,0,201.19,0,301.79,0c7.83,0,14.17,6.35,14.17,14.17v140.5c0,7.83-6.35,14.17-14.17,14.17
		H148.36"/>
	<path class="st0" d="M21.97,202.47c0-30.18,0-86.87,0-154.67c0-7.83,6.35-14.17,14.17-14.17h414c7.83,0,14.17,6.35,14.17,14.17
		v140.5c0,7.83-6.35,14.17-14.17,14.17c-101.57,0-203.13,0-304.7,0"/>
	<path class="st0" d="M148.36,472.99c-37.4,0-74.81,0-112.21,0c-7.83,0-14.17-6.35-14.17-14.17V202.47"/>
	<path class="st0" d="M148.36,197.41"/>
	<line class="st0" x1="314.72" y1="266.98" x2="314.72" y2="302.69"/>
	<line class="st0" x1="150.28" y1="202.47" x2="150.28" y2="309.18"/>
	<path class="st1" d="M314.72,266.98c0-7.81-5.59-14.24-12.38-14.24c-6.79,0-12.38,6.43-12.38,14.24"/>
</g>
</svg>
