<?xml version="1.0" encoding="utf-8"?>
<!-- Generator: Adobe Illustrator 26.5.0, SVG Export Plug-In . SVG Version: 6.00 Build 0)  -->
<svg version="1.1" id="Слой_1" xmlns="http://www.w3.org/2000/svg" xmlns:xlink="http://www.w3.org/1999/xlink" x="0px" y="0px"
	 viewBox="0 0 500 500" style="enable-background:new 0 0 500 500;" xml:space="preserve">
<style type="text/css">
	.st0{fill:none;stroke:#FFFFFF;stroke-width:10;stroke-miterlimit:10;}
</style>
<g>
	<path class="st0" d="M472.11,329.8c0,33.88,0.11,95.42,0.11,129.3c0,7.83-6.35,14.17-14.17,14.17h-94.45
		c-7.83,0-14.17-6.35-14.17-14.17l-0.11-129.3"/>
	<path class="st0" d="M150.59,329.8c0,33.88,0.11,95.42,0.11,129.3c0,7.83-6.35,14.17-14.17,14.17H42.07
		c-7.83,0-14.17-6.35-14.17-14.17l-0.11-129.3"/>
	<path class="st0" d="M27.89,338.57c0-65.13-0.11-212.85-0.11-277.98c0-15.05,6.35-27.25,14.17-27.25h94.45
		c7.83,0,14.17,12.2,14.17,27.25l0.11,248.57"/>
	<path class="st0" d="M145.65,313.91c102.45,0,209.94,0,312.39,0c7.83,0,14.17,6.35,14.17,14.17v6.87"/>
	<path class="st0" d="M346.98,334.94c-65.43,0-130.86,0-196.29,0"/>
	<path class="st0" d="M377.16,277.97H244.79c-7.83,0-14.17-6.35-14.17-14.17v-72.83c0-7.83,6.35-14.17,14.17-14.17h132.37
		c7.83,0,14.17,6.35,14.17,14.17v72.83C391.33,271.62,384.99,277.97,377.16,277.97z"/>
	<line class="st0" x1="318.78" y1="280.69" x2="318.78" y2="316.4"/>
	<line class="st0" x1="304.12" y1="280.69" x2="304.12" y2="316.4"/>
</g>
</svg>
