<?xml version="1.0" encoding="UTF-8"?>
<!DOCTYPE svg PUBLIC "-//W3C//DTD SVG 1.1//EN" "http://www.w3.org/Graphics/SVG/1.1/DTD/svg11.dtd">
<!-- Creator: it-genn.ru -->
<svg xmlns="http://www.w3.org/2000/svg" xml:space="preserve" width="500px" height="500px" version="1.1" style="shape-rendering:geometricPrecision; text-rendering:geometricPrecision; image-rendering:optimizeQuality; fill-rule:evenodd; clip-rule:evenodd"
viewBox="0 0 23.845 23.845"
 xmlns:xlink="http://www.w3.org/1999/xlink"
 xmlns:xodm="http://it-genn.ru">
 <defs>
  <style type="text/css">
   <![CDATA[
    .fil1 {fill:none}
    .fil0 {fill:gray}
   ]]>
  </style>
 </defs>
 <g id="genn-art_x0020_1">
  <metadata id="it-genn-ru-Layer"/>
  <g id="_2478214638704">
   <g>
    <path class="fil0" d="M14.901 16.581c0.631,-0.422 0.713,0.029 1.444,-0.198 0.212,-0.066 0.428,-0.184 0.59,-0.326 0.135,-0.12 0.327,-0.352 0.372,-0.545l0.076 0c0.038,0.16 1.546,2.699 1.706,2.992 0.071,0.13 0.211,0.328 0.242,0.445 -0.374,-0.087 -1.247,-0.382 -1.566,-0.382 -0.392,0 -0.462,0.66 -0.603,1.23 -0.038,0.155 -0.111,0.351 -0.122,0.489l-0.542 -0.909c-0.187,-0.311 -0.351,-0.613 -0.53,-0.922l-1.067 -1.874zm-4.518 -14.435l0.305 0c0.229,0.022 0.448,0.094 0.63,0.223 0.496,0.351 0.711,0.353 1.209,0 0.112,-0.08 0.475,-0.223 0.656,-0.223 1.653,0 1.408,1.26 2.062,1.26 0.617,0 1.527,-0.209 2.043,0.821 0.278,0.554 0.007,1.093 0.598,1.35 0.26,0.113 0.434,0.119 0.666,0.289 0.353,0.259 0.664,0.653 0.664,1.245 0,0.544 -0.121,0.495 -0.197,0.874 -0.107,0.536 0.359,0.778 0.466,0.919 0.222,0.293 0.381,0.591 0.381,1.033 0,0.591 -0.349,0.935 -0.66,1.249 -0.46,0.464 0.01,0.928 0.01,1.424 0,0.553 -0.174,0.938 -0.545,1.249 -0.499,0.42 -0.767,0.206 -1.02,0.584l2.57 4.456c0.078,0.13 0.332,0.519 0.332,0.661 0,0.234 -0.186,0.42 -0.344,0.42 -0.252,0 -1.866,-0.528 -2.138,-0.534l-0.495 1.872c-0.058,0.229 -0.188,0.35 -0.331,0.381l-0.153 0c-0.106,-0.023 -0.206,-0.09 -0.276,-0.197l-2.411 -4.195c-0.114,0.03 -0.145,0.075 -0.245,0.137 -1.116,0.69 -1.714,-0.252 -2.238,-0.252 -0.513,0 -1.01,0.823 -2.012,0.371 -0.221,-0.1 -0.349,-0.224 -0.47,-0.256 -0.206,0.389 -0.431,0.762 -0.651,1.144l-1.609 2.782c-0.069,0.114 -0.215,0.466 -0.413,0.466 -0.486,0 -0.471,-0.245 -0.665,-1.016 -0.109,-0.431 -0.233,-0.83 -0.328,-1.237 -0.175,0.003 -0.851,0.209 -1.07,0.267 -0.219,0.057 -0.897,0.267 -1.069,0.267 -0.162,0 -0.343,-0.208 -0.343,-0.382 0,-0.199 0.238,-0.545 0.346,-0.723 0.123,-0.205 0.233,-0.409 0.363,-0.63l1.467 -2.542c0.23,-0.424 0.5,-0.834 0.726,-1.26 -0.147,-0.22 -0.259,-0.222 -0.53,-0.31 -0.554,-0.18 -1.036,-0.755 -1.036,-1.37 0,-0.541 0.081,-0.488 0.194,-0.917 0.197,-0.745 -0.843,-0.809 -0.843,-1.948 0,-0.782 0.531,-1.102 0.657,-1.252 0.15,-0.18 0.244,-0.421 0.183,-0.692 -0.058,-0.26 -0.191,-0.404 -0.191,-0.729 0,-0.658 0.224,-1.077 0.732,-1.407 0.207,-0.134 0.477,-0.164 0.675,-0.279 0.66,-0.385 0.011,-1.128 1.014,-1.889 0.48,-0.364 0.876,-0.244 1.589,-0.244 0.003,0 0.226,-0.111 0.252,-0.129 0.214,-0.143 0.256,-0.413 0.484,-0.662 0.244,-0.267 0.623,-0.433 1.009,-0.469zm-3.578 18.14c-0.011,-0.138 -0.084,-0.334 -0.122,-0.489 -0.038,-0.153 -0.081,-0.312 -0.129,-0.482 -0.249,-0.875 -0.164,-0.872 -1.284,-0.565 -0.261,0.072 -0.507,0.141 -0.756,0.199 0.371,-0.702 0.84,-1.437 1.209,-2.113 0.086,-0.158 0.159,-0.29 0.249,-0.439 0.091,-0.151 0.161,-0.282 0.253,-0.434 0.067,-0.111 0.209,-0.334 0.236,-0.451l0.077 0c0.088,0.381 0.542,0.73 0.933,0.862 0.27,0.091 0.483,0.085 0.774,0.043 0.368,-0.052 0.443,-0.007 0.699,0.164l-2.139 3.705zm1.719 -16.078c0.356,0 0.687,-0.193 0.901,-0.359 0.352,-0.274 0.37,-0.577 0.564,-0.734 0.239,-0.193 0.628,-0.276 0.925,-0.075 0.162,0.109 0.208,0.174 0.402,0.247 0.604,0.228 1.083,0.136 1.593,-0.231 0.3,-0.216 0.669,-0.147 0.925,0.043 0.201,0.149 0.241,0.463 0.543,0.717 0.131,0.109 0.232,0.174 0.396,0.253 0.762,0.369 1.479,-0.262 1.828,0.54 0.084,0.193 0.066,0.535 0.14,0.776 0.308,0.99 1.257,0.936 1.506,1.243 0.457,0.565 -0.023,0.685 -0.023,1.59 0,0.976 0.84,0.969 0.84,1.719 0,0.394 -0.287,0.559 -0.488,0.772 -0.274,0.292 -0.352,0.646 -0.352,1.099 0,0.416 0.652,1.278 -0.377,1.609 -1.445,0.465 -1.021,1.534 -1.334,1.95 -0.372,0.495 -0.903,0.183 -1.411,0.27 -1.124,0.191 -0.88,1.25 -1.805,1.25 -0.431,0 -1.083,-0.891 -2.1,-0.305 -0.275,0.159 -0.318,0.305 -0.726,0.305 -0.535,0 -0.645,-0.469 -0.795,-0.656 -0.93,-1.161 -1.713,-0.171 -2.309,-0.822 -0.349,-0.381 0.04,-0.763 -0.566,-1.497 -0.482,-0.584 -0.944,-0.361 -1.264,-0.798 -0.342,-0.468 0.084,-0.727 0.084,-1.497 0,-0.997 -0.84,-0.976 -0.84,-1.757 0,-0.682 0.84,-0.52 0.84,-1.833 0,-0.572 -0.462,-0.808 -0.04,-1.377 0.27,-0.363 1.12,-0.212 1.503,-1.208 0.131,-0.342 0.074,-0.61 0.139,-0.778 0.072,-0.184 0.253,-0.401 0.452,-0.464 0.241,-0.076 0.552,0.008 0.849,0.008z"/>
    <path class="fil0" d="M6.576 9.631l0 0.496c0,1.879 1.292,3.747 2.877,4.532 0.128,0.064 0.628,0.318 0.751,0.318 0.219,0 0.42,-0.176 0.42,-0.381 0,-0.344 -0.262,-0.38 -0.508,-0.486 -0.522,-0.224 -0.802,-0.438 -1.216,-0.769 -0.187,-0.149 -0.338,-0.32 -0.486,-0.507 -0.463,-0.586 -0.82,-1.227 -0.97,-2.009 -0.399,-2.086 0.599,-4.086 2.429,-5 1.523,-0.762 3.409,-0.609 4.761,0.407 0.867,0.652 1.514,1.594 1.747,2.683 0.313,1.461 -0.037,2.787 -0.933,3.898 -0.156,0.193 -0.292,0.352 -0.482,0.511 -0.878,0.735 -1.285,0.746 -1.56,0.922 -0.349,0.222 -0.146,0.731 0.197,0.731 0.304,0 1.15,-0.521 1.406,-0.694 1.268,-0.86 2.26,-2.571 2.26,-4.117 0,-1.026 -0.067,-1.667 -0.522,-2.572 -0.374,-0.744 -0.55,-0.963 -1.092,-1.505 -0.118,-0.119 -0.206,-0.217 -0.333,-0.315l-0.766 -0.533c-1.43,-0.831 -3.296,-0.91 -4.81,-0.23 -1.756,0.788 -3.17,2.688 -3.17,4.62z"/>
    <path class="fil0" d="M10.242 9.364c0.394,0 1.086,0.072 1.269,-0.145 0.077,-0.091 0.36,-0.916 0.373,-1.077l0.077 0c0.011,0.142 0.29,0.962 0.357,1.056 0.175,0.244 0.875,0.166 1.285,0.166 -0.067,0.099 -0.145,0.131 -0.251,0.207 -0.852,0.606 -0.774,0.543 -0.537,1.268 0.062,0.191 0.133,0.363 0.177,0.549 -1.089,-0.729 -0.903,-0.912 -1.626,-0.366 -0.175,0.133 -0.34,0.25 -0.513,0.366 0.291,-1.251 0.732,-1.019 -0.338,-1.801 -0.104,-0.076 -0.203,-0.119 -0.273,-0.223zm0.687 -0.802l-1.947 0c-0.265,0.021 -0.382,0.172 -0.382,0.42 0,0.27 0.503,0.539 0.802,0.764 0.15,0.113 0.278,0.203 0.442,0.321 0.118,0.085 0.358,0.297 0.474,0.328 -0.025,0.305 -0.611,1.853 -0.611,2.024 0,0.194 0.175,0.382 0.421,0.382 0.265,0 1.634,-1.184 1.794,-1.184 0.089,0 1.152,0.796 1.304,0.911 0.155,0.117 0.325,0.273 0.529,0.273 0.174,0 0.382,-0.182 0.382,-0.344 0,-0.164 -0.088,-0.361 -0.138,-0.511 -0.062,-0.184 -0.107,-0.36 -0.162,-0.525 -0.086,-0.256 -0.289,-0.764 -0.311,-1.026 0.11,-0.029 1.177,-0.835 1.359,-0.971 0.288,-0.216 0.36,-0.217 0.36,-0.557 0,-0.117 -0.156,-0.277 -0.347,-0.302l-1.983 -0.003c-0.071,-0.149 -0.137,-0.394 -0.196,-0.568l-0.381 -1.185c-0.139,-0.394 -0.449,-0.488 -0.682,-0.27 -0.13,0.121 -0.179,0.386 -0.225,0.538l-0.502 1.485z"/>
    <path class="fil0" d="M11.541 14.787c0,0.7 0.763,0.533 0.763,0.114 0,-0.619 -0.763,-0.446 -0.763,-0.114z"/>
   </g>
   <rect class="fil1" width="23.845" height="23.845"/>
  </g>
 </g>
</svg>
