<?xml version="1.0" encoding="UTF-8"?>
<!DOCTYPE svg PUBLIC "-//W3C//DTD SVG 1.1//EN" "http://www.w3.org/Graphics/SVG/1.1/DTD/svg11.dtd">
<!-- Creator: it-genn.ru -->
<svg xmlns="http://www.w3.org/2000/svg" xml:space="preserve" width="500px" height="500px" version="1.1" style="shape-rendering:geometricPrecision; text-rendering:geometricPrecision; image-rendering:optimizeQuality; fill-rule:evenodd; clip-rule:evenodd"
viewBox="0 0 17.675 17.675"
 xmlns:xlink="http://www.w3.org/1999/xlink"
 xmlns:xodm="http://it-genn.ru">
 <defs>
  <style type="text/css">
   <![CDATA[
    .fil2 {fill:none}
    .fil1 {fill:gray}
    .fil0 {fill:gray;fill-rule:nonzero}
    .fnt0 {font-weight:bold;font-size:9.324px;font-family:'Arial'}
   ]]>
  </style>
 </defs>
 <g id="genn-art_x0020_1">
  <metadata id="it-genn-ru-Layer"/>
  <g id="_2477963054784">
   <g>
    <g>
     <path class="fil0" d="M2.693 8.101l0.021 -0.279c0.063,0.003 0.117,-0.011 0.16,-0.043 0.043,-0.032 0.069,-0.073 0.078,-0.124 0.011,-0.057 -0.004,-0.11 -0.044,-0.158 -0.04,-0.048 -0.107,-0.081 -0.202,-0.098 -0.088,-0.015 -0.158,-0.008 -0.21,0.024 -0.051,0.032 -0.082,0.079 -0.093,0.142 -0.015,0.079 0.007,0.157 0.066,0.232l-0.072 0.216 -0.72 -0.273 0.13 -0.726 0.256 0.045 -0.092 0.519 0.236 0.086c-0.02,-0.066 -0.024,-0.131 -0.012,-0.196 0.022,-0.122 0.084,-0.217 0.189,-0.286 0.103,-0.069 0.226,-0.091 0.369,-0.066 0.118,0.022 0.217,0.075 0.298,0.16 0.11,0.116 0.15,0.257 0.121,0.422 -0.024,0.132 -0.079,0.234 -0.165,0.305 -0.086,0.071 -0.19,0.103 -0.314,0.098zm-0.405 -2.451l0.508 -0.884 1.262 0.725 -0.147 0.256 -1.048 -0.603 -0.218 0.379 0.538 0.31c0.155,0.088 0.259,0.156 0.314,0.201 0.055,0.045 0.089,0.098 0.1,0.157 0.011,0.06 -0.008,0.132 -0.056,0.217 -0.018,0.03 -0.052,0.082 -0.103,0.158l-0.197 -0.114 0.033 -0.056c0.031,-0.054 0.045,-0.094 0.041,-0.12 -0.004,-0.027 -0.034,-0.056 -0.09,-0.089l-0.217 -0.123 -0.72 -0.414zm1.947 -0.409l-1.053 -1.004 0.743 -0.78 0.178 0.17 -0.54 0.566 0.234 0.223 0.502 -0.526 0.178 0.169 -0.502 0.527 0.286 0.272 0.559 -0.587 0.178 0.17 -0.763 0.8zm1.229 -1.146l-0.653 -1.019 -0.363 0.233 -0.132 -0.207 0.972 -0.623 0.133 0.207 -0.362 0.231 0.653 1.019 -0.248 0.159zm0.915 -2.113l0.948 -0.27 0.067 0.237 -0.664 0.189 0.33 1.163 -0.284 0.081 -0.397 -1.4zm2.679 1.016l-0.317 0.024 -0.15 -0.321 -0.582 0.044 -0.096 0.34 -0.311 0.024 0.453 -1.495 0.311 -0.023 0.692 1.407zm-0.581 -0.535l-0.243 -0.522 -0.155 0.552 0.398 -0.03zm0.74 0.575l0.183 -1.444 0.468 0.059c0.177,0.023 0.291,0.044 0.343,0.066 0.08,0.032 0.143,0.088 0.19,0.168 0.046,0.079 0.062,0.177 0.048,0.292 -0.011,0.088 -0.037,0.16 -0.077,0.217 -0.04,0.056 -0.086,0.099 -0.14,0.127 -0.054,0.028 -0.107,0.044 -0.16,0.049 -0.071,0.005 -0.172,-0.001 -0.304,-0.018l-0.19 -0.024 -0.069 0.545 -0.292 -0.037zm0.445 -1.163l-0.053 0.411 0.159 0.021c0.115,0.014 0.192,0.016 0.233,0.006 0.04,-0.01 0.074,-0.03 0.1,-0.06 0.025,-0.029 0.041,-0.065 0.047,-0.108 0.007,-0.053 -0.003,-0.098 -0.03,-0.137 -0.026,-0.038 -0.062,-0.064 -0.108,-0.079 -0.034,-0.011 -0.103,-0.023 -0.208,-0.036l-0.14 -0.018zm1.942 1.824l-0.296 -0.116 0.005 -0.354 -0.543 -0.215 -0.234 0.264 -0.29 -0.114 1.059 -1.147 0.29 0.114 0.009 1.568zm-0.29 -0.734l0.01 -0.576 -0.381 0.429 0.371 0.147zm0.42 0.834l0.844 -1.186 0.24 0.171 -0.332 0.467 0.467 0.332 0.332 -0.467 0.24 0.171 -0.843 1.186 -0.24 -0.171 0.368 -0.518 -0.467 -0.333 -0.369 0.519 -0.24 -0.171zm1.374 1.148l0.915 -0.792 -0.283 -0.326 0.186 -0.161 0.756 0.873 -0.186 0.161 -0.28 -0.324 -0.915 0.792 -0.193 -0.223zm1.878 0.051l0.125 0.245 -0.862 0.441 1.131 0.083 0.133 0.261 -1.295 0.664 -0.125 -0.245 0.848 -0.434 -1.117 -0.09 -0.133 -0.261 1.295 -0.664zm0.751 1.658l0.062 0.268 -0.944 0.218 1.077 0.356 0.065 0.286 -1.418 0.327 -0.062 -0.267 0.929 -0.215 -1.061 -0.36 -0.066 -0.285 1.418 -0.328z"/>
     <path class="fil0" d="M2.675 11.621l0.016 0.297c-0.166,0.014 -0.303,-0.014 -0.411,-0.083 -0.107,-0.069 -0.188,-0.176 -0.241,-0.323 -0.066,-0.182 -0.059,-0.354 0.023,-0.516 0.081,-0.162 0.23,-0.282 0.445,-0.361 0.228,-0.083 0.427,-0.088 0.595,-0.017 0.169,0.072 0.289,0.204 0.358,0.395 0.061,0.168 0.061,0.322 0,0.462 -0.036,0.084 -0.103,0.161 -0.201,0.232l-0.165 -0.249c0.065,-0.042 0.109,-0.096 0.131,-0.163 0.022,-0.066 0.02,-0.136 -0.007,-0.209 -0.036,-0.102 -0.103,-0.171 -0.199,-0.207 -0.095,-0.037 -0.225,-0.026 -0.388,0.033 -0.172,0.063 -0.284,0.139 -0.335,0.228 -0.051,0.089 -0.058,0.183 -0.021,0.283 0.026,0.073 0.073,0.128 0.139,0.164 0.066,0.036 0.153,0.048 0.261,0.034zm1.006 0.68l-0.118 -0.27c0.227,-0.093 0.427,-0.023 0.6,0.208 0.102,0.137 0.149,0.263 0.141,0.378 -0.009,0.114 -0.053,0.202 -0.135,0.263 -0.056,0.041 -0.118,0.063 -0.187,0.065 -0.068,0.001 -0.143,-0.017 -0.225,-0.055 0.031,0.097 0.037,0.183 0.017,0.258 -0.02,0.075 -0.065,0.139 -0.136,0.192 -0.103,0.077 -0.214,0.101 -0.333,0.073 -0.119,-0.028 -0.235,-0.116 -0.347,-0.266 -0.091,-0.122 -0.143,-0.233 -0.154,-0.334 -0.012,-0.101 0.024,-0.211 0.11,-0.33l0.23 0.162c-0.054,0.075 -0.077,0.139 -0.07,0.191 0.007,0.053 0.031,0.106 0.071,0.161 0.056,0.074 0.112,0.116 0.17,0.126 0.058,0.01 0.107,0 0.149,-0.031 0.048,-0.036 0.072,-0.084 0.073,-0.145 0.001,-0.06 -0.028,-0.129 -0.086,-0.206l-0.04 -0.054 0.176 -0.131 0.02 0.027c0.054,0.072 0.111,0.115 0.172,0.128 0.061,0.015 0.118,0.001 0.172,-0.039 0.042,-0.031 0.067,-0.074 0.073,-0.127 0.006,-0.052 -0.013,-0.107 -0.055,-0.165 -0.074,-0.098 -0.17,-0.125 -0.288,-0.079zm0.774 2.362l-0.234 -0.215 0.132 -0.329 -0.43 -0.395 -0.313 0.162 -0.23 -0.211 1.401 -0.689 0.229 0.21 -0.555 1.467zm-0.006 -0.79l0.215 -0.534 -0.509 0.264 0.294 0.27zm0.873 -0.375l0.941 0.546 -0.123 0.213 -0.686 -0.398 -0.169 0.292 0.339 0.197c0.094,0.054 0.165,0.111 0.213,0.169 0.049,0.059 0.077,0.132 0.085,0.219 0.008,0.087 -0.012,0.172 -0.06,0.255 -0.049,0.085 -0.114,0.145 -0.193,0.18 -0.079,0.035 -0.153,0.048 -0.223,0.037 -0.069,-0.01 -0.156,-0.046 -0.26,-0.106l-0.594 -0.345 0.73 -1.259zm-0.351 1.195l0.247 0.143c0.078,0.046 0.136,0.074 0.173,0.085 0.036,0.011 0.074,0.01 0.114,-0.004 0.039,-0.013 0.07,-0.039 0.093,-0.079 0.034,-0.058 0.037,-0.112 0.011,-0.162 -0.026,-0.05 -0.089,-0.104 -0.19,-0.163l-0.258 -0.149 -0.19 0.329zm1.061 0.083c0.047,-0.14 0.108,-0.251 0.183,-0.333 0.055,-0.059 0.119,-0.108 0.192,-0.146 0.073,-0.037 0.147,-0.059 0.22,-0.064 0.099,-0.008 0.204,0.008 0.316,0.046 0.204,0.068 0.345,0.186 0.425,0.354 0.079,0.167 0.081,0.364 0.005,0.589 -0.075,0.223 -0.195,0.377 -0.358,0.462 -0.164,0.085 -0.347,0.094 -0.55,0.025 -0.205,-0.069 -0.347,-0.187 -0.426,-0.353 -0.079,-0.166 -0.081,-0.359 -0.007,-0.58zm0.29 0.088c-0.053,0.156 -0.056,0.287 -0.011,0.392 0.045,0.105 0.123,0.177 0.234,0.214 0.111,0.038 0.216,0.028 0.315,-0.027 0.098,-0.057 0.174,-0.165 0.228,-0.325 0.054,-0.158 0.059,-0.288 0.015,-0.389 -0.043,-0.102 -0.122,-0.172 -0.237,-0.211 -0.115,-0.038 -0.221,-0.03 -0.318,0.025 -0.097,0.055 -0.172,0.162 -0.226,0.321zm1.373 1.126l0.155 -1.199 -0.428 -0.055 0.031 -0.244 1.146 0.147 -0.032 0.244 -0.425 -0.055 -0.154 1.2 -0.293 -0.038zm2.094 0.064l-0.318 0.007 -0.132 -0.329 -0.584 0.012 -0.114 0.334 -0.312 0.006 0.536 -1.467 0.311 -0.006 0.613 1.443zm-0.551 -0.566l-0.213 -0.534 -0.185 0.542 0.398 -0.008zm0.383 -0.904l0.268 -0.061 0.218 0.944 0.356 -1.077 0.286 -0.066 0.327 1.419 -0.268 0.061 -0.214 -0.929 -0.36 1.062 -0.285 0.066 -0.328 -1.419zm0.639 -0.579l0.132 -0.03c0.013,0.089 -0.002,0.165 -0.044,0.227 -0.043,0.063 -0.107,0.104 -0.192,0.123 -0.086,0.02 -0.161,0.011 -0.227,-0.026 -0.065,-0.038 -0.112,-0.099 -0.14,-0.185l0.133 -0.031c0.015,0.045 0.039,0.076 0.072,0.093 0.033,0.017 0.076,0.019 0.129,0.007 0.053,-0.012 0.09,-0.033 0.112,-0.063 0.023,-0.03 0.031,-0.068 0.025,-0.115zm1.216 0.832c-0.075,-0.129 -0.118,-0.248 -0.13,-0.357 -0.009,-0.081 -0.003,-0.162 0.017,-0.241 0.02,-0.08 0.052,-0.149 0.096,-0.208 0.06,-0.079 0.141,-0.148 0.243,-0.208 0.186,-0.108 0.368,-0.136 0.546,-0.085 0.179,0.051 0.327,0.179 0.446,0.384 0.119,0.204 0.156,0.395 0.112,0.574 -0.044,0.18 -0.159,0.323 -0.344,0.43 -0.187,0.109 -0.369,0.138 -0.546,0.088 -0.177,-0.051 -0.324,-0.176 -0.44,-0.377zm0.257 -0.161c0.082,0.143 0.178,0.232 0.287,0.268 0.109,0.035 0.214,0.023 0.315,-0.036 0.102,-0.059 0.164,-0.143 0.187,-0.254 0.023,-0.111 -0.008,-0.24 -0.093,-0.386 -0.084,-0.145 -0.178,-0.234 -0.283,-0.268 -0.105,-0.035 -0.209,-0.021 -0.314,0.04 -0.105,0.06 -0.169,0.146 -0.192,0.255 -0.022,0.109 0.009,0.236 0.093,0.381zm0.872 -1.415l0.393 -0.43c0.078,-0.085 0.14,-0.145 0.185,-0.181 0.045,-0.035 0.094,-0.059 0.147,-0.071 0.052,-0.013 0.107,-0.013 0.165,-0.001 0.057,0.012 0.109,0.04 0.155,0.082 0.05,0.046 0.084,0.102 0.101,0.167 0.018,0.065 0.015,0.13 -0.006,0.196 0.079,-0.048 0.157,-0.068 0.235,-0.061 0.078,0.007 0.148,0.039 0.211,0.096 0.049,0.045 0.086,0.099 0.111,0.164 0.026,0.065 0.034,0.13 0.026,0.195 -0.009,0.065 -0.036,0.129 -0.082,0.192 -0.029,0.04 -0.107,0.129 -0.232,0.268l-0.335 0.366 -1.074 -0.982zm0.378 -0.055l0.247 0.227 0.13 -0.142c0.077,-0.084 0.124,-0.138 0.14,-0.161 0.03,-0.041 0.044,-0.082 0.042,-0.122 -0.002,-0.041 -0.02,-0.077 -0.054,-0.108 -0.034,-0.031 -0.069,-0.046 -0.106,-0.047 -0.038,-0.001 -0.075,0.015 -0.112,0.047 -0.023,0.02 -0.08,0.08 -0.173,0.182l-0.114 0.124zm0.426 0.39l0.288 0.264 0.184 -0.201c0.071,-0.078 0.114,-0.13 0.129,-0.155 0.024,-0.038 0.033,-0.077 0.029,-0.118 -0.004,-0.041 -0.025,-0.079 -0.063,-0.114 -0.033,-0.03 -0.067,-0.047 -0.104,-0.052 -0.037,-0.005 -0.074,0.002 -0.111,0.023 -0.038,0.02 -0.102,0.079 -0.192,0.178l-0.16 0.175zm1.934 -1.445l-0.184 0.258 -0.343 -0.089 -0.338 0.475 0.199 0.291 -0.181 0.254 -0.857 -1.305 0.181 -0.254 1.523 0.37zm-0.782 0.104l-0.557 -0.148 0.325 0.472 0.232 -0.324zm0.625 -1.28l0.181 -0.237c0.135,0.097 0.222,0.207 0.259,0.329 0.038,0.122 0.03,0.257 -0.025,0.403 -0.067,0.182 -0.184,0.308 -0.351,0.379 -0.167,0.07 -0.358,0.066 -0.573,-0.014 -0.228,-0.084 -0.382,-0.208 -0.465,-0.372 -0.082,-0.164 -0.088,-0.341 -0.017,-0.533 0.062,-0.167 0.162,-0.284 0.299,-0.352 0.082,-0.04 0.183,-0.056 0.304,-0.046l-0.036 0.296c-0.077,-0.009 -0.145,0.003 -0.205,0.039 -0.06,0.037 -0.104,0.091 -0.131,0.165 -0.037,0.101 -0.032,0.197 0.018,0.286 0.049,0.091 0.155,0.166 0.318,0.226 0.172,0.064 0.306,0.078 0.402,0.043 0.097,-0.035 0.163,-0.102 0.2,-0.202 0.027,-0.073 0.027,-0.145 0,-0.215 -0.027,-0.07 -0.086,-0.135 -0.178,-0.195z"/>
    </g>
    <g>
     <circle class="fil1" cx="2.391" cy="9.169" r="0.31"/>
     <circle class="fil1" cx="15.281" cy="9.169" r="0.31"/>
    </g>
    <text x="6.18" y="11.899"  class="fil1 fnt0">5</text>
   </g>
   <rect class="fil2" width="17.675" height="17.675"/>
  </g>
 </g>
</svg>
