<?xml version="1.0" encoding="UTF-8"?>
<!DOCTYPE svg PUBLIC "-//W3C//DTD SVG 1.1//EN" "http://www.w3.org/Graphics/SVG/1.1/DTD/svg11.dtd">
<!-- Creator: it-genn.ru -->
<svg xmlns="http://www.w3.org/2000/svg" xml:space="preserve" width="500px" height="500px" version="1.1" style="shape-rendering:geometricPrecision; text-rendering:geometricPrecision; image-rendering:optimizeQuality; fill-rule:evenodd; clip-rule:evenodd"
viewBox="0 0 36.719 36.719"
 xmlns:xlink="http://www.w3.org/1999/xlink"
 xmlns:xodm="http://it-genn.ru">
 <defs>
  <style type="text/css">
   <![CDATA[
    .fil1 {fill:none}
    .fil0 {fill:gray}
   ]]>
  </style>
 </defs>
 <g id="genn-art_x0020_1">
  <metadata id="it-genn-ru-Layer"/>
  <g id="_2480889864944">
   <path class="fil0" d="M27.655 6.114c0.062,0.022 0.119,0.059 0.167,0.112 0.003,0.002 0.005,0.005 0.007,0.007 0.061,0.041 0.116,0.077 0.159,0.106 0.515,0.344 1.059,0.694 1.487,1.145 1.169,1.231 0.659,2.449 -0.286,3.454l1.098 0c0.84,0 1.526,0.686 1.526,1.526l0 4.316c0,0.784 -0.598,1.434 -1.361,1.517l0 13.226c0,1.041 -0.85,1.891 -1.891,1.891l-20.403 0c-1.041,0 -1.891,-0.85 -1.891,-1.891l0 -13.226c-0.763,-0.083 -1.361,-0.733 -1.361,-1.517l0 -4.316c0,-0.84 0.686,-1.526 1.526,-1.526l1.098 0c-0.945,-1.005 -1.455,-2.223 -0.286,-3.454 0.428,-0.451 0.972,-0.801 1.487,-1.145 0.043,-0.029 0.097,-0.065 0.159,-0.106 0.002,-0.002 0.004,-0.005 0.007,-0.007 0.048,-0.053 0.105,-0.09 0.167,-0.112 0.238,-0.169 0.504,-0.377 0.584,-0.534 0.083,-0.163 0.053,-0.382 0.043,-0.558 -0.02,-0.396 0.032,-0.718 0.297,-1.035 0.569,-0.678 1.686,-0.912 2.442,-0.42 1.996,1.3 3.532,3.073 4.942,4.964l1.975 0c1.41,-1.891 2.946,-3.664 4.942,-4.964 0.756,-0.492 1.873,-0.258 2.442,0.42 0.265,0.317 0.317,0.639 0.296,1.035 -0.009,0.176 -0.039,0.395 0.044,0.558 0.08,0.157 0.345,0.365 0.584,0.534zm-6.896 2.994c1.726,-1.361 3.738,-2.194 5.847,-2.788 -0.112,-0.115 -0.207,-0.237 -0.272,-0.364 -0.171,-0.336 -0.151,-0.619 -0.133,-0.976 0.009,-0.175 0.014,-0.32 -0.104,-0.461 -0.3,-0.358 -0.953,-0.521 -1.357,-0.258 -1.764,1.149 -3.159,2.702 -4.425,4.36 0.203,0.099 0.363,0.274 0.444,0.487zm0.057 1.028l0 0.585c1.806,-0.734 4.67,-2.052 5.86,-3.561 -2.133,0.614 -4.169,1.493 -5.86,2.976zm1.601 0.802l5.563 0c0.518,-0.433 1.207,-1.104 1.326,-1.76 0.08,-0.448 -0.131,-0.809 -0.431,-1.124 -0.334,-0.351 -0.776,-0.648 -1.188,-0.922 -0.884,1.579 -3.253,2.898 -5.27,3.806zm7.207 7.368l-7.696 0 0 14.281 6.633 0c0.584,0 1.063,-0.48 1.063,-1.064l0 -13.217zm0.414 -0.828l0.249 0c0.384,0 0.699,-0.315 0.699,-0.698l0 -4.316c0,-0.383 -0.315,-0.699 -0.699,-0.699l-8.359 0 0 5.713 8.11 0zm-15.736 -6.54c-2.017,-0.908 -4.386,-2.227 -5.27,-3.806 -0.412,0.274 -0.854,0.571 -1.188,0.922 -0.3,0.315 -0.511,0.676 -0.431,1.124 0.119,0.656 0.808,1.327 1.326,1.76l5.563 0zm1.601 -0.217l0 -0.585c-1.691,-1.483 -3.727,-2.362 -5.86,-2.976 1.19,1.509 4.054,2.827 5.86,3.561zm0.057 -1.613c0.081,-0.213 0.241,-0.388 0.444,-0.487 -1.266,-1.658 -2.661,-3.211 -4.425,-4.36 -0.404,-0.263 -1.057,-0.1 -1.357,0.258 -0.118,0.141 -0.113,0.286 -0.104,0.461 0.018,0.357 0.038,0.64 -0.133,0.976 -0.065,0.127 -0.16,0.249 -0.272,0.364 2.109,0.594 4.121,1.427 5.847,2.788zm-8.865 9.198l0 13.217c0,0.584 0.479,1.064 1.063,1.064l6.633 0 0 -14.281 -7.696 0zm-0.414 -0.828l8.11 0 0 -5.713 -8.359 0c-0.384,0 -0.699,0.316 -0.699,0.699l0 4.316c0,0.383 0.315,0.698 0.699,0.698l0.249 0zm10.087 -6.54l3.131 0c0.034,0 0.063,-0.029 0.063,-0.063l0 -1.453c0,-0.035 -0.029,-0.064 -0.063,-0.064l-3.131 0c-0.034,0 -0.064,0.029 -0.064,0.064l0 1.453c0,0.034 0.03,0.063 0.064,0.063zm4.306 0.827l-5.481 0 0 20.822 5.481 0 0 -20.822z"/>
   <rect class="fil1" width="36.719" height="36.719"/>
  </g>
 </g>
</svg>
