<?xml version="1.0" encoding="UTF-8"?>
<!DOCTYPE svg PUBLIC "-//W3C//DTD SVG 1.1//EN" "http://www.w3.org/Graphics/SVG/1.1/DTD/svg11.dtd">
<!-- Creator: it-genn.ru -->
<svg xmlns="http://www.w3.org/2000/svg" xml:space="preserve" width="500px" height="500px" version="1.1" style="shape-rendering:geometricPrecision; text-rendering:geometricPrecision; image-rendering:optimizeQuality; fill-rule:evenodd; clip-rule:evenodd"
viewBox="0 0 31.144 31.144"
 xmlns:xlink="http://www.w3.org/1999/xlink"
 xmlns:xodm="http://it-genn.ru">
 <defs>
  <style type="text/css">
   <![CDATA[
    .fil1 {fill:none}
    .fil0 {fill:gray}
   ]]>
  </style>
 </defs>
 <g id="genn-art_x0020_1">
  <metadata id="it-genn-ru-Layer"/>
  <g id="_2477849111968">
   <g>
    <path class="fil0" d="M21.899 6.907l0 -2.166c0,-1.321 1.938,-1.321 1.938,0l0 2.166c0,1.343 -1.938,1.343 -1.938,0zm-7.296 0l0 -2.166c0,-1.321 1.938,-1.321 1.938,0l0 2.166c0,1.343 -1.938,1.343 -1.938,0zm-7.297 0l0 -2.166c0,-1.275 1.938,-1.439 1.938,0.114l0 2.052c0,1.343 -1.938,1.343 -1.938,0zm-0.912 -2.337l0 0.798 -2.337 0c-0.627,0 -1.254,0.627 -1.254,1.254l0 18.584c0,0.668 0.658,1.254 1.539,1.254l11.173 0c0.291,0 0.513,-0.181 0.513,-0.513 0,-0.553 -0.648,-0.457 -1.197,-0.456l-9.976 0c-0.666,0 -1.14,0.133 -1.14,-0.57l0 -14.48 15.448 0c0.389,0 0.55,-0.912 -0.114,-0.912l-15.334 0 0 -2.736c0,-0.282 0.231,-0.513 0.513,-0.513l2.166 0 0 0.798c0,0.964 0.815,1.767 1.995,1.767 0.908,0 1.767,-0.859 1.767,-1.767l0 -0.798 3.535 0 0 0.798c0,0.964 0.815,1.767 1.995,1.767 0.908,0 1.767,-0.859 1.767,-1.767l0 -0.798 3.534 0 0 0.798c0,0.964 0.815,1.767 1.995,1.767 0.909,0 1.768,-0.859 1.768,-1.767l0 -0.798 2.166 0c0.281,0 0.513,0.231 0.513,0.513l0 2.736 -3.022 0c-0.611,0 -0.611,0.912 0,0.912l3.022 0 0 5.929c0,0.148 0.043,0.252 0.127,0.329 0.177,0.16 0.481,0.16 0.657,0 0.085,-0.077 0.128,-0.181 0.128,-0.329l0 -9.748c0,-0.627 -0.627,-1.254 -1.254,-1.254l-2.337 0 0 -0.798c0,-0.963 -0.815,-1.767 -1.996,-1.767 -0.908,0 -1.767,0.859 -1.767,1.767l0 0.798 -3.534 0 0 -0.798c0,-0.963 -0.815,-1.767 -1.995,-1.767 -0.908,0 -1.767,0.859 -1.767,1.767l0 0.798 -3.535 0 0 -0.798c0,-0.963 -0.814,-1.767 -1.995,-1.767 -0.908,0 -1.767,0.859 -1.767,1.767z"/>
    <path class="fil0" d="M22.127 25.947c-0.233,0 -2.325,-1.323 -2.682,-1.536 -1.121,-0.671 -1.035,-0.556 0.058,-2.228 0.426,-0.652 0.649,-0.259 2.111,0.514 0.226,-0.151 1.831,-2.492 2.042,-2.804 0.12,-0.177 0.202,-0.292 0.328,-0.469 0.486,-0.687 0.636,-0.367 1.484,0.218 0.181,0.125 0.294,0.208 0.47,0.328 0.603,0.412 0.091,0.802 -0.356,1.45 -0.933,1.352 -2.089,2.884 -2.974,4.209 -0.118,0.176 -0.216,0.318 -0.481,0.318zm-5.301 -6.214c0,0.141 -0.256,0.773 -0.319,0.993 -1.037,3.643 1.772,7.615 5.563,7.615 1.988,0 3.324,-0.559 4.518,-1.753 0.853,-0.853 1.753,-2.327 1.753,-4.005 0,-1.121 -0.068,-1.857 -0.57,-2.85 -0.644,-1.274 -1.513,-2.187 -2.812,-2.832 -1.139,-0.566 -1.844,-0.588 -3.06,-0.588 -0.711,0 -1.237,0.227 -1.772,0.394 -0.547,0.17 -1.341,0.119 -2.047,0.119 -0.892,0 -1.458,-0.213 -1.366,0.794 0.062,0.677 0.112,1.361 0.112,2.113z"/>
    <path class="fil0" d="M5.881 19.391l4.332 0 0 3.648 -4.332 0 0 -3.648zm-0.969 -0.456l0 4.56c0,0.282 0.231,0.513 0.513,0.513l5.245 0c0.281,0 0.513,-0.231 0.513,-0.513l0 -4.56c0,-0.282 -0.232,-0.513 -0.513,-0.513l-5.245 0c-0.282,0 -0.513,0.231 -0.513,0.513z"/>
    <path class="fil0" d="M5.881 12.608l4.332 0 0 3.705 -4.332 0 0 -3.705zm-0.969 -0.342l0 4.446c0,0.235 0.192,0.513 0.399,0.513l5.473 0c0.207,0 0.399,-0.278 0.399,-0.513l0 -4.56c0,-0.35 -0.272,-0.513 -0.628,-0.513l-5.016 0c-0.427,0 -0.627,0.199 -0.627,0.627z"/>
    <path class="fil0" d="M12.437 12.323l0 4.275c0,0.274 0.156,0.627 0.399,0.627l2.28 0c0.091,0 0.199,-0.083 0.255,-0.144 0.297,-0.323 0.093,-0.768 -0.312,-0.768l-1.653 0 0 -3.705 4.332 0 0 2.622c0,0.92 0.969,0.786 0.969,0.171l0 -3.249c0,-0.35 -0.271,-0.513 -0.627,-0.513l-5.073 0c-0.388,0 -0.57,0.29 -0.57,0.684z"/>
    <path class="fil0" d="M20.018 12.038l0 3.135c0,0.612 0.912,0.612 0.912,0l0 -2.565 4.39 0 0 3.306c0,0.148 0.043,0.252 0.127,0.328 0.276,0.252 0.785,0.098 0.785,-0.328l0 -3.876c0,-0.243 -0.353,-0.399 -0.627,-0.399l-4.96 0c-0.274,0 -0.627,0.156 -0.627,0.399z"/>
    <path class="fil0" d="M12.437 19.163l0 4.104c0,0.41 0.106,0.741 0.513,0.741l2.28 0c0.629,0 0.759,-0.969 -0.114,-0.969l-1.71 0 0 -3.648 1.767 0c0.683,0 0.734,-0.969 0.057,-0.969l-2.28 0c-0.407,0 -0.513,0.331 -0.513,0.741z"/>
    <path class="fil0" d="M22.013 9.871c0,0.516 0.111,0.627 0.627,0.627 0.422,0 0.71,-1.026 -0.228,-1.026 -0.158,0 -0.399,0.241 -0.399,0.399z"/>
    <path class="fil0" d="M20.417 9.985c0,0.687 1.026,0.686 1.026,0.057 0,-0.825 -1.026,-0.676 -1.026,-0.057z"/>
   </g>
   <rect class="fil1" width="31.144" height="31.144"/>
  </g>
 </g>
</svg>
