<?xml version="1.0" encoding="UTF-8"?>
<!DOCTYPE svg PUBLIC "-//W3C//DTD SVG 1.1//EN" "http://www.w3.org/Graphics/SVG/1.1/DTD/svg11.dtd">
<!-- Creator: it-genn.ru -->
<svg xmlns="http://www.w3.org/2000/svg" xml:space="preserve" width="500px" height="500px" version="1.1" style="shape-rendering:geometricPrecision; text-rendering:geometricPrecision; image-rendering:optimizeQuality; fill-rule:evenodd; clip-rule:evenodd"
viewBox="0 0 19.371 19.371"
 xmlns:xlink="http://www.w3.org/1999/xlink"
 xmlns:xodm="http://it-genn.ru">
 <defs>
  <style type="text/css">
   <![CDATA[
    .fil1 {fill:none}
    .fil0 {fill:gray}
   ]]>
  </style>
 </defs>
 <g id="genn-art_x0020_1">
  <metadata id="it-genn-ru-Layer"/>
  <g id="_2477762181152">
   <g>
    <path class="fil0" d="M11.237 15.793c1.156,0 2.199,-0.034 3.356,-0.034l2.25 0 0 1.245 -5.606 0 0 -1.211zm0 -6.99l0 -1.142 5.606 0c0,0.801 0.091,1.55 -0.276,2.25 -0.116,0.221 -1.127,1.307 -1.338,1.5 -0.215,0.197 -0.566,0.545 -0.566,0.852 0,0.522 0.152,0.524 0.45,0.865l0.706 0.747c0.108,0.089 0.064,0.062 0.151,0.161 0.102,0.117 0.19,0.18 0.284,0.304 0.171,0.222 0.356,0.357 0.45,0.761 -0.48,0 -0.834,0.035 -1.315,0.035l-4.049 0c0.068,-0.14 0.107,-0.257 0.185,-0.404 0.095,-0.179 0.138,-0.196 0.255,-0.333l0.867 -0.932c0.069,-0.07 0.089,-0.112 0.142,-0.17 0.076,-0.084 0.087,-0.055 0.168,-0.144l0.279 -0.309c0.252,-0.266 0.255,-0.77 -0.035,-1.057 -0.094,-0.092 -1.561,-1.642 -1.677,-1.853 -0.165,-0.302 -0.287,-0.677 -0.287,-1.131zm-0.623 -1.488l0 1.834c0,0.413 0.157,0.727 0.3,1.015 0.24,0.486 1.157,1.361 1.56,1.796l0.32 0.373c-0.07,0.132 -0.2,0.252 -0.303,0.354l-0.658 0.692c-0.073,0.079 -0.082,0.112 -0.155,0.191 -0.457,0.495 -1.064,1.011 -1.064,2.016l0 1.765c0,0.167 0.109,0.276 0.277,0.276l6.298 0c0.167,0 0.277,-0.109 0.277,-0.276l0 -1.765c0,-0.539 -0.251,-1.087 -0.539,-1.469 -0.117,-0.156 -0.214,-0.22 -0.335,-0.357l-0.481 -0.522c-0.164,-0.206 -0.715,-0.741 -0.825,-0.905 0.065,-0.124 0.054,-0.077 0.137,-0.175 0.327,-0.385 1.214,-1.248 1.469,-1.575 0.139,-0.178 0.162,-0.209 0.274,-0.419l0.209 -0.483c0.151,-0.506 0.091,-1.754 0.091,-2.366 0,-0.168 -0.11,-0.277 -0.277,-0.277l-6.298 0c-0.168,0 -0.277,0.109 -0.277,0.277z"/>
    <path class="fil0" d="M1.893 6.83c0,1.311 0.216,2.154 0.928,3.226 0.175,0.263 0.506,0.639 0.733,0.858 0.8,0.768 2.178,1.419 3.322,1.419 0.628,0 0.938,0.022 1.572,-0.124l0.827 -0.281c0.253,-0.107 1.304,-0.594 1.304,-0.945 0,-0.303 -0.146,-0.346 -0.381,-0.346 -0.079,0 -0.57,0.413 -0.924,0.563 -0.148,0.063 -0.22,0.11 -0.355,0.165 -1.098,0.443 -2.547,0.464 -3.6,-0.07l-0.755 -0.422c-0.74,-0.458 -1.222,-1.134 -1.598,-1.898 -0.556,-1.129 -0.592,-2.715 -0.035,-3.806 0.117,-0.228 0.12,-0.315 0.292,-0.573 0.187,-0.278 0.413,-0.6 0.651,-0.837 0.454,-0.452 0.851,-0.68 1.399,-0.954 1.07,-0.534 2.682,-0.582 3.738,-0.047 0.364,0.185 0.678,0.298 1.041,0.62 0.214,0.189 0.322,0.209 0.586,0.521 0.473,0.559 0.555,0.754 0.853,1.362 0.061,0.125 0.106,0.262 0.147,0.407 0.081,0.285 0.096,0.713 0.429,0.713 0.171,0 0.294,-0.103 0.328,-0.262 0.068,-0.327 -0.452,-1.509 -0.646,-1.808 -0.271,-0.42 -0.303,-0.414 -0.528,-0.718 -0.041,-0.056 -0.093,-0.137 -0.134,-0.177 -0.077,-0.075 -0.088,-0.048 -0.167,-0.144l-0.673 -0.573c-0.83,-0.547 -1.754,-0.956 -2.782,-0.956 -1.012,0 -1.679,0.058 -2.573,0.508 -0.443,0.223 -0.955,0.546 -1.308,0.871 -0.086,0.079 -0.062,0.1 -0.163,0.184 -0.179,0.148 -0.135,0.122 -0.297,0.326 -0.103,0.131 -0.177,0.203 -0.276,0.347 -0.565,0.821 -0.955,1.827 -0.955,2.851z"/>
    <path class="fil0" d="M4.696 9.184c0,0.264 0.081,0.346 0.346,0.346 0.189,0 0.439,-0.318 0.632,-0.511l3.772 -3.772c0.108,-0.107 0.371,-0.33 0.157,-0.59 -0.193,-0.235 -0.444,-0.062 -0.59,0.088l-3.789 3.79c-0.191,0.191 -0.528,0.459 -0.528,0.649z"/>
    <path class="fil0" d="M8.122 8.595c0,-0.605 0.894,-0.889 1.178,-0.243 0.222,0.504 -0.294,1.02 -0.798,0.798 -0.175,-0.076 -0.38,-0.314 -0.38,-0.555zm-0.623 -0.104l0 0.208c0,0.58 0.563,1.142 1.142,1.142l0.208 0c0.581,0 1.142,-0.553 1.142,-1.142 0,-0.45 -0.031,-0.665 -0.354,-0.996 -0.715,-0.73 -2.138,-0.281 -2.138,0.788z"/>
    <path class="fil0" d="M5.631 6.104c-0.606,0 -0.89,-0.894 -0.244,-1.178 0.642,-0.283 1.197,0.595 0.596,1.046 -0.062,0.047 -0.262,0.132 -0.352,0.132zm-1.246 -0.727c0,0.45 0.03,0.665 0.353,0.996 0.729,0.745 2.138,0.253 2.138,-0.788 0,-0.451 -0.03,-0.666 -0.353,-0.996 -0.474,-0.484 -1.295,-0.48 -1.785,0 -0.186,0.182 -0.353,0.432 -0.353,0.788z"/>
   </g>
   <rect class="fil1" width="19.371" height="19.371"/>
  </g>
 </g>
</svg>
