<?xml version="1.0" encoding="UTF-8"?>
<!DOCTYPE svg PUBLIC "-//W3C//DTD SVG 1.1//EN" "http://www.w3.org/Graphics/SVG/1.1/DTD/svg11.dtd">
<!-- Creator: it-genn.ru -->
<svg xmlns="http://www.w3.org/2000/svg" xml:space="preserve" width="500px" height="300px" version="1.1" style="shape-rendering:geometricPrecision; text-rendering:geometricPrecision; image-rendering:optimizeQuality; fill-rule:evenodd; clip-rule:evenodd"
viewBox="0 0 33.467 20.08"
 xmlns:xlink="http://www.w3.org/1999/xlink"
 xmlns:xodm="http://it-genn.ru">
 <defs>
  <style type="text/css">
   <![CDATA[
    .fil1 {fill:none}
    .fil0 {fill:white}
   ]]>
  </style>
 </defs>
 <g id="genn-art_x0020_1">
  <metadata id="it-genn-ru-Layer"/>
  <g id="_2480411314704">
   <path class="fil0" d="M6.731 7.198c0.565,0 1.091,0.164 1.533,0.448l0.744 -0.547c-0.63,-0.488 -1.419,-0.778 -2.277,-0.778 -2.054,0 -3.719,1.665 -3.719,3.719 0,2.054 1.665,3.719 3.719,3.719 2.054,0 3.719,-1.665 3.719,-3.719 0,-0.234 -0.021,-0.463 -0.063,-0.686l-0.815 0.604c0.001,0.028 0.002,0.055 0.002,0.082 0,1.57 -1.273,2.843 -2.843,2.843 -1.57,0 -2.842,-1.273 -2.842,-2.843 0,-1.57 1.272,-2.842 2.842,-2.842zm2.912 0.528c0.18,0.227 0.335,0.476 0.459,0.742l-3.185 2.362c-0.24,0.178 -0.168,0.152 -0.379,0.027l-1.246 -0.774 0 -1.099c0.247,0.13 0.511,0.298 0.774,0.469l0.655 0.424 2.922 -2.151zm7.193 3.896l-0.632 -0.481c-0.65,0.436 -1.553,0.485 -2.141,-0.099 -0.68,-0.677 -0.489,-1.987 0.409,-2.388 0.516,-0.23 1.092,-0.181 1.567,0.137l0.701 -0.508c-0.028,-0.104 -0.43,-0.333 -0.509,-0.372 -0.929,-0.455 -2.267,-0.264 -2.958,0.52 -0.369,0.418 -0.624,1.08 -0.562,1.64 0.108,0.972 0.447,1.669 1.457,2.075 0.737,0.297 2.195,0.182 2.668,-0.524zm2.927 -0.137l-1.127 0 0 -1.223 1.141 0c0.336,0 0.756,0.154 0.756,0.536 0,0.507 -0.279,0.687 -0.77,0.687zm0.193 0.754c0.689,0.025 1.413,-0.446 1.511,-1.153 0.111,-0.808 -0.267,-1.379 -1.093,-1.545 -0.459,-0.092 -1.196,-0.049 -1.738,-0.049l0 -0.989c0.601,0 1.201,0.002 1.802,0.001 0.102,-0.001 0.176,-0.076 0.291,-0.162l0.782 -0.582c-0.033,-0.02 -0.032,-0.015 -0.098,-0.014 -1.241,0 -2.519,0.037 -3.754,-0.001l-0.001 4.495 2.298 -0.001zm5.827 -0.741l-2.429 0.001 -0.001 -1.154 2.072 -0.002 0 -0.755 -2.061 0 0 -1.085 1.196 0c0.226,0 0.177,0.018 0.314,-0.085l0.886 -0.653c0.021,-0.021 0.011,0 0.023,-0.032 -0.269,0 -3.371,-0.012 -3.402,0.006 -0.027,0.015 -0.006,0.055 -0.007,0.159l0 4.178c0.001,0.232 -0.089,0.178 0.371,0.178l2.296 0c0.106,0 0.703,0.028 0.743,-0.012 0.018,-0.017 0.018,-0.659 0.012,-0.702 -0.003,-0.01 -0.008,-0.033 -0.013,-0.042zm2.803 -1.291l-0.921 0 0 -1.704 0.962 0c0.684,0 1.043,0.683 0.761,1.269 -0.138,0.288 -0.444,0.435 -0.802,0.435zm1.869 -0.997c0,0.773 -0.204,1.31 -1.022,1.623 -0.434,0.166 -1.303,0.184 -1.768,0.14 -0.034,0.059 -0.014,1.227 -0.012,1.267l-0.962 0 -0.002 -4.494 2.117 0.002c0.453,-0.011 1.041,0.254 1.322,0.601 0.192,0.238 0.301,0.547 0.327,0.861z"/>
   <rect class="fil1" width="33.467" height="20.08"/>
  </g>
 </g>
</svg>
