<?xml version="1.0" encoding="UTF-8"?>
<!DOCTYPE svg PUBLIC "-//W3C//DTD SVG 1.1//EN" "http://www.w3.org/Graphics/SVG/1.1/DTD/svg11.dtd">
<!-- Creator: it-genn.ru -->
<svg xmlns="http://www.w3.org/2000/svg" xml:space="preserve" width="500px" height="300px" version="1.1" style="shape-rendering:geometricPrecision; text-rendering:geometricPrecision; image-rendering:optimizeQuality; fill-rule:evenodd; clip-rule:evenodd"
viewBox="0 0 20.402 12.241"
 xmlns:xlink="http://www.w3.org/1999/xlink"
 xmlns:xodm="https://it-genn.ru">
 <defs>
  <style type="text/css">
   <![CDATA[
    .fil1 {fill:none}
    .fil0 {fill:white}
   ]]>
  </style>
 </defs>
 <g id="genn-art_x0020_1">
  <metadata id="it-genn-ru-Layer"/>
  <g id="_2478158314560">
   <path class="fil0" d="M5.107 8.057l0 -0.903 0.714 0.414 -0.714 0.489zm-2.406 -1.504l0 -0.865 0.714 0.414 -0.714 0.451zm2.406 -1.466l0 -0.903 0.714 0.414 -0.714 0.489zm-0.865 0.488l-2.406 -1.391 0 3.873 2.406 -1.391 0 2.932 3.233 -1.992 -2.368 -1.504 2.368 -1.466 -3.233 -1.993 0 2.932zm8.271 0.677c0,-0.822 1.241,-0.879 1.241,0 0,0.62 -0.693,0.799 -1.046,0.445 -0.107,-0.107 -0.195,-0.296 -0.195,-0.445zm-1.165 -0.601c0,2.333 2.07,2.38 3.002,1.687 0.675,-0.502 0.678,-1.561 0.185,-2.092 -0.422,-0.455 -1.249,-0.531 -1.734,-0.322 -0.15,0.064 -0.212,0.16 -0.363,0.2 0.027,-0.325 0.344,-0.6 0.61,-0.706 0.289,-0.115 0.935,-0.046 1.307,-0.046 0.095,-0.179 0.457,-0.8 0.489,-0.939 -0.281,0 -0.397,0.039 -0.676,0.038 -0.748,-0.005 -1.312,-0.074 -1.859,0.284 -0.536,0.352 -0.961,1.029 -0.961,1.896zm4.022 1.955l1.091 0 0 -2.143 1.015 0 0 2.143 0.977 0c0.087,0 0.113,-0.027 0.113,-0.113l0 -2.857c0,-0.087 -0.026,-0.113 -0.113,-0.113l-3.083 0 0 3.083zm-7.331 -1.504c0,0.901 0.789,1.579 1.655,1.579 0.516,0 0.773,-0.016 1.24,-0.263 -0.046,-0.199 -0.328,-0.545 -0.376,-0.752 -0.301,0.025 -0.276,0.15 -0.789,0.15 -0.964,0 -0.965,-1.466 0.075,-1.466 0.283,0 0.514,0.183 0.752,0.188l0.376 -0.752c-0.442,-0.603 -2.933,-0.496 -2.933,1.316z"/>
   <rect class="fil1" width="20.402" height="12.241"/>
  </g>
 </g>
</svg>
