<?xml version="1.0" encoding="UTF-8"?>
<!DOCTYPE svg PUBLIC "-//W3C//DTD SVG 1.1//EN" "http://www.w3.org/Graphics/SVG/1.1/DTD/svg11.dtd">
<!-- Creator: it-genn.ru -->
<svg xmlns="http://www.w3.org/2000/svg" xml:space="preserve" width="500px" height="500px" version="1.1" style="shape-rendering:geometricPrecision; text-rendering:geometricPrecision; image-rendering:optimizeQuality; fill-rule:evenodd; clip-rule:evenodd"
viewBox="0 0 24.276 24.276"
 xmlns:xlink="http://www.w3.org/1999/xlink"
 xmlns:xodm="https://it-genn.ru">
 <defs>
  <style type="text/css">
   <![CDATA[
    .str0 {stroke:white;stroke-width:0.5;stroke-miterlimit:22.9256}
    .fil1 {fill:none}
    .fil0 {fill:none;fill-rule:nonzero}
   ]]>
  </style>
 </defs>
 <g id="genn-art_x0020_1">
  <metadata id="it-genn-ru-Layer"/>
  <g id="_2477762205136">
   <path class="fil0 str0" d="M2.759 2.185l18.758 0c0.354,0 0.642,0.287 0.642,0.642l0 18.622c0,0.354 -0.288,0.642 -0.642,0.642l-18.758 0c-0.354,0 -0.642,-0.288 -0.642,-0.642l0 -18.622c0,-0.355 0.288,-0.642 0.642,-0.642zm19.4 8.49l-6.681 0m6.681 4.483l-6.681 0m6.681 4.011l-6.681 0m0 0l-6.68 0m13.361 -6.038l-6.681 0m6.681 4.029l-6.681 0m6.681 -11.401l-20.042 0m20.042 2.46l-6.681 0m0 -6.034l0 3.574m-2.707 3.11c0,-0.354 0.288,-0.642 0.642,-0.642l0.178 0c0.355,0 0.642,0.288 0.642,0.642l0 7.114 -1.462 0 0 -7.114zm0.732 -0.642l0 -1.438m1.975 0l-13.361 0m1.114 2.17c0,-0.355 0.288,-0.642 0.642,-0.642l0.178 0c0.355,0 0.642,0.287 0.642,0.642l0 3.401 -1.462 0 0 -3.401zm0.731 -0.642l0 -1.528m-1.123 8.64c0,-0.354 0.288,-0.642 0.642,-0.642l0.765 0c0.354,0 0.642,0.288 0.642,0.642l0 0.101 -2.05 0 0.001 -0.101zm1.025 -0.642l0 -1.149m1.954 1.791c0,-0.354 0.288,-0.642 0.642,-0.642l0.765 0c0.355,0 0.642,0.288 0.642,0.642l0 0.101 -2.049 0 0 -0.101zm1.025 -0.642l0 -1.149m2.782 -5.074c0,-0.354 0.288,-0.642 0.642,-0.642l0.766 0c0.354,0 0.642,0.288 0.642,0.642l0 0.101 -2.05 0 0 -0.101zm1.025 -0.642l0 -1.133m-1.852 6.849l-6.681 0m0 7.544l20.042 0m-13.361 0l0 -18.997m6.68 18.997l0 -18.997m2.391 10.946l0 0.006c0,0.1 0.081,0.182 0.181,0.182l1.536 0c0.1,0 0.182,-0.082 0.182,-0.182l0 -0.006m-1.899 2.027l0 0.006c0,0.1 0.081,0.182 0.181,0.182l1.536 0c0.1,0 0.182,-0.082 0.182,-0.182l0 -0.006m-1.899 1.995l0 0.007c0,0.099 0.081,0.181 0.181,0.181l1.536 0c0.1,0 0.182,-0.082 0.182,-0.181l0 -0.007m-1.899 2.01l0 0.006c0,0.1 0.081,0.182 0.181,0.182l1.536 0c0.1,0 0.182,-0.082 0.182,-0.182l0 -0.006m-8.58 0l0 0.006c0,0.1 0.082,0.182 0.182,0.182l1.536 0c0.1,0 0.181,-0.082 0.181,-0.182l0 -0.006"/>
   <rect class="fil1" width="24.276" height="24.276"/>
  </g>
 </g>
</svg>
