<?xml version="1.0" encoding="UTF-8"?>
<!DOCTYPE svg PUBLIC "-//W3C//DTD SVG 1.1//EN" "http://www.w3.org/Graphics/SVG/1.1/DTD/svg11.dtd">
<!-- Creator: it-genn.ru -->
<svg xmlns="http://www.w3.org/2000/svg" xml:space="preserve" width="500px" height="500px" version="1.1" style="shape-rendering:geometricPrecision; text-rendering:geometricPrecision; image-rendering:optimizeQuality; fill-rule:evenodd; clip-rule:evenodd"
viewBox="0 0 36.802 36.802"
 xmlns:xlink="http://www.w3.org/1999/xlink"
 xmlns:xodm="https://it-genn.ru">
 <defs>
  <style type="text/css">
   <![CDATA[
    .str0 {stroke:black;stroke-width:0.074;stroke-miterlimit:22.9256}
    .fil1 {fill:none}
    .fil0 {fill:none;fill-rule:nonzero}
   ]]>
  </style>
 </defs>
 <g id="genn-art_x0020_1">
  <metadata id="it-genn-ru-Layer"/>
  <g id="_2479436897504">
   <path class="fil0 str0" d="M13.467 8.38c0,-2.799 -2.269,-5.068 -5.067,-5.068 -2.799,0 -5.068,2.269 -5.068,5.068 0,2.798 2.269,5.067 5.068,5.067 2.798,0 5.067,-2.269 5.067,-5.067zm20.003 0c0,-2.799 -2.269,-5.068 -5.067,-5.068 -2.799,0 -5.068,2.269 -5.068,5.068 0,2.798 2.269,5.067 5.068,5.067 2.798,0 5.067,-2.269 5.067,-5.067zm-20.003 20.043c0,-2.799 -2.269,-5.068 -5.067,-5.068 -2.799,0 -5.068,2.269 -5.068,5.068 0,2.798 2.269,5.067 5.068,5.067 2.798,0 5.067,-2.269 5.067,-5.067zm0 -20.043l9.868 0m1.722 3.806l-12.917 12.906m1.327 3.331l7.323 0m-12.39 -21.664l0 3.242m19.143 -3.242l0 3.242m1.781 -3.242l0 3.242m-22.705 16.739l0 3.242m1.781 -3.242l0 3.242m1.73 -3.242l0 3.242m21.874 3.507l-9.808 0c-0.777,0 -1.406,-0.436 -1.406,-0.973l0 -8.188c0,-0.537 0.63,-0.973 1.406,-0.973l9.866 0c1.248,0 1.877,1.043 1,1.658 -1.754,1.229 -3.117,2.184 -3.966,2.778 -0.546,0.383 -0.54,0.998 0.012,1.376 0.813,0.556 2.116,1.447 3.883,2.656 0.894,0.611 0.269,1.666 -0.988,1.666l0.001 0z"/>
   <rect class="fil1" width="36.802" height="36.802"/>
  </g>
 </g>
</svg>
