<?xml version="1.0" encoding="UTF-8"?>
<!DOCTYPE svg PUBLIC "-//W3C//DTD SVG 1.1//EN" "http://www.w3.org/Graphics/SVG/1.1/DTD/svg11.dtd">
<!-- Creator: it-genn.ru -->
<svg xmlns="http://www.w3.org/2000/svg" xml:space="preserve" width="500px" height="500px" version="1.1" style="shape-rendering:geometricPrecision; text-rendering:geometricPrecision; image-rendering:optimizeQuality; fill-rule:evenodd; clip-rule:evenodd"
viewBox="0 0 24.04 24.04"
 xmlns:xlink="http://www.w3.org/1999/xlink"
 xmlns:xodm="https://it-genn.ru">
 <defs>
  <style type="text/css">
   <![CDATA[
    .str0 {stroke:black;stroke-width:0.048;stroke-miterlimit:22.9256}
    .fil1 {fill:none}
    .fil0 {fill:none;fill-rule:nonzero}
   ]]>
  </style>
 </defs>
 <g id="genn-art_x0020_1">
  <metadata id="it-genn-ru-Layer"/>
  <g id="_2477888525104">
   <path class="fil0 str0" d="M21.266 10.781l-1.014 0c-0.394,0 -0.714,0.285 -0.714,0.636l0 9.824c0,0.351 -0.319,0.636 -0.713,0.636 -1.195,0 -2.389,0 -3.584,0 -0.394,0 -0.713,-0.285 -0.713,-0.636l0 -5.573c0,-0.351 -0.265,-0.636 -0.59,-0.636l-3.836 0c-0.326,0 -0.59,0.285 -0.59,0.636l0 5.572c0,0.352 -0.331,0.636 -0.739,0.636l-3.554 0c-0.408,0 -0.739,-0.285 -0.739,-0.636l0 -9.824c0,-0.351 -0.331,-0.635 -0.738,-0.635l-0.968 0c-0.63,0 -0.918,-0.739 -0.436,-1.122l4.135 -3.285 5.111 -4.06c0.252,-0.2 0.62,-0.2 0.873,0l5.11 4.06 4.136 3.285c0.481,0.383 0.193,1.122 -0.437,1.122z"/>
   <rect class="fil1" width="24.04" height="24.04"/>
  </g>
 </g>
</svg>
