<?xml version="1.0" encoding="UTF-8"?>
<!DOCTYPE svg PUBLIC "-//W3C//DTD SVG 1.1//EN" "http://www.w3.org/Graphics/SVG/1.1/DTD/svg11.dtd">
<!-- Creator: it-genn.ru -->
<svg xmlns="http://www.w3.org/2000/svg" xml:space="preserve" width="500px" height="500px" version="1.1" style="shape-rendering:geometricPrecision; text-rendering:geometricPrecision; image-rendering:optimizeQuality; fill-rule:evenodd; clip-rule:evenodd"
viewBox="0 0 18.178 18.178"
 xmlns:xlink="http://www.w3.org/1999/xlink"
 xmlns:xodm="http://www.it-genn.ru">
 <defs>
  <style type="text/css">
   <![CDATA[
    .str0 {stroke:black;stroke-width:0.145;stroke-miterlimit:22.9256}
    .str1 {stroke:black;stroke-width:0.145;stroke-linecap:round;stroke-miterlimit:22.9256}
    .fil1 {fill:none}
    .fil0 {fill:none;fill-rule:nonzero}
   ]]>
  </style>
 </defs>
 <g id="genn-art_x0020_1">
  <metadata id="it-genn-ru-Layer"/>
  <g id="_2479207934976">
   <g>
    <path class="fil0 str0" d="M2.052 1.636l9.414 0c0,4.805 0.001,9.611 0.001,14.416 0,0.266 -0.216,0.481 -0.481,0.481l-8.934 0c-0.265,0 -0.481,-0.215 -0.481,-0.481 0,-4.645 0,-9.29 0,-13.935 0,-0.266 0.216,-0.481 0.481,-0.481l0 0z"/>
    <path class="fil0 str0" d="M11.466 10.04l4.632 0c0.265,0 0.481,0.216 0.481,0.481l0 0.475c0,0.265 -0.216,0.481 -0.481,0.481l-4.632 0"/>
    <path class="fil0 str0" d="M7.52 11.477l0 -4.631c0,-0.266 0.216,-0.481 0.481,-0.481l0.133 0c0.266,0 0.481,0.215 0.481,0.481l0 4.631 -1.095 0 0 0 0 0z"/>
    <path class="fil0 str0" d="M11.466 1.636l4.632 0c0.265,0 0.481,0.215 0.481,0.481l0 6.491c0,0.265 -0.216,0.481 -0.481,0.481l-4.632 0"/>
    <path class="fil0 str0" d="M13.661 13.357l2.465 0c0.266,0 0.481,0.216 0.481,0.481l0 2.223c0,0.266 -0.215,0.481 -0.481,0.481l-2.465 0c-0.266,0 -0.481,-0.215 -0.481,-0.481l0 -2.223c0,-0.265 0.215,-0.481 0.481,-0.481z"/>
    <line class="fil0 str1" x1="5.899" y1="1.636" x2="5.899" y2= "15.862" />
    <line class="fil0 str1" x1="6.683" y1="1.636" x2="6.683" y2= "15.862" />
    <line class="fil0 str1" x1="14.023" y1="10.04" x2="14.023" y2= "11.477" />
    <line class="fil0 str1" x1="11.466" y1="13.67" x2="6.683" y2= "13.67" />
    <line class="fil0 str1" x1="11.466" y1="4.267" x2="6.683" y2= "4.267" />
    <line class="fil0 str1" x1="11.466" y1="5.22" x2="6.683" y2= "5.22" />
    <line class="fil0 str1" x1="8.068" y1="6.365" x2="8.068" y2= "5.22" />
    <path class="fil0 str0" d="M9.565 11.477l0 -4.631c0,-0.266 0.215,-0.481 0.481,-0.481l0.133 0c0.265,0 0.481,0.215 0.481,0.481l0 4.631 -1.096 0 0 0 0.001 0z"/>
    <line class="fil0 str1" x1="10.112" y1="6.365" x2="10.112" y2= "5.22" />
    <line class="fil0 str1" x1="13.895" y1="6.783" x2="14.481" y2= "5.951" />
    <line class="fil0 str1" x1="13.688" y1="5.629" x2="14.647" y2= "4.267" />
    <line class="fil1 str0" x1="1.571" y1="15.862" x2="11.467" y2= "15.862" />
   </g>
   <rect class="fil1" width="18.178" height="18.178"/>
  </g>
 </g>
</svg>
