<?xml version="1.0" encoding="UTF-8"?>
<!DOCTYPE svg PUBLIC "-//W3C//DTD SVG 1.1//EN" "http://www.w3.org/Graphics/SVG/1.1/DTD/svg11.dtd">
<!-- Creator: it-genn.ru -->
<svg xmlns="http://www.w3.org/2000/svg" xml:space="preserve" width="500px" height="500px" version="1.1" style="shape-rendering:geometricPrecision; text-rendering:geometricPrecision; image-rendering:optimizeQuality; fill-rule:evenodd; clip-rule:evenodd"
viewBox="0 0 27.232 27.232"
 xmlns:xlink="http://www.w3.org/1999/xlink"
 xmlns:xodm="https://it-genn.ru">
 <defs>
  <style type="text/css">
   <![CDATA[
    .str0 {stroke:black;stroke-width:0.054;stroke-miterlimit:22.9256}
    .fil1 {fill:none}
    .fil0 {fill:none;fill-rule:nonzero}
   ]]>
  </style>
 </defs>
 <g id="genn-art_x0020_1">
  <metadata id="it-genn-ru-Layer"/>
  <g id="_2480886442688">
   <g>
    <path class="fil0 str0" d="M12.641 20.613l12.38 -0.008c0.432,0 0.782,-0.349 0.782,-0.781l0 -16.592c0,-0.432 -0.35,-0.781 -0.781,-0.781l-22.813 0c-0.431,0 -0.78,0.35 -0.78,0.781l0 16.592c0,0.428 0.35,0.78 0.78,0.78 0.897,0 1.601,0 2.087,0 0.431,0 0.78,0.35 0.78,0.781l0 2.614c0,0.622 0.693,0.995 1.212,0.65l5.898 -3.908c0.057,-0.038 0.165,-0.126 0.455,-0.128z"/>
    <path class="fil0 str0" d="M15.483 7.144l-0.966 1.089c-0.305,0.344 -0.8,0.344 -1.105,0l-0.96 -1.081c-2.445,-2.755 -6.167,1.395 -3.702,4.172l4.645 5.234c0.304,0.343 0.797,0.344 1.102,0.002l4.689 -5.243c2.546,-2.868 -1.429,-6.735 -3.703,-4.173z"/>
   </g>
   <rect class="fil1" width="27.232" height="27.232"/>
  </g>
 </g>
</svg>
