<?xml version="1.0" encoding="UTF-8"?>
<!DOCTYPE svg PUBLIC "-//W3C//DTD SVG 1.1//EN" "http://www.w3.org/Graphics/SVG/1.1/DTD/svg11.dtd">
<!-- Creator: it-genn.ru -->
<svg xmlns="http://www.w3.org/2000/svg" xml:space="preserve" width="500px" height="300px" version="1.1" style="shape-rendering:geometricPrecision; text-rendering:geometricPrecision; image-rendering:optimizeQuality; fill-rule:evenodd; clip-rule:evenodd"
viewBox="0 0 25.355 15.213"
 xmlns:xlink="http://www.w3.org/1999/xlink"
 xmlns:xodm="https://it-genn.ru">
 <defs>
  <style type="text/css">
   <![CDATA[
    .fil1 {fill:none}
    .fil0 {fill:white}
   ]]>
  </style>
 </defs>
 <g id="genn-art_x0020_1">
  <metadata id="it-genn-ru-Layer"/>
  <g id="_2480457880096">
   <path class="fil0" d="M12.988 8.02l-1.373 0.009c0,0.736 0.894,0.472 1.287,0.463 -0.132,0.564 0.031,0.515 -1.03,0.515 -0.899,0 -1.088,-1.195 -0.566,-1.852 0.46,-0.578 1.724,-0.525 1.724,0.308l-0.042 0.557zm3.818 -0.729c0.004,-0.16 0.054,-0.334 0.086,-0.472 0.376,0 1.081,-0.158 1.434,0.111 0.547,0.416 -0.004,1.438 -0.018,2.077l-0.515 0c-0.206,0 0.049,-0.127 -0.32,-0.025 -1.348,0.376 -1.257,-1.375 0.018,-1.392 0.206,-0.003 0.474,0.071 0.474,-0.127 0,-0.368 -0.84,-0.172 -1.159,-0.172zm-10.469 0c0.01,-0.47 0.085,-0.515 0.687,-0.515 1.229,0 1.159,0.447 0.954,1.47 -0.044,0.223 -0.135,0.549 -0.139,0.761l-0.515 0c-0.206,0 0.049,-0.127 -0.32,-0.025 -0.486,0.136 -0.967,-0.011 -0.967,-0.447 0,-1.257 1.459,-0.805 1.459,-1.029 0.005,-0.101 0.008,-0.163 -0.043,-0.215 -0.097,-0.098 -0.712,0 -1.116,0zm13.644 0.043c-0.578,0.013 -0.648,0.671 -0.724,1.121 -0.03,0.182 -0.077,0.385 -0.091,0.552l-0.601 0c0.017,-0.198 0.091,-0.453 0.123,-0.649 0.039,-0.231 0.08,-0.488 0.126,-0.69 0.052,-0.227 0.075,-0.405 0.116,-0.656 0.032,-0.198 -0.017,-0.2 0.15,-0.236 0.052,-0.011 0.353,0 0.429,0 0.01,0.116 0.02,0.117 0.043,0.215 0.167,-0.112 0.298,-0.193 0.558,-0.215 -0.005,0.224 -0.085,0.371 -0.129,0.558zm-5.535 0.043c-0.395,0 -0.53,0.26 -0.623,0.578 -0.048,0.161 -0.068,0.365 -0.095,0.506 -0.034,0.176 -0.083,0.38 -0.097,0.546l-0.601 0 0.326 -1.691c0.025,-0.126 0.033,-0.192 0.05,-0.293 0.042,-0.243 -0.046,-0.204 0.568,-0.204 0.004,0.169 -0.011,0.101 0.043,0.215 0.192,-0.129 0.217,-0.215 0.558,-0.215 -0.019,0.223 -0.112,0.354 -0.129,0.558zm-4.719 -0.086c-0.128,-0.061 -0.51,-0.059 -0.594,-0.036 -0.208,0.055 -0.224,0.232 -0.024,0.352 0.102,0.061 0.187,0.1 0.277,0.153 0.233,0.138 0.384,0.195 0.384,0.518 0,1 -1.253,0.697 -1.717,0.686l0.086 -0.429c0.156,0 1.09,0.193 1.005,-0.193 -0.032,-0.144 -0.184,-0.188 -0.303,-0.251 -0.065,-0.035 -0.107,-0.062 -0.167,-0.091 -0.089,-0.043 -0.125,-0.043 -0.202,-0.098 -0.28,-0.205 -0.302,-1.126 0.697,-1.126l0.686 0.043 -0.128 0.472zm6.727 -0.395c-0.328,-0.07 -0.729,-0.215 -1.072,0.215 -0.377,0.472 -0.229,1.296 0.309,1.296l0.472 -0.043 0.171 0.557c-0.298,0.056 -0.396,0.086 -0.858,0.086 -0.798,0 -1.009,-0.866 -0.919,-1.514 0.123,-0.883 1.015,-1.551 1.896,-1.222 0.132,0.049 0.251,0.141 0.353,0.248l-0.352 0.377zm-10.718 2.111l-0.643 0 0.343 -1.888 -0.858 1.888 -0.558 0 -0.172 -1.931 -0.386 1.931 -0.6 0 0.514 -2.703 0.944 0 0.129 1.673 0.772 -1.673 0.987 0 -0.472 2.703zm16.133 0c-0.572,0 -0.553,0.048 -0.601,-0.128 -0.222,0.018 -0.84,0.442 -1.173,-0.329 -0.238,-0.552 0.027,-1.774 0.959,-1.774 0.516,0 0.377,0.079 0.643,0.258l0.172 -0.859 0.601 0 -0.386 2.189c-0.061,0.372 -0.051,0.643 -0.215,0.643zm-11.07 -2.188l0.301 0c0,0.084 -0.024,0.292 -0.048,0.338 -0.074,0.141 -0.118,0.091 -0.339,0.091 -0.058,0.253 -0.093,0.471 -0.147,0.755 -0.072,0.384 -0.166,0.489 0.319,0.489 -0.148,0.31 0.167,0.514 -0.438,0.547 -0.894,0.049 -0.459,-1.102 -0.345,-1.673 0.043,-0.214 0.071,-0.354 0.114,-0.572 0.038,-0.189 0.097,-0.404 0.111,-0.576l0.601 0c-0.035,0.074 -0.126,0.486 -0.129,0.601zm-2.317 6.951c1.864,0 2.546,-0.454 3.819,-1.373 -0.792,-0.917 -1.356,-1.52 -1.716,-2.875l0.472 0c0.206,0.883 0.772,1.957 1.63,2.532 0.562,-0.59 1.34,-1.79 1.588,-2.532l0.515 0c-0.317,1.201 -0.642,1.496 -1.76,2.875 2.286,2.014 6.07,1.72 8.185,-0.397 1.884,-1.886 2.354,-4.445 1.323,-6.922 -0.842,-2.022 -3.163,-3.622 -5.389,-3.622 -1.043,0 -1.608,0.063 -2.532,0.428 -0.857,0.34 -1.022,0.567 -1.587,0.945 1.002,1.113 1.231,1.467 1.76,2.832l-0.515 0c-0.182,-0.779 -1.073,-2.159 -1.631,-2.532 -0.758,0.752 -1.141,1.318 -1.587,2.532l-0.472 0c0.1,-0.429 0.466,-1.188 0.711,-1.563 0.513,-0.783 0.898,-1.109 1.005,-1.269l-0.731 -0.513c-3.613,-2.174 -8.331,-0.087 -9.163,4.049 -0.779,3.875 2.179,7.405 6.075,7.405zm12.143 -5.793c0,0.702 0.901,0.54 0.901,-0.257 0,-0.827 -0.901,-0.324 -0.901,0.257zm-13.988 0.344c0,0.342 0.447,0.299 0.611,0.095 0.066,-0.081 0.108,-0.268 0.119,-0.396 -0.454,-0.105 -0.73,0.112 -0.73,0.301zm10.47 0c0,0.354 0.669,0.424 0.729,-0.301 -0.453,-0.105 -0.729,0.112 -0.729,0.301zm-5.407 -0.687l0.773 0 0 -0.214c0,-0.1 -0.115,-0.215 -0.215,-0.215l-0.172 0c-0.245,0 -0.367,0.203 -0.386,0.429z"/>
   <rect class="fil1" width="25.355" height="15.213"/>
  </g>
 </g>
</svg>
