<?xml version="1.0" encoding="UTF-8"?>
<!DOCTYPE svg PUBLIC "-//W3C//DTD SVG 1.1//EN" "http://www.w3.org/Graphics/SVG/1.1/DTD/svg11.dtd">
<!-- Creator: it-genn.ru -->
<svg xmlns="http://www.w3.org/2000/svg" xml:space="preserve" width="500px" height="300px" version="1.1" style="shape-rendering:geometricPrecision; text-rendering:geometricPrecision; image-rendering:optimizeQuality; fill-rule:evenodd; clip-rule:evenodd"
viewBox="0 0 28.831 17.298"
 xmlns:xlink="http://www.w3.org/1999/xlink"
 xmlns:xodm="https://it-genn.ru">
 <defs>
  <style type="text/css">
   <![CDATA[
    .fil1 {fill:none}
    .fil0 {fill:white}
   ]]>
  </style>
 </defs>
 <g id="genn-art_x0020_1">
  <metadata id="it-genn-ru-Layer"/>
  <g id="_2480459438192">
   <path class="fil0" d="M2.595 5.201l0 7.096 1.977 0c0.203,0 0.179,-0.142 0.181,-0.342l0.11 -3.962c0.302,1.298 0.942,3.103 1.221,4.304l1.513 0c0.032,-0.391 1.154,-3.865 1.163,-4.246l0.174 0 0 4.246 2.152 0 0 -7.096c0,-0.134 -0.04,-0.174 -0.174,-0.174 -2.673,0 -2.852,-0.157 -3.328,1.691 -0.107,0.412 -0.489,2.426 -0.743,2.613 -0.178,-0.13 -0.683,-2.266 -0.78,-2.652 -0.461,-1.829 -0.684,-1.652 -3.292,-1.652 -0.134,0 -0.174,0.04 -0.174,0.174zm9.364 0l0 7.096 1.977 0c0.795,0 1.201,-1.283 1.471,-1.961l0.867 -2.098c0.077,-0.176 0.115,-0.21 0.221,-0.245l0 4.304 2.152 0 0 -7.096c0,-0.134 -0.04,-0.174 -0.174,-0.174 -2.657,0 -2.321,-0.144 -3.201,1.859l-0.933 2.208c-0.086,0.208 -0.006,0.177 -0.228,0.237l0 -3.315c0,-1.265 0.382,-0.989 -1.978,-0.989 -0.134,0 -0.174,0.04 -0.174,0.174zm10.527 2.85l3.722 0c0.126,-1.444 -0.142,-2.359 -1.503,-2.859 -0.748,-0.274 -4.195,-0.165 -5.185,-0.165 -0.378,0 -0.263,0.149 -0.19,0.418 0.379,1.388 1.674,2.606 3.156,2.606zm-2.966 4.072c0,0.134 0.04,0.174 0.174,0.174l1.978 0 0 -2.268c1.535,0 3.958,0.295 4.42,-1.687l-6.572 0 0 3.781z"/>
   <rect class="fil1" width="28.831" height="17.298"/>
  </g>
 </g>
</svg>
