<svg width="39" height="38" viewBox="0 0 39 38" fill="none" xmlns="http://www.w3.org/2000/svg">
<path d="M8.31803 3.10312C8.38718 0.881083 10.7647 -0.496473 12.7268 0.54858L19.9924 4.41823C20.6828 4.78593 21.4894 4.86945 22.2405 4.651L30.1447 2.352C32.2794 1.73113 34.3242 3.56657 33.9366 5.75563L32.5016 13.8614C32.3652 14.6316 32.535 15.4246 32.9749 16.0714L37.6039 22.8783C38.854 24.7166 37.7403 27.2286 35.5386 27.5364L27.3861 28.6764C26.6115 28.7847 25.9098 29.1913 25.4306 29.8095L20.3872 36.3154C19.0252 38.0724 16.2921 37.7894 15.3189 35.7906L11.7155 28.3894C11.3731 27.6862 10.7696 27.1445 10.0335 26.8797L2.28755 24.0937C0.195644 23.3412 -0.379804 20.6544 1.22044 19.1112L7.14588 13.3971C7.70891 12.8541 8.03762 12.1127 8.06195 11.3309L8.31803 3.10312Z" fill="#FFC935"/>
</svg>
