<svg width="25" height="25" viewBox="0 0 25 25" fill="none" xmlns="http://www.w3.org/2000/svg">
<path d="M14.6081 0.986197C16.4515 -0.256472 18.9589 0.867422 19.2578 3.07034L19.7569 6.74801C19.8621 7.52308 20.2658 8.22643 20.882 8.70815L23.806 10.9939C25.5575 12.363 25.2635 15.095 23.2607 16.06L19.9173 17.6711C19.2126 18.0107 18.6685 18.612 18.4008 19.3469L17.1305 22.8341C16.3696 24.923 13.6805 25.4875 12.1438 23.881L9.57837 21.1991C9.0377 20.6339 8.29765 20.3022 7.51595 20.2747L3.80687 20.1442C1.58514 20.066 0.21723 17.683 1.27023 15.725L3.02815 12.4564C3.39864 11.7675 3.48543 10.9612 3.27003 10.2093L2.24796 6.6414C1.63574 4.50425 3.47945 2.46689 5.66693 2.86332L9.31881 3.52514C10.0885 3.66462 10.8821 3.498 11.5307 3.06077L14.6081 0.986197Z" fill="#FFC935"/>
</svg>
