<?xml version="1.0" encoding="UTF-8"?>
<!DOCTYPE svg PUBLIC "-//W3C//DTD SVG 1.1//EN" "http://www.w3.org/Graphics/SVG/1.1/DTD/svg11.dtd">
<!-- Creator: it-genn.ru -->
<svg xmlns="http://www.w3.org/2000/svg" xml:space="preserve" width="500px" height="300px" version="1.1" style="shape-rendering:geometricPrecision; text-rendering:geometricPrecision; image-rendering:optimizeQuality; fill-rule:evenodd; clip-rule:evenodd"
viewBox="0 0 18.581 11.148"
 xmlns:xlink="http://www.w3.org/1999/xlink"
 xmlns:xodm="https://it-genn.ru">
 <defs>
  <style type="text/css">
   <![CDATA[
    .fil1 {fill:none}
    .fil0 {fill:white}
   ]]>
  </style>
 </defs>
 <g id="genn-art_x0020_1">
  <metadata id="it-genn-ru-Layer"/>
  <g id="_2478181907344">
   <path class="fil0" d="M2.623 2.559l13.335 0c0.522,0 0.95,0.428 0.95,0.951l0 4.128c0,0.523 -0.428,0.951 -0.95,0.951l-13.335 0c-0.523,0 -0.951,-0.428 -0.951,-0.951l0 -4.128c0,-0.523 0.428,-0.951 0.951,-0.951zm11.115 3.025c0.183,0.27 0.424,0.466 0.634,0.704 -0.494,0 -0.406,0.067 -0.67,-0.2 -0.514,-0.521 -0.444,-0.384 -0.444,0.2l-0.383 0 0 -1.323 0.383 0 0 0.487c0.257,0 0.4,-0.201 0.592,-0.487l0.487 0 -0.599 0.619zm-5.457 -0.132c0.62,0 1.079,-0.112 1.079,0.453 0,0.495 -0.896,0.383 -1.392,0.383 -0.081,0 -0.105,-0.025 -0.105,-0.105l0 -1.218 1.392 0 0 0.278 -0.974 0 0 0.209zm3.272 0.836l-0.383 0 0 -1.323 0.383 0c0,0.604 -0.133,0.487 0.696,0.487l0 -0.487 0.383 0 0 1.323 -0.383 0 0 -0.488 -0.696 0 0 0.488zm-7.658 -0.522l0 -1.671 3.202 0 0 1.671c0,0.445 -0.252,0.762 -0.598,0.968 -1.204,0.715 -0.884,0.64 -1.501,0.295 -0.498,-0.278 -1.103,-0.541 -1.103,-1.263zm5.952 0.487l-0.452 0 0.522 -1.288 0.592 0 0.522 1.323 -0.418 0 -0.07 -0.209 -0.661 0 -0.035 0.174zm-5.082 -0.801c0.239,-0.126 0.201,-0.104 0.488,-0.104 0,0.416 0.05,0.647 -0.105,0.94l0.696 0c-0.154,-0.293 -0.104,-0.524 -0.104,-0.94 0.286,0 0.249,-0.022 0.487,0.104l0 -0.522 -1.462 0 0 0.522zm3.516 0.522l0.452 0c0.383,0 0.28,-0.243 0.14,-0.243l-0.592 0 0 0.243zm1.74 -0.174l0.418 0 -0.171 -0.556 -0.073 -0.001 -0.174 0.557z"/>
   <rect class="fil1" width="18.581" height="11.148"/>
  </g>
 </g>
</svg>
