<?xml version="1.0" encoding="UTF-8"?>
<!DOCTYPE svg PUBLIC "-//W3C//DTD SVG 1.1//EN" "http://www.w3.org/Graphics/SVG/1.1/DTD/svg11.dtd">
<!-- Creator: it-genn.ru -->
<svg xmlns="http://www.w3.org/2000/svg" xml:space="preserve" width="500px" height="500px" version="1.1" style="shape-rendering:geometricPrecision; text-rendering:geometricPrecision; image-rendering:optimizeQuality; fill-rule:evenodd; clip-rule:evenodd"
viewBox="0 0 21.524 21.524"
 xmlns:xlink="http://www.w3.org/1999/xlink"
 xmlns:xodm="http://it-genn.ru">
 <defs>
  <style type="text/css">
   <![CDATA[
    .fil1 {fill:none}
    .fil0 {fill:white;fill-rule:nonzero}
   ]]>
  </style>
 </defs>
 <g id="genn-art_x0020_1">
  <metadata id="it-genn-ru-Layer"/>
  <g id="_2480417557152">
   <path class="fil0" d="M16.186 14.53l-1.282 0c-0.486,0 -0.636,-0.386 -1.508,-1.27 -0.76,-0.736 -1.096,-0.834 -1.282,-0.834 -0.262,0 -0.337,0.074 -0.337,0.436l0 1.158c0,0.312 -0.099,0.498 -0.922,0.498 -1.658,-0.111 -3.083,-1.016 -3.911,-2.334l-0.012 -0.02c-0.961,-1.193 -1.669,-2.631 -2.019,-4.203l-0.013 -0.069c0,-0.187 0.075,-0.362 0.436,-0.362l1.283 0c0.323,0 0.448,0.15 0.574,0.498 0.634,1.832 1.693,3.438 2.129,3.438 0.162,0 0.237,-0.074 0.237,-0.485l0 -1.895c-0.05,-0.872 -0.511,-0.946 -0.511,-1.257 0.005,-0.167 0.142,-0.3 0.309,-0.3 0.005,0 0.01,0 0.015,0.001l0 0 2.018 0c0.274,0 0.373,0.149 0.373,0.473l0 2.554c0,0.274 0.125,0.374 0.2,0.374 0.162,0 0.3,-0.1 0.598,-0.399 0.62,-0.757 1.15,-1.623 1.555,-2.557l0.027 -0.071c0.085,-0.214 0.29,-0.362 0.529,-0.362 0.012,0 0.022,0.001 0.033,0.001l-0.001 0 1.282 0c0.386,0 0.474,0.199 0.386,0.473 -0.514,1.133 -1.092,2.107 -1.762,3.008l0.031 -0.043c-0.137,0.224 -0.187,0.323 0,0.574 0.136,0.186 0.585,0.572 0.884,0.921 0.433,0.428 0.795,0.926 1.069,1.475l0.015 0.033c0.124,0.36 -0.063,0.547 -0.424,0.547l0.001 -0.001zm-2.715 -12.593l-5.418 0c-4.945,0 -6.116,1.171 -6.116,6.116l0 5.418c0,4.946 1.171,6.116 6.116,6.116l5.418 0c4.946,0 6.116,-1.17 6.116,-6.116l0 -5.418c0,-4.945 -1.183,-6.116 -6.116,-6.116l0 0z"/>
   <rect class="fil1" width="21.524" height="21.524"/>
  </g>
 </g>
</svg>
