<?xml version="1.0" encoding="UTF-8"?>
<!DOCTYPE svg PUBLIC "-//W3C//DTD SVG 1.1//EN" "http://www.w3.org/Graphics/SVG/1.1/DTD/svg11.dtd">
<!-- Creator: it-genn.ru -->
<svg xmlns="http://www.w3.org/2000/svg" xml:space="preserve" width="500px" height="500px" version="1.1" style="shape-rendering:geometricPrecision; text-rendering:geometricPrecision; image-rendering:optimizeQuality; fill-rule:evenodd; clip-rule:evenodd"
viewBox="0 0 16.016 16.016"
 xmlns:xlink="http://www.w3.org/1999/xlink"
 xmlns:xodm="http://it-genn.ru">
 <defs>
  <style type="text/css">
   <![CDATA[
    .fil1 {fill:none}
    .fil0 {fill:white}
   ]]>
  </style>
 </defs>
 <g id="genn-art_x0020_1">
  <metadata id="it-genn-ru-Layer"/>
  <g id="_2480412973472">
   <path class="fil0" d="M2.849 8.008c0,-2.936 2.38,-5.316 5.316,-5.316 2.935,0 5.315,2.38 5.315,5.316 0,2.936 -2.38,5.316 -5.315,5.316 -1.046,0 -2.02,-0.301 -2.841,-0.822 -0.153,-0.096 -0.34,-0.122 -0.514,-0.071l-1.8 0.538 0.678 -1.587c0.08,-0.187 0.064,-0.402 -0.044,-0.575 -0.504,-0.813 -0.795,-1.771 -0.795,-2.799zm5.316 -6.567c-3.627,0 -6.567,2.94 -6.567,6.567 0,1.15 0.296,2.232 0.816,3.173l-1.079 2.523c-0.095,0.223 -0.053,0.481 0.109,0.662 0.161,0.181 0.413,0.252 0.645,0.183l2.814 -0.84c0.962,0.551 2.076,0.866 3.262,0.866 3.626,0 6.566,-2.94 6.566,-6.567 0,-3.627 -2.94,-6.567 -6.566,-6.567zm1.433 7.932l-0.822 0.579c-0.385,-0.219 -0.81,-0.525 -1.237,-0.952 -0.444,-0.444 -0.773,-0.902 -1.015,-1.322l0.522 -0.444c0.224,-0.19 0.285,-0.511 0.147,-0.77l-0.665 -1.251c-0.09,-0.169 -0.251,-0.287 -0.439,-0.321 -0.188,-0.035 -0.381,0.018 -0.525,0.143l-0.197 0.173c-0.474,0.414 -0.755,1.094 -0.522,1.783 0.241,0.715 0.755,1.839 1.81,2.893 1.134,1.134 2.286,1.581 2.96,1.755 0.542,0.139 1.056,-0.048 1.418,-0.343l0.37 -0.301c0.158,-0.129 0.244,-0.327 0.229,-0.531 -0.015,-0.203 -0.128,-0.387 -0.304,-0.491l-1.049 -0.626c-0.212,-0.126 -0.479,-0.116 -0.681,0.026z"/>
   <rect class="fil1" width="16.016" height="16.016"/>
  </g>
 </g>
</svg>
