<?xml version="1.0" encoding="UTF-8"?>
<!DOCTYPE svg PUBLIC "-//W3C//DTD SVG 1.1//EN" "http://www.w3.org/Graphics/SVG/1.1/DTD/svg11.dtd">
<!-- Creator: it-genn.ru -->
<svg xmlns="http://www.w3.org/2000/svg" xml:space="preserve" width="500px" height="500px" version="1.1" style="shape-rendering:geometricPrecision; text-rendering:geometricPrecision; image-rendering:optimizeQuality; fill-rule:evenodd; clip-rule:evenodd"
viewBox="0 0 17.362 17.362"
 xmlns:xlink="http://www.w3.org/1999/xlink"
 xmlns:xodm="http://it-genn.ru">
 <defs>
  <style type="text/css">
   <![CDATA[
    .fil1 {fill:none}
    .fil0 {fill:white;fill-rule:nonzero}
   ]]>
  </style>
 </defs>
 <g id="genn-art_x0020_1">
  <metadata id="it-genn-ru-Layer"/>
  <g id="_2480414616032">
   <path class="fil0" d="M12.82 11.984l-0.774 0 0 -0.458c0,-0.193 0.193,-0.386 0.385,-0.386l0.067 0c0.196,0 0.39,0.193 0.39,0.386l0 0.458 -0.068 0zm-2.978 -0.974c-0.192,0 -0.388,0.13 -0.388,0.323l0 2.203c0,0.193 0.133,0.324 0.388,0.324 0.195,0 0.39,-0.131 0.39,-0.324l0 -2.265c-0.001,-0.131 -0.195,-0.261 -0.39,-0.261l0 0zm4.793 -1.229l0 4.204c0,1.038 -0.907,1.814 -1.943,1.814l-8.025 0c-1.036,0 -1.94,-0.841 -1.94,-1.814l0 -4.204c0,-1.035 0.842,-1.813 1.94,-1.813l7.961 0c1.1,0 2.007,0.779 2.007,1.813zm-9.385 4.662l0 -4.407 0.972 0 0 -0.641 -2.653 0 0 0.641 0.84 0 0 4.465 0.841 -0.058zm2.913 -3.754l-0.778 0 0 2.907c0,0.132 -0.128,0.195 -0.257,0.195 -0.066,0 -0.196,-0.063 -0.196,-0.256l0 -2.915 -0.841 0 0 3.108c0,0.193 0,0.451 0.195,0.582 0.389,0.258 1.099,-0.062 1.23,-0.451l0 0.514 0.647 0 0 -3.684zm2.652 2.652l0 -1.942c0,-0.779 -0.583,-1.229 -1.293,-0.584l0 -1.488 -0.843 0 0 5.047 0.648 0 0.068 -0.32c0.906,0.838 1.42,0.257 1.42,-0.713zm2.586 -0.26l-0.64 0 0 0.455c0,0.193 -0.133,0.324 -0.33,0.324l-0.128 0c-0.195,0 -0.319,-0.131 -0.319,-0.324l0 -0.907 1.417 0 0 -1.55c-0.124,-0.714 -1.098,-0.847 -1.612,-0.457 -0.132,0.131 -0.264,0.262 -0.324,0.457 -0.066,0.194 -0.134,0.447 -0.134,0.837l0 1.165c0,2.004 2.265,1.751 2.07,0l0 0zm-3.17 -6.342c0.069,0.131 0.13,0.194 0.196,0.258 0.067,0.067 0.194,0.067 0.324,0.067 0.132,0 0.193,-0.067 0.326,-0.131 0.063,-0.063 0.194,-0.194 0.256,-0.322l0 0.322 0.907 0 0 -3.881 -0.715 0 0 3.04c0,0.194 -0.124,0.325 -0.319,0.325 -0.195,0 -0.322,-0.131 -0.322,-0.325l0 -2.976 -0.776 0 0 3.301c0.06,0.127 0.06,0.194 0.123,0.322l0 0zm-2.781 -2.198c0,-0.389 0,-0.648 0.067,-0.907 0.062,-0.194 0.194,-0.388 0.323,-0.516 0.18,-0.127 0.396,-0.196 0.617,-0.196 0.01,0 0.02,0.001 0.029,0.001 0.194,0 0.387,0.063 0.52,0.129 0.127,0.066 0.256,0.194 0.322,0.322 0.067,0.132 0.126,0.26 0.195,0.391 0,0.128 0.066,0.323 0.066,0.645l0 1.035c0,0.39 0,0.647 -0.066,0.778 0,0.194 -0.068,0.321 -0.195,0.452 -0.074,0.136 -0.186,0.248 -0.322,0.322 -0.161,0.082 -0.339,0.126 -0.52,0.13 -0.193,0 -0.388,0 -0.518,-0.064 -0.128,-0.067 -0.257,-0.131 -0.323,-0.258 -0.076,-0.146 -0.141,-0.299 -0.194,-0.455 -0.066,-0.194 -0.066,-0.453 -0.066,-0.775l0.065 -1.035 0 0.001zm0.713 1.551c0,0.194 0.195,0.39 0.389,0.39 0.195,0 0.386,-0.196 0.386,-0.39l0 -2.072c0,-0.195 -0.191,-0.387 -0.386,-0.387 -0.194,0 -0.389,0.192 -0.389,0.387l0 2.072zm-2.524 1.036l0.842 0 0 -2.976 1.035 -2.589 -0.973 0 -0.515 1.942 -0.583 -1.942 -0.906 0 1.1 2.589 0 2.976z"/>
   <rect class="fil1" width="17.362" height="17.362"/>
  </g>
 </g>
</svg>
