<?xml version="1.0" encoding="utf-8"?>
<!-- Generator: Adobe Illustrator 26.5.0, SVG Export Plug-In . SVG Version: 6.00 Build 0)  -->
<svg version="1.1" id="Слой_1" xmlns="http://www.w3.org/2000/svg" xmlns:xlink="http://www.w3.org/1999/xlink" x="0px" y="0px"
	 viewBox="0 0 500 500" style="enable-background:new 0 0 500 500;" xml:space="preserve">
<style type="text/css">
	.st0{fill-rule:evenodd;clip-rule:evenodd;fill:#FFFFFF;}
</style>
<path class="st0" d="M94.42,254.07c0-89.45,72.51-161.96,161.96-161.96s161.96,72.51,161.96,161.96
	c0,89.45-72.51,161.96-161.96,161.96c-31.86,0-61.52-9.18-86.55-25.04c-4.66-2.95-10.36-3.74-15.65-2.16l-54.86,16.37l20.66-48.33
	c2.44-5.71,1.94-12.26-1.33-17.53C103.29,314.59,94.42,285.4,94.42,254.07z M256.38,54c-110.5,0-200.07,89.58-200.07,200.07
	c0,35.02,9.02,67.99,24.86,96.66L48.32,427.6c-2.9,6.8-1.62,14.66,3.3,20.17c4.92,5.52,12.59,7.69,19.67,5.57l85.73-25.58
	c29.29,16.79,63.23,26.38,99.36,26.38c110.5,0,200.07-89.58,200.07-200.07C456.46,143.58,366.88,54,256.38,54z M300.07,295.66
	l-25.04,17.64c-11.73-6.68-24.69-16.01-37.7-29.01c-13.52-13.52-23.55-27.48-30.94-40.29l15.91-13.51c6.83-5.8,8.7-15.57,4.49-23.48
	l-20.28-38.11c-2.73-5.13-7.65-8.74-13.37-9.79c-5.72-1.05-11.6,0.56-15.98,4.38l-6.01,5.25c-14.46,12.62-23.01,33.35-15.92,54.35
	c7.35,21.76,23.03,56.02,55.15,88.14c34.56,34.56,69.66,48.17,90.19,53.45c16.54,4.26,32.19-1.45,43.22-10.44l11.27-9.18
	c4.82-3.93,7.42-9.96,6.97-16.16c-0.46-6.2-3.91-11.79-9.25-14.98l-31.98-19.05C314.33,291.02,306.22,291.33,300.07,295.66z"/>
</svg>
