<?xml version="1.0" encoding="utf-8"?>
<!-- Generator: Adobe Illustrator 26.5.0, SVG Export Plug-In . SVG Version: 6.00 Build 0)  -->
<svg version="1.1" id="Слой_1" xmlns="http://www.w3.org/2000/svg" xmlns:xlink="http://www.w3.org/1999/xlink" x="0px" y="0px"
	 viewBox="0 0 500 500" style="enable-background:new 0 0 500 500;" xml:space="preserve">
<style type="text/css">
	.st0{fill:#FFFFFF;}
</style>
<path class="st0" d="M349.26,150.23c0.09,0,0.21,0,0.33,0c3.13,0,6.04,0.97,8.43,2.65l-0.04-0.03c1.74,1.51,2.91,3.65,3.19,6.05
	v0.04c0.3,1.83,0.46,3.93,0.46,6.08c0,0.97-0.03,1.93-0.1,2.89v-0.13c-3.38,35.54-18.02,121.71-25.46,161.49
	c-3.15,16.85-9.35,22.49-15.35,23.03c-13.04,1.21-22.94-8.61-35.57-16.89c-19.77-12.98-30.95-21.05-50.13-33.69
	c-22.19-14.6-7.8-22.65,4.83-35.76c3.32-3.45,60.78-55.73,61.91-60.47c0.06-0.29,0.09-0.6,0.09-0.93c0-1.17-0.43-2.24-1.14-3.04l0,0
	c-0.78-0.51-1.76-0.8-2.77-0.8c-0.68,0-1.32,0.13-1.92,0.36l0.03-0.01c-1.98,0.45-33.56,21.32-94.74,62.61
	c-6.68,5.26-15.11,8.6-24.29,8.98h-0.09c-13.01-1.57-24.81-4.47-36.02-8.6l1.11,0.36c-14.07-4.59-25.25-7-24.29-14.78
	c0.51-4.04,6.08-8.18,16.71-12.41c65.48-28.53,109.15-47.34,131-56.42c24.11-12.8,52.05-23.33,81.44-30.15l2.35-0.46L349.26,150.23z
	 M256.38,15C131.85,15.3,31,116.33,31,240.9c0,124.76,101.13,225.9,225.9,225.9s225.9-101.13,225.9-225.9
	c0-124.58-100.85-225.6-225.35-225.9h-0.03C257.08,15,256.73,15,256.38,15L256.38,15z"/>
</svg>
