<?xml version="1.0" encoding="UTF-8"?>
<!DOCTYPE svg PUBLIC "-//W3C//DTD SVG 1.1//EN" "http://www.w3.org/Graphics/SVG/1.1/DTD/svg11.dtd">
<svg xmlns="http://www.w3.org/2000/svg" version="1.1" width="512px" height="512px" style="shape-rendering:geometricPrecision; text-rendering:geometricPrecision; image-rendering:optimizeQuality; fill-rule:evenodd; clip-rule:evenodd" xmlns:xlink="http://www.w3.org/1999/xlink">
<g><path style="opacity:0.993" fill="#000000" d="M 155.5,-0.5 C 222.167,-0.5 288.833,-0.5 355.5,-0.5C 380.317,0.352577 404.984,3.51924 429.5,9C 467.667,19.1667 491.833,43.3333 502,81.5C 507.408,106.024 510.574,130.691 511.5,155.5C 511.5,222.167 511.5,288.833 511.5,355.5C 510.574,380.309 507.408,404.976 502,429.5C 491.833,467.667 467.667,491.833 429.5,502C 404.976,507.408 380.309,510.574 355.5,511.5C 288.833,511.5 222.167,511.5 155.5,511.5C 129.605,510.675 103.938,507.175 78.5,501C 41.998,490.187 18.8313,466.354 9,429.5C 3.60203,405.311 0.435365,380.977 -0.5,356.5C -0.5,289.167 -0.5,221.833 -0.5,154.5C 0.435365,130.023 3.60203,105.689 9,81.5C 19.1667,43.3333 43.3333,19.1667 81.5,9C 106.024,3.59234 130.691,0.425676 155.5,-0.5 Z M 100.5,159.5 C 113.171,159.333 125.838,159.5 138.5,160C 145.547,160.373 150.381,163.873 153,170.5C 164.029,204.23 180.029,235.23 201,263.5C 205.065,268.777 210.232,272.444 216.5,274.5C 218.33,274.224 219.997,273.557 221.5,272.5C 223.093,268.691 223.926,264.691 224,260.5C 224.667,241.5 224.667,222.5 224,203.5C 223.146,191.13 218.48,180.463 210,171.5C 208.589,164.573 211.422,160.74 218.5,160C 237.833,159.333 257.167,159.333 276.5,160C 284.293,160.466 287.793,164.632 287,172.5C 287.333,199.5 287.667,226.5 288,253.5C 290.471,258.67 294.304,259.837 299.5,257C 308.334,249.865 316.168,241.698 323,232.5C 336.727,212.385 348.394,191.052 358,168.5C 361.207,162.977 366.041,160.144 372.5,160C 385.167,159.333 397.833,159.333 410.5,160C 419.166,159.991 422.666,164.157 421,172.5C 419.562,178.043 417.562,183.376 415,188.5C 401.58,213.236 386.58,236.902 370,259.5C 366.449,265.417 366.783,271.084 371,276.5C 389.861,294.351 406.861,313.684 422,334.5C 424.034,338.52 426.034,342.52 428,346.5C 430.336,353.999 427.836,358.832 420.5,361C 403.767,361.956 387.1,361.623 370.5,360C 369.167,359.333 367.833,358.667 366.5,358C 353.196,343.695 339.529,329.695 325.5,316C 320.5,312.333 315.5,308.667 310.5,305C 304.201,301.086 297.535,300.086 290.5,302C 289.299,302.903 288.465,304.069 288,305.5C 287.667,319.833 287.333,334.167 287,348.5C 286.983,353.374 284.816,356.874 280.5,359C 260.374,363.341 240.707,361.674 221.5,354C 196.658,343.488 175.492,327.988 158,307.5C 133.164,276.186 113.164,241.853 98,204.5C 94.0703,194.782 91.0703,184.782 89,174.5C 87.4337,165.243 91.2671,160.243 100.5,159.5 Z"/></g>
</svg>
