<?xml version="1.0" encoding="utf-8"?>
<!-- Generator: Adobe Illustrator 26.5.0, SVG Export Plug-In . SVG Version: 6.00 Build 0)  -->
<svg version="1.1" id="Слой_1" xmlns="http://www.w3.org/2000/svg" xmlns:xlink="http://www.w3.org/1999/xlink" x="0px" y="0px"
	 viewBox="0 0 500 500" style="enable-background:new 0 0 500 500;" xml:space="preserve">
<style type="text/css">
	.st0{opacity:0.993;fill-rule:evenodd;clip-rule:evenodd;fill:#FFFFFF;enable-background:new    ;}
</style>
<g>
	<path class="st0" d="M171.76,38c57.16,0,114.32,0,171.48,0c21.28,0.73,42.43,3.45,63.45,8.15c32.73,8.72,53.45,29.44,62.16,62.16
		c4.64,21.03,7.35,42.18,8.15,63.45c0,57.16,0,114.32,0,171.48c-0.79,21.27-3.51,42.42-8.15,63.45
		c-8.72,32.73-29.44,53.45-62.16,62.16c-21.03,4.64-42.18,7.35-63.45,8.15c-57.16,0-114.32,0-171.48,0
		c-22.2-0.71-44.21-3.71-66.02-9c-31.3-9.27-51.16-29.71-59.59-61.31c-4.63-20.74-7.34-41.6-8.15-62.59c0-57.73,0-115.47,0-173.2
		c0.8-20.99,3.52-41.85,8.15-62.59c8.72-32.72,29.44-53.45,62.16-62.16C129.34,41.51,150.49,38.79,171.76,38z M124.6,175.19
		c10.86-0.14,21.73,0,32.58,0.43c6.04,0.32,10.19,3.32,12.43,9c9.46,28.92,23.18,55.5,41.16,79.74c3.49,4.52,7.92,7.67,13.29,9.43
		c1.57-0.24,3-0.81,4.29-1.71c1.37-3.27,2.08-6.7,2.14-10.29c0.57-16.29,0.57-32.58,0-48.87c-0.73-10.61-4.73-19.75-12-27.44
		c-1.21-5.94,1.22-9.23,7.29-9.86c16.58-0.57,33.15-0.57,49.73,0c6.68,0.4,9.68,3.97,9,10.72c0.29,23.15,0.57,46.3,0.86,69.45
		c2.12,4.43,5.41,5.43,9.86,3c7.57-6.12,14.29-13.12,20.15-21.01c11.77-17.25,21.77-35.54,30.01-54.88
		c2.75-4.74,6.89-7.16,12.43-7.29c10.86-0.57,21.72-0.57,32.58,0c7.43-0.01,10.43,3.56,9,10.72c-1.23,4.75-2.95,9.33-5.14,13.72
		c-11.51,21.21-24.37,41.5-38.58,60.88c-3.04,5.07-2.76,9.93,0.86,14.58c16.17,15.31,30.75,31.88,43.73,49.73
		c1.74,3.45,3.46,6.88,5.14,10.29c2,6.43-0.14,10.57-6.43,12.43c-14.35,0.82-28.64,0.53-42.87-0.86c-1.14-0.57-2.29-1.14-3.43-1.71
		c-11.41-12.27-23.13-24.27-35.15-36.01c-4.29-3.14-8.57-6.29-12.86-9.43c-5.4-3.36-11.12-4.21-17.15-2.57
		c-1.03,0.77-1.74,1.77-2.14,3c-0.29,12.29-0.57,24.58-0.86,36.87c-0.01,4.18-1.87,7.18-5.57,9c-17.26,3.72-34.12,2.29-50.59-4.29
		c-21.3-9.01-39.45-22.3-54.45-39.87c-21.29-26.85-38.44-56.29-51.45-88.31c-3.37-8.33-5.94-16.91-7.72-25.72
		C113.4,180.11,116.68,175.82,124.6,175.19z"/>
</g>
</svg>
