<?xml version="1.0" encoding="UTF-8"?>
<!DOCTYPE svg PUBLIC "-//W3C//DTD SVG 1.1//EN" "http://www.w3.org/Graphics/SVG/1.1/DTD/svg11.dtd">
<svg xmlns="http://www.w3.org/2000/svg" version="1.1" width="512px" height="512px" style="shape-rendering:geometricPrecision; text-rendering:geometricPrecision; image-rendering:optimizeQuality; fill-rule:evenodd; clip-rule:evenodd" xmlns:xlink="http://www.w3.org/1999/xlink">
<g><path style="opacity:0.963" fill="#000000" d="M 97.5,-0.5 C 108.167,-0.5 118.833,-0.5 129.5,-0.5C 135.682,24.2277 142.182,48.8944 149,73.5C 155.504,48.815 162.004,24.1483 168.5,-0.5C 178.833,-0.5 189.167,-0.5 199.5,-0.5C 187.375,38.3765 175.542,77.3765 164,116.5C 163.5,142.831 163.333,169.165 163.5,195.5C 153.5,195.5 143.5,195.5 133.5,195.5C 133.667,167.831 133.5,140.165 133,112.5C 130.645,102.413 127.978,92.4131 125,82.5C 115.723,54.8351 106.556,27.1685 97.5,-0.5 Z"/></g>
<g><path style="opacity:0.957" fill="#000000" d="M 228.5,47.5 C 258.102,44.6052 274.268,57.9385 277,87.5C 277.667,110.833 277.667,134.167 277,157.5C 276.598,173.823 269.432,185.99 255.5,194C 240.222,199.853 225.889,198.186 212.5,189C 203.966,181.087 199.466,171.253 199,159.5C 198.333,134.5 198.333,109.5 199,84.5C 200.613,65.4075 210.446,53.0741 228.5,47.5 Z M 235.5,71.5 C 243.141,71.3074 247.641,74.9741 249,82.5C 249.667,108.833 249.667,135.167 249,161.5C 247.072,171.044 241.572,174.211 232.5,171C 228.426,167.457 226.259,162.957 226,157.5C 225.333,133.833 225.333,110.167 226,86.5C 226.193,79.413 229.36,74.413 235.5,71.5 Z"/></g>
<g><path style="opacity:0.967" fill="#000000" d="M 298.5,48.5 C 307.5,48.5 316.5,48.5 325.5,48.5C 325.333,88.1681 325.5,127.835 326,167.5C 326.575,170.797 328.575,172.464 332,172.5C 338.448,170.393 343.448,166.393 347,160.5C 347.5,123.168 347.667,85.8348 347.5,48.5C 356.5,48.5 365.5,48.5 374.5,48.5C 374.5,97.5 374.5,146.5 374.5,195.5C 365.5,195.5 356.5,195.5 347.5,195.5C 347.666,190.821 347.499,186.155 347,181.5C 340.496,189.333 332.33,194.5 322.5,197C 308.544,199.28 300.711,193.447 299,179.5C 298.5,135.835 298.333,92.1679 298.5,48.5 Z"/></g>
<g><path style="opacity:0.981" fill="#000000" d="M 343.5,511.5 C 284.833,511.5 226.167,511.5 167.5,511.5C 149.987,510.4 132.32,509.233 114.5,508C 104.065,507.39 93.7317,506.057 83.5,504C 63.4945,496.509 50.9945,482.342 46,461.5C 43.5974,450.612 41.9307,439.612 41,428.5C 37.6667,383.833 37.6667,339.166 41,294.5C 41.8608,276.86 45.5275,259.86 52,243.5C 60.0002,230.173 71.5002,221.34 86.5,217C 111.059,213.777 135.726,211.777 160.5,211C 223.833,209 287.167,209 350.5,211C 375.274,211.777 399.941,213.777 424.5,217C 443.4,222.232 456.233,234.065 463,252.5C 466.521,265.961 468.855,279.628 470,293.5C 473.466,341.528 473.133,389.528 469,437.5C 467.781,450.93 464.781,463.93 460,476.5C 452.573,489.586 441.74,498.753 427.5,504C 417.596,505.991 407.596,507.324 397.5,508C 379.344,509.195 361.344,510.361 343.5,511.5 Z M 72.5,257.5 C 102.5,257.5 132.5,257.5 162.5,257.5C 162.5,266.167 162.5,274.833 162.5,283.5C 151.833,283.5 141.167,283.5 130.5,283.5C 130.5,338.833 130.5,394.167 130.5,449.5C 121.167,449.5 111.833,449.5 102.5,449.5C 102.5,394.167 102.5,338.833 102.5,283.5C 92.5,283.5 82.5,283.5 72.5,283.5C 72.5,274.833 72.5,266.167 72.5,257.5 Z M 264.5,257.5 C 272.833,257.5 281.167,257.5 289.5,257.5C 289.167,278.511 289.5,299.511 290.5,320.5C 297.023,311.482 305.857,306.149 317,304.5C 330.401,306.269 337.735,313.936 339,327.5C 340.992,361.498 340.992,395.498 339,429.5C 336.751,445.767 327.585,452.934 311.5,451C 302.691,448.173 295.524,443.006 290,435.5C 289.501,440.155 289.334,444.821 289.5,449.5C 281.167,449.5 272.833,449.5 264.5,449.5C 264.5,385.5 264.5,321.5 264.5,257.5 Z M 398.5,304.5 C 421.212,305.378 434.379,317.045 438,339.5C 438.5,353.829 438.667,368.163 438.5,382.5C 421.167,382.5 403.833,382.5 386.5,382.5C 386.333,393.172 386.5,403.839 387,414.5C 388.175,426.83 394.675,431.33 406.5,428C 409.187,426.125 411.021,423.625 412,420.5C 413.137,413.88 413.637,407.214 413.5,400.5C 421.833,400.5 430.167,400.5 438.5,400.5C 438.666,407.841 438.5,415.174 438,422.5C 432.846,441.252 420.513,450.918 401,451.5C 376.263,449.761 363.263,436.428 362,411.5C 361.08,386.471 361.413,361.471 363,336.5C 367.337,317.429 379.17,306.762 398.5,304.5 Z M 166.5,306.5 C 175.167,306.5 183.833,306.5 192.5,306.5C 192.333,346.168 192.5,385.835 193,425.5C 193.374,426.416 193.874,427.25 194.5,428C 198.975,429.481 203.309,428.814 207.5,426C 210,423.5 212.5,421 215,418.5C 215.5,381.168 215.667,343.835 215.5,306.5C 224.167,306.5 232.833,306.5 241.5,306.5C 241.5,354.167 241.5,401.833 241.5,449.5C 232.833,449.5 224.167,449.5 215.5,449.5C 215.666,444.489 215.499,439.489 215,434.5C 208.529,441.975 200.696,447.475 191.5,451C 181.023,453.508 173.523,450.008 169,440.5C 167.892,433.885 167.225,427.218 167,420.5C 166.5,382.501 166.333,344.501 166.5,306.5 Z"/></g>
<g><path style="opacity:0.931" fill="#000000" d="M 299.5,327.5 C 309.973,326.804 315.14,331.804 315,342.5C 315.667,366.5 315.667,390.5 315,414.5C 313.243,428.716 306.076,432.549 293.5,426C 292.333,424.833 291.167,423.667 290,422.5C 289.333,392.833 289.333,363.167 290,333.5C 292.843,330.837 296.009,328.837 299.5,327.5 Z"/></g>
<g><path style="opacity:0.941" fill="#000000" d="M 395.5,327.5 C 405.275,325.958 411.108,329.958 413,339.5C 413.5,346.826 413.666,354.159 413.5,361.5C 404.5,361.5 395.5,361.5 386.5,361.5C 386.179,353.439 386.679,345.439 388,337.5C 389.213,333.131 391.713,329.797 395.5,327.5 Z"/></g>
</svg>
