<?xml version="1.0" encoding="utf-8"?>
<!-- Generator: Adobe Illustrator 26.5.0, SVG Export Plug-In . SVG Version: 6.00 Build 0)  -->
<svg version="1.1" id="Слой_1" xmlns="http://www.w3.org/2000/svg" xmlns:xlink="http://www.w3.org/1999/xlink" x="0px" y="0px"
	 viewBox="0 0 500 500" style="enable-background:new 0 0 500 500;" xml:space="preserve">
<style type="text/css">
	.st0{opacity:0.963;fill-rule:evenodd;clip-rule:evenodd;fill:#FFFFFF;enable-background:new    ;}
	.st1{opacity:0.957;fill-rule:evenodd;clip-rule:evenodd;fill:#FFFFFF;enable-background:new    ;}
	.st2{opacity:0.967;fill-rule:evenodd;clip-rule:evenodd;fill:#FFFFFF;enable-background:new    ;}
	.st3{opacity:0.981;fill-rule:evenodd;clip-rule:evenodd;fill:#FFFFFF;enable-background:new    ;}
	.st4{opacity:0.931;fill-rule:evenodd;clip-rule:evenodd;fill:#FFFFFF;enable-background:new    ;}
	.st5{opacity:0.941;fill-rule:evenodd;clip-rule:evenodd;fill:#FFFFFF;enable-background:new    ;}
</style>
<g>
	<path class="st0" d="M124.96,36.09c9.21,0,18.43,0,27.64,0c5.34,21.36,10.95,42.66,16.84,63.91c5.62-21.32,11.23-42.62,16.84-63.91
		c8.92,0,17.85,0,26.77,0c-10.47,33.58-20.69,67.26-30.66,101.05c-0.43,22.74-0.58,45.49-0.43,68.23c-8.64,0-17.27,0-25.91,0
		c0.14-23.9,0-47.79-0.43-71.69c-2.03-8.71-4.34-17.35-6.91-25.91C140.7,83.88,132.78,59.99,124.96,36.09z"/>
</g>
<g>
	<path class="st1" d="M238.1,77.55c25.57-2.5,39.53,9.02,41.89,34.55c0.58,20.15,0.58,40.31,0,60.46
		c-0.35,14.1-6.54,24.61-18.57,31.52c-13.2,5.06-25.57,3.62-37.14-4.32c-7.37-6.83-11.26-15.33-11.66-25.48
		c-0.58-21.59-0.58-43.18,0-64.78C214.02,93.01,222.51,82.36,238.1,77.55z M244.15,98.28c6.6-0.17,10.49,3,11.66,9.5
		c0.58,22.74,0.58,45.49,0,68.23c-1.67,8.24-6.42,10.98-14.25,8.21c-3.52-3.06-5.39-6.95-5.61-11.66c-0.58-20.44-0.58-40.88,0-61.32
		C236.11,105.11,238.84,100.79,244.15,98.28z"/>
</g>
<g>
	<path class="st2" d="M298.56,78.41c7.77,0,15.55,0,23.32,0c-0.14,34.26,0,68.52,0.43,102.78c0.5,2.85,2.22,4.29,5.18,4.32
		c5.57-1.82,9.89-5.27,12.96-10.36c0.43-32.24,0.58-64.49,0.43-96.73c7.77,0,15.55,0,23.32,0c0,42.32,0,84.64,0,126.96
		c-7.77,0-15.55,0-23.32,0c0.14-4.04,0-8.07-0.43-12.09c-5.62,6.77-12.67,11.23-21.16,13.39c-12.05,1.97-18.82-3.07-20.3-15.11
		C298.56,153.84,298.42,116.13,298.56,78.41z"/>
</g>
<g>
	<path class="st3" d="M337.43,478.3c-50.67,0-101.34,0-152.01,0c-15.13-0.95-30.38-1.96-45.78-3.02
		c-9.01-0.53-17.94-1.68-26.77-3.45c-17.28-6.47-28.07-18.71-32.39-36.71c-2.08-9.4-3.51-18.9-4.32-28.5
		c-2.88-38.58-2.88-77.16,0-115.73c0.74-15.24,3.91-29.92,9.5-44.05c6.91-11.51,16.84-19.14,29.8-22.89
		c21.21-2.78,42.52-4.51,63.91-5.18c54.7-1.73,109.4-1.73,164.1,0c21.4,0.67,42.7,2.4,63.91,5.18
		c16.32,4.52,27.41,14.74,33.25,30.66c3.04,11.63,5.06,23.43,6.05,35.41c2.99,41.48,2.71,82.94-0.86,124.37
		c-1.05,11.6-3.64,22.83-7.77,33.68c-6.41,11.3-15.77,19.22-28.07,23.75c-8.55,1.72-17.19,2.87-25.91,3.45
		C368.38,476.31,352.84,477.32,337.43,478.3z M103.37,258.92c25.91,0,51.82,0,77.73,0c0,7.49,0,14.97,0,22.46
		c-9.21,0-18.43,0-27.64,0c0,47.79,0,95.58,0,143.37c-8.06,0-16.12,0-24.18,0c0-47.79,0-95.58,0-143.37c-8.64,0-17.27,0-25.91,0
		C103.37,273.89,103.37,266.41,103.37,258.92z M269.19,258.92c7.2,0,14.4,0,21.59,0c-0.29,18.15,0,36.28,0.86,54.41
		c5.63-7.79,13.26-12.39,22.89-13.82c11.57,1.53,17.91,8.15,19,19.86c1.72,29.36,1.72,58.73,0,88.1
		c-1.94,14.05-9.86,20.24-23.75,18.57c-7.61-2.44-13.8-6.9-18.57-13.39c-0.43,4.02-0.58,8.05-0.43,12.09c-7.2,0-14.4,0-21.59,0
		C269.19,369.48,269.19,314.2,269.19,258.92z M384.93,299.52c19.62,0.76,30.99,10.84,34.12,30.23c0.43,12.38,0.58,24.76,0.43,37.14
		c-14.97,0-29.94,0-44.91,0c-0.14,9.22,0,18.43,0.43,27.64c1.01,10.65,6.63,14.54,16.84,11.66c2.32-1.62,3.9-3.78,4.75-6.48
		c0.98-5.72,1.41-11.48,1.3-17.27c7.2,0,14.4,0,21.59,0c0.14,6.34,0,12.67-0.43,19c-4.45,16.2-15.1,24.54-31.96,25.05
		c-21.37-1.5-32.59-13.02-33.68-34.55c-0.79-21.62-0.51-43.21,0.86-64.78C358.01,310.68,368.23,301.47,384.93,299.52z
		 M184.55,301.24c7.49,0,14.97,0,22.46,0c-0.14,34.26,0,68.52,0.43,102.78c0.32,0.79,0.75,1.51,1.3,2.16
		c3.87,1.28,7.61,0.7,11.23-1.73c2.16-2.16,4.32-4.32,6.48-6.48c0.43-32.24,0.58-64.49,0.43-96.73c7.49,0,14.97,0,22.46,0
		c0,41.17,0,82.34,0,123.51c-7.49,0-14.97,0-22.46,0c0.14-4.33,0-8.65-0.43-12.96c-5.59,6.46-12.35,11.21-20.3,14.25
		c-9.05,2.17-15.53-0.86-19.43-9.07c-0.96-5.71-1.53-11.47-1.73-17.27C184.55,366.89,184.41,334.06,184.55,301.24z"/>
</g>
<g>
	<path class="st4" d="M299.42,319.38c9.05-0.6,13.51,3.72,13.39,12.96c0.58,20.73,0.58,41.46,0,62.19
		c-1.52,12.28-7.71,15.59-18.57,9.93c-1.01-1.01-2.02-2.01-3.02-3.02c-0.58-25.62-0.58-51.25,0-76.87
		C293.67,322.26,296.41,320.54,299.42,319.38z"/>
</g>
<g>
	<path class="st5" d="M382.34,319.38c8.44-1.33,13.48,2.12,15.11,10.36c0.43,6.33,0.58,12.66,0.43,19c-7.77,0-15.55,0-23.32,0
		c-0.28-6.96,0.15-13.87,1.3-20.73C376.91,324.24,379.07,321.37,382.34,319.38z"/>
</g>
</svg>
