<?xml version="1.0" encoding="utf-8"?>
<!-- Generator: Adobe Illustrator 26.5.0, SVG Export Plug-In . SVG Version: 6.00 Build 0)  -->
<svg version="1.1" id="Слой_1" xmlns="http://www.w3.org/2000/svg" xmlns:xlink="http://www.w3.org/1999/xlink" x="0px" y="0px"
	 viewBox="0 0 500 500" style="enable-background:new 0 0 500 500;" xml:space="preserve">
<style type="text/css">
	.st0{fill-rule:evenodd;clip-rule:evenodd;fill:#FFFFFF;}
</style>
<path class="st0" d="M221.99,249.29h15.27c0.79-4.41-0.63-8.18-5.51-8.18C226.87,241.11,223.41,243.63,221.99,249.29z
	 M135.91,257.48c-2.05-0.32-6.61-1.58-10.55,1.1s-5.04,7.39-0.94,8.97c3.94,1.51,9.75-1.1,10.54-5.2L135.91,257.48L135.91,257.48z
	 M416.19,256.06c1.26-4.09,0.57-9.2-0.79-11.01c-3.77-5.04-12.46-1.06-15.11,8.81c-1.73,6.45,2.05,11.33,6.29,11.33
	C411.15,265.19,413.98,261.57,416.19,256.06L416.19,256.06z M343.64,257.48c-2.05-0.32-6.61-1.58-10.54,1.1
	c-3.94,2.68-5.04,7.39-0.94,8.97c3.94,1.51,9.75-1.1,10.54-5.2L343.64,257.48L343.64,257.48z"/>
<path class="st0" d="M325.67,127c-29.24,0-55.84,10.23-76.85,27.38c16.03,15.47,28.26,34.85,34.83,56.75h-10.14
	c-6.35-19.47-17.51-36.65-32.02-50.43c-14.6,13.91-25.53,31.21-31.81,50.38h-10.14c6.47-21.5,18.34-40.98,34.47-56.6
	C213.05,137.49,186.57,127,157.5,127c-67.38,0-122,54.62-122,122c0,67.38,54.62,122,122,122c29.07,0,55.55-10.49,76.51-27.47
	c-15.9-15.43-27.93-34.83-34.47-56.6h10.14c6.28,19.16,17.21,36.47,31.81,50.38c14.51-13.79,25.66-30.96,32.02-50.44h10.14
	c-6.56,21.9-18.8,41.28-34.83,56.75c21.01,17.15,47.62,27.38,76.85,27.38c67.38,0,122-54.62,122-121.99
	C447.67,181.63,393.05,127,325.67,127z M103.5,277.62H90.75l7.24-38.4l-17.16,38.4H69.19l-3.31-39.34l-7.55,39.34H46.05l10.54-54.45
	h19.67l2.36,33.05l14.95-33.05h20.14L103.5,277.62L103.5,277.62z M134.02,277.62l-1.57-2.52c-2.2,1.58-3.94,2.36-10.23,2.68
	c-6.29,0.31-14.32-4.41-12.9-13.7c3.46-18.88,25.49-15.42,28.64-15.73c1.42-6.77-3.3-6.14-7.55-6.29
	c-4.25-0.15-12.27,1.1-15.27,1.42l1.89-9.76c8.03-1.58,12.28-1.42,16.05-1.58c20.61,0,18.57,14.79,17.31,20.93l-4.88,24.55H134.02z
	 M183.91,264.87c-2.04,13.54-16.68,12.75-19.67,12.75c-4.25,0-8.81,0-14.48-1.58l1.73-9.28c6.14,2.05,14.32,1.1,16.21,1.1
	c4.12,0,4.69-5.21,1.58-6.77c-2.52-1.26-5.19-3.15-9.92-5.19c-2.93-1.27-5.98-4.72-4.25-13.06c2.26-10.88,16.99-10.7,18.73-10.7
	s6.29-0.47,12.12,1.73l-2.83,9.13c-3.47-0.95-9.29-0.95-12.12-0.63c-4.56,1.26-2.68,5.51-0.16,6.61c2.52,1.1,6.45,3.31,8.81,4.88
	C182.02,255.27,184.91,258.27,183.91,264.87z M205.15,275.57c-2.68,1.73-6.29,2.21-9.13,2.21c-2.83,0-12.12-1.74-9.75-14.01
	l8.5-42.81h12.27l-2.52,11.96h6.61l-2.2,9.76h-6.29l-3.46,18.25c-0.63,3.46-0.31,6.61,6.77,5.51L205.15,275.57z M232.54,267.39
	c4.88,0,11.97-0.63,13.85-1.1l-1.89,9.28c-2.99,1.58-10.55,2.21-15.74,2.05c-21.24,0-20.93-19.98-20.46-22.82
	c0.47-2.83,2.99-22.5,22.82-22.5c21.56,0,18.25,17.94,16.84,25.18h-26.75C219.79,267.71,227.66,267.39,232.54,267.39z
	 M264.36,257.16l-3.77,20.46h-12.28v0l8.34-44.69h10.54l1.1,4.41c1.89-2.2,5.51-4.41,11.64-4.41l-3.15,11.8
	C273.81,244.73,267.98,243.79,264.36,257.16z M311.06,263.77l3.62,11.02c-4.09,1.89-8.18,2.83-14.95,2.83
	c-12.75,0-26.59-11.33-20.3-34.31c4.64-16.93,19.2-23.13,27.7-22.82c10.07,0.38,13.69,3.78,16.84,7.24l-8.03,8.02
	c-3.15-1.89-5.35-2.2-9.44-2.2c-4.09,0-13.22,3.91-14.95,14.95C289.5,261.57,298.47,268.02,311.06,263.77z M341.75,277.62
	l-1.58-2.52c-2.21,1.58-3.93,2.36-10.23,2.68c-6.29,0.31-14.32-4.41-12.9-13.7c3.46-18.88,25.49-15.42,28.64-15.73
	c1.42-6.77-3.3-6.14-7.55-6.29c-4.25-0.15-12.27,1.1-15.27,1.42l1.89-9.76h0c8.03-1.58,12.27-1.42,16.05-1.58
	c20.62,0,18.57,14.79,17.31,20.93l-4.88,24.55H341.75z M374.22,256.92l-3.82,20.66h-12.4h0l8.42-45.14h10.65l1.11,4.45
	c1.91-2.23,5.57-4.45,11.76-4.45l-3.33,11.76C383.6,244.2,377.88,243.41,374.22,256.92z M412.88,277.62L411.3,274
	c-2.51,1.73-6.6,3.46-10.7,3.62c-8.81,0-16.9-12.45-12.9-26.12c5.98-20.46,16.52-19.2,23.29-19.2c5.83,0,7.24,3.62,9.6,5.35
	l3.3-17.31h12.91l-10.7,57.28H412.88z"/>
</svg>
