<?xml version="1.0" encoding="utf-8"?>
<!-- Generator: Adobe Illustrator 26.5.0, SVG Export Plug-In . SVG Version: 6.00 Build 0)  -->
<svg version="1.1" id="Слой_1" xmlns="http://www.w3.org/2000/svg" xmlns:xlink="http://www.w3.org/1999/xlink" x="0px" y="0px"
	 viewBox="0 0 500 500" style="enable-background:new 0 0 500 500;" xml:space="preserve">
<style type="text/css">
	.st0{fill:#FFFFFF;}
</style>
<g id="Page-1">
	<g id="Artboard" transform="translate(-91.000000, -154.000000)">
		<g id="Group" transform="translate(91.000000, 154.000000)">
			<path id="Combined-Shape" class="st0" d="M354.53,244.53v63.67h35.37v-37.73h40.09c16.86-0.12,31.19-10.91,36.61-25.94H354.53z"
				/>
			<path id="Combined-Shape_1_" class="st0" d="M349.81,192.06c2.06,26,26.71,46.58,56.78,46.58c0.12,0,61.49,0,61.49,0
				c0.47-2.36,0.71-4.83,0.71-7.37c0-21.58-17.39-39.03-38.91-39.21H349.81z"/>
			<path id="Combined-Shape_2_" class="st0" d="M297.46,237.99v-0.06V237.99c0.41-0.71,1.06-1.12,1.89-1.12
				c1.18,0,2.06,0.94,2.12,2.06l0,0v68.69h35.37V192.06h-35.37c-4.48,0.18-9.55,3.42-11.44,7.49l-28.12,60.37
				c-0.06,0.24-0.18,0.47-0.29,0.71l0,0l0,0c-0.41,0.59-1.12,1-1.95,1c-1.3,0-2.36-1.06-2.36-2.36v-67.21h-35.37v115.56h35.37l0,0
				c4.42-0.24,9.37-3.48,11.26-7.49l28.89-61.96C297.4,238.1,297.46,238.05,297.46,237.99L297.46,237.99z"/>
			<path id="Combined-Shape_3_" class="st0" d="M165.39,239.99l-20.69,67.62h-25.47l-20.64-67.68c-0.18-1.06-1.12-1.89-2.3-1.89
				c-1.3,0-2.3,1.06-2.3,2.3l0,0v67.21H58.62V192h30.36H98c6.49,0,13.32,5.07,15.21,11.26l17.22,56.3c0.88,2.83,2.24,2.77,3.12,0
				l17.22-56.3c1.89-6.25,8.73-11.26,15.21-11.26H175h30.36v115.56h-35.37v-67.21c0,0,0,0,0-0.06c0-1.3-1.06-2.3-2.3-2.3
				C166.51,238.05,165.57,238.87,165.39,239.99L165.39,239.99z"/>
		</g>
	</g>
</g>
</svg>
