<?xml version="1.0" encoding="utf-8"?>
<!-- Generator: Adobe Illustrator 26.5.0, SVG Export Plug-In . SVG Version: 6.00 Build 0)  -->
<svg version="1.1" id="Слой_1" xmlns="http://www.w3.org/2000/svg" xmlns:xlink="http://www.w3.org/1999/xlink" x="0px" y="0px"
	 viewBox="0 0 500 500" style="enable-background:new 0 0 500 500;" xml:space="preserve">
<style type="text/css">
	.st0{fill:#FFFFFF;}
	.st1{fill-rule:evenodd;clip-rule:evenodd;fill:#FFFFFF;}
</style>
<g>
	<polygon class="st0" points="282.57,232.28 276.43,249.35 289.67,249.35 283.54,232.28 	"/>
	<path class="st0" d="M242.44,247.92c-0.89-0.44-2.04-0.53-3.47-0.53h-17.6v6.75h17.6c1.24,0,2.22-0.09,2.93-0.36
		c1.51-0.53,2.13-1.87,2.13-3.11C244.04,249.44,243.5,248.46,242.44,247.92z"/>
	<path class="st0" d="M466.07,150.8H40.45c-11.35,0-20.55,9.2-20.55,20.55v142.11c0,11.35,9.2,20.55,20.55,20.55h425.62
		c11.35,0,20.55-9.2,20.55-20.55V171.35C486.61,160,477.41,150.8,466.07,150.8z M184.32,246.98c0,13.24-7.07,25.48-18.54,32.11
		l-32.83,18.96l-32.83-18.96c-11.47-6.62-18.54-18.86-18.54-32.11v-51.67h102.73V246.98z M248.12,263.56
		c-2.31,0.89-5.42,1.24-9.6,1.24h-30.04v-42.3h44.34v9.78h-31.46v5.69h18.31c3.29,0,6.31,0.27,8.62,1.16c4.89,1.87,8,6.04,8,12.09
		C256.3,257.17,253.01,261.7,248.12,263.56z M295.27,264.81l-2.49-6.13h-19.55l-2.4,6.13h-14.57l17.33-42.3h18.84l17.33,42.3H295.27
		z M359.94,264.81h-12.89v-15.73h-20.71v15.73h-12.89v-42.3h12.89v15.46h20.71v-15.46h12.89V264.81z M399.26,264.81l-15.37-16h-3.55
		v16h-12.89v-42.3h12.89v15.91h3.55l15.55-15.91h16.17L395,242.77l21.42,22.04H399.26z"/>
</g>
<path class="st1" d="M109.78,222.51v16.07c2.2-2.48,6.19-4.16,10.76-4.16h4.96v18.68c0,4.97-1.35,9.32-3.35,11.71h21.59
	c-2-2.4-3.35-6.74-3.35-11.7v-18.69h4.96c4.57,0,8.56,1.68,10.76,4.16v-16.07C156.12,222.51,109.78,222.51,109.78,222.51z"/>
</svg>
