<?xml version="1.0" encoding="utf-8"?>
<!-- Generator: Adobe Illustrator 26.5.0, SVG Export Plug-In . SVG Version: 6.00 Build 0)  -->
<svg version="1.1" id="Слой_1" xmlns="http://www.w3.org/2000/svg" xmlns:xlink="http://www.w3.org/1999/xlink" x="0px" y="0px"
	 viewBox="0 0 500 500" style="enable-background:new 0 0 500 500;" xml:space="preserve">
<style type="text/css">
	.st0{fill:#FFFFFF;}
</style>
<g>
	<path class="st0" d="M390.24,224.45c-1.55,4.23-4.25,11.04-4.07,10.74c0,0-9.69,24.98-12.23,31.47h25.47
		c-1.23-5.64-7.1-32.51-7.1-32.51L390.24,224.45z"/>
	<path class="st0" d="M421.42,106H72.05c-27.39,0-49.6,22.21-49.6,49.6v188.35c0,27.39,22.21,49.6,49.6,49.6h349.37
		c27.39,0,49.6-22.21,49.6-49.6V155.6C471.02,128.21,448.81,106,421.42,106z M116.75,306.37l-27.23-97.59
		c-9.48-5.29-20.32-9.53-32.44-12.47l0.39-2.34h49.48l0,0c6.66,0.25,12.05,2.38,13.91,9.5l10.46,50.27c0.16,0.47,0.32,0.94,0.46,1.4
		l3.2,15.6l30.04-76.77v0h32.5l-48.31,112.36L116.75,306.37z M191.07,306.55l19.19-112.58h30.69l-19.2,112.58H191.07z
		 M274.71,307.87c-13.76-0.14-27.01-2.86-34.18-6.01l4.31-25.2l3.95,1.79c10.08,4.2,16.6,5.91,28.88,5.91
		c8.82,0,18.28-3.45,18.36-10.99c0.06-4.93-3.96-8.45-15.9-13.96c-11.64-5.39-27.06-14.41-26.89-30.59
		c0.18-21.88,21.54-37.15,51.86-37.15c11.9,0,21.42,2.45,27.5,4.73v0v0l0,0l-4.16,24.4l-2.75-1.3c-5.66-2.28-12.93-4.47-22.97-4.31
		c-12.01,0-17.57,5-17.57,9.68c-0.07,5.27,6.5,8.75,17.22,13.96c17.7,8.03,25.88,17.78,25.76,30.59
		C327.9,292.78,306.96,307.87,274.71,307.87z M407.93,306.47c0,0-2.81-12.93-3.73-16.87c-4.48,0-35.78-0.05-39.3-0.05
		c-1.19,3.05-6.46,16.92-6.46,16.92h-32.22l45.57-103.17c3.23-7.33,8.72-9.34,16.07-9.34h23.71v0l24.84,112.51H407.93z"/>
</g>
</svg>
